<svg xmlns="http://www.w3.org/2000/svg" xmlns:xlink="http://www.w3.org/1999/xlink" width="600" zoomAndPan="magnify" viewBox="215 35 10 70.999998" height="200" preserveAspectRatio="xMidYMid meet" version="1.0"><defs><g/><clipPath id="511f26f364"><path d="M 116.132812 86 L 227 86 L 227 102.464844 L 116.132812 102.464844 Z M 116.132812 86 " clip-rule="nonzero"/></clipPath></defs><rect x="-45" width="540" fill="#ffffff" y="-15" height="179.999997" fill-opacity="1"/><rect x="-45" width="540" fill="#ffffff" y="-15" height="179.999997" fill-opacity="1"/><g clip-path="url(#511f26f364)"><path fill="#0097b2" d="M 117.390625 102.132812 C 124.160156 98.632812 132.058594 97.824219 139.5625 97.640625 C 147.644531 97.433594 155.707031 97.964844 163.742188 98.699219 C 171.871094 99.460938 179.976562 100.40625 188.128906 100.980469 C 192.179688 101.257812 196.257812 101.417969 200.332031 101.441406 C 204.15625 101.464844 208.023438 101.488281 211.847656 101.027344 C 215.691406 100.566406 219.539062 99.484375 222.484375 96.835938 C 225.0625 94.507812 226.929688 90.964844 226.214844 87.441406 C 225.914062 85.964844 223.613281 86.3125 223.613281 87.785156 C 223.636719 90.917969 222.414062 93.566406 219.996094 95.546875 C 217.28125 97.78125 213.640625 98.5625 210.257812 98.976562 C 202.566406 99.875 194.738281 99.574219 187.023438 99.046875 C 171.363281 97.941406 155.753906 95.382812 140.023438 95.9375 C 132.011719 96.191406 123.90625 97.113281 116.929688 101.347656 C 116.421875 101.648438 116.859375 102.40625 117.390625 102.132812 Z M 117.390625 102.132812 " fill-opacity="1" fill-rule="nonzero"/></g><path fill="#0097b2" d="M 120.429688 97.019531 C 127.289062 94.507812 134.382812 93.910156 141.636719 93.863281 C 142.027344 93.863281 142.167969 93.195312 141.726562 93.152344 C 134.476562 92.070312 126.921875 93.796875 120.265625 96.71875 C 120.128906 96.789062 120.242188 97.089844 120.429688 97.019531 Z M 120.429688 97.019531 " fill-opacity="1" fill-rule="nonzero"/><path fill="#0097b2" d="M 219.789062 101.050781 C 222.4375 100.679688 224.878906 99.414062 226.722656 97.503906 C 227.664062 96.535156 228.472656 95.429688 229.023438 94.210938 C 229.484375 93.242188 230.335938 91.515625 229.644531 90.527344 C 229.324219 90.066406 228.769531 89.996094 228.355469 90.363281 C 227.574219 91.03125 227.6875 92.550781 227.367188 93.519531 C 227 94.625 226.46875 95.660156 225.800781 96.605469 C 224.304688 98.65625 222.164062 100.152344 219.722656 100.820312 C 219.558594 100.84375 219.628906 101.070312 219.789062 101.050781 Z M 219.789062 101.050781 " fill-opacity="1" fill-rule="nonzero"/><g fill="#000000" fill-opacity="1"><g transform="translate(145.053016, 82.778957)"><g><path d="M 59.5 -10.0625 C 58.101562 -10.21875 56.691406 -10.296875 55.265625 -10.296875 C 54.640625 -10.328125 54.003906 -10.347656 53.359375 -10.359375 C 47.484375 -10.597656 41.59375 -10.660156 35.6875 -10.546875 C 35.382812 -10.546875 35.140625 -10.546875 34.953125 -10.546875 C 34.628906 -10.566406 34.394531 -10.5625 34.25 -10.53125 C 34.101562 -10.507812 33.984375 -10.429688 33.890625 -10.296875 C 33.804688 -10.160156 33.707031 -9.941406 33.59375 -9.640625 C 33.507812 -9.460938 33.410156 -9.238281 33.296875 -8.96875 C 32.316406 -6.832031 31.414062 -4.65625 30.59375 -2.4375 C 30.0625 -1 29.644531 0.46875 29.34375 1.96875 C 29.238281 2.4375 29.203125 2.890625 29.234375 3.328125 C 29.265625 3.773438 29.460938 4.175781 29.828125 4.53125 C 29.878906 4.570312 29.898438 4.617188 29.890625 4.671875 C 29.878906 4.722656 29.847656 4.773438 29.796875 4.828125 C 29.742188 4.878906 29.6875 4.910156 29.625 4.921875 C 28.75 5.054688 28.222656 4.742188 28.046875 3.984375 C 27.941406 3.554688 27.925781 3.117188 28 2.671875 C 28 2.640625 28 2.613281 28 2.59375 C 28.0625 1.820312 28.195312 1.054688 28.40625 0.296875 C 28.613281 -0.460938 28.847656 -1.222656 29.109375 -1.984375 C 29.941406 -4.273438 30.851562 -6.535156 31.84375 -8.765625 C 31.894531 -8.859375 31.9375 -8.953125 31.96875 -9.046875 C 32.019531 -9.160156 32.078125 -9.273438 32.140625 -9.390625 C 32.210938 -9.554688 32.28125 -9.71875 32.34375 -9.875 C 32.414062 -10.039062 32.445312 -10.207031 32.4375 -10.375 C 32.351562 -10.445312 32.269531 -10.488281 32.1875 -10.5 C 32.101562 -10.519531 32.023438 -10.519531 31.953125 -10.5 C 31.929688 -10.5 31.910156 -10.5 31.890625 -10.5 C 31.203125 -10.5 30.507812 -10.492188 29.8125 -10.484375 C 29.625 -10.484375 29.421875 -10.484375 29.203125 -10.484375 C 28.953125 -10.460938 28.738281 -10.378906 28.5625 -10.234375 C 28.382812 -10.085938 28.210938 -9.910156 28.046875 -9.703125 C 27.835938 -9.429688 27.625 -9.160156 27.40625 -8.890625 C 26.507812 -7.734375 25.601562 -6.585938 24.6875 -5.453125 C 23.320312 -3.816406 21.898438 -2.234375 20.421875 -0.703125 C 18.941406 0.816406 17.375 2.25 15.71875 3.59375 C 13.632812 5.3125 11.421875 6.820312 9.078125 8.125 C 5.492188 10.050781 1.738281 10.960938 -2.1875 10.859375 C -5.882812 10.773438 -9.21875 9.773438 -12.1875 7.859375 C -13.019531 7.328125 -13.757812 6.679688 -14.40625 5.921875 C -14.84375 5.390625 -15.1875 4.8125 -15.4375 4.1875 C -15.6875 3.570312 -15.8125 2.898438 -15.8125 2.171875 C -15.78125 1.296875 -15.582031 0.488281 -15.21875 -0.25 C -14.851562 -1 -14.347656 -1.679688 -13.703125 -2.296875 C -12.816406 -3.148438 -11.84375 -3.875 -10.78125 -4.46875 C -9.738281 -5.070312 -8.671875 -5.597656 -7.578125 -6.046875 C -6.484375 -6.503906 -5.378906 -6.90625 -4.265625 -7.25 C -2.453125 -7.832031 -0.628906 -8.320312 1.203125 -8.71875 C 3.046875 -9.113281 4.898438 -9.453125 6.765625 -9.734375 C 11.160156 -10.335938 15.570312 -10.738281 20 -10.9375 C 22.257812 -11.082031 24.515625 -11.15625 26.765625 -11.15625 C 27.378906 -11.132812 27.851562 -11.394531 28.1875 -11.9375 C 28.789062 -12.769531 29.390625 -13.609375 29.984375 -14.453125 C 30.921875 -15.742188 31.835938 -17.054688 32.734375 -18.390625 C 36.929688 -24.660156 40.957031 -31.035156 44.8125 -37.515625 C 45.132812 -38.054688 45.445312 -38.613281 45.75 -39.1875 C 45.894531 -39.46875 46.050781 -39.753906 46.21875 -40.046875 C 46.40625 -40.421875 46.707031 -40.628906 47.125 -40.671875 C 47.351562 -40.671875 47.519531 -40.609375 47.625 -40.484375 C 47.738281 -40.359375 47.753906 -40.1875 47.671875 -39.96875 C 47.585938 -39.789062 47.492188 -39.625 47.390625 -39.46875 C 46.765625 -38.351562 46.210938 -37.222656 45.734375 -36.078125 C 45.546875 -35.671875 45.363281 -35.273438 45.1875 -34.890625 C 43.5 -31.210938 41.796875 -27.53125 40.078125 -23.84375 C 38.773438 -21 37.457031 -18.148438 36.125 -15.296875 C 35.75 -14.453125 35.375 -13.613281 35 -12.78125 C 34.914062 -12.601562 34.832031 -12.4375 34.75 -12.28125 C 34.738281 -12.238281 34.726562 -12.195312 34.71875 -12.15625 C 34.664062 -12.039062 34.617188 -11.925781 34.578125 -11.8125 C 34.546875 -11.695312 34.554688 -11.582031 34.609375 -11.46875 C 34.722656 -11.382812 34.851562 -11.335938 35 -11.328125 C 35.144531 -11.328125 35.28125 -11.328125 35.40625 -11.328125 C 35.507812 -11.335938 35.601562 -11.34375 35.6875 -11.34375 C 36.289062 -11.332031 36.898438 -11.332031 37.515625 -11.34375 C 38.359375 -11.34375 39.203125 -11.335938 40.046875 -11.328125 C 44.617188 -11.242188 49.203125 -11.144531 53.796875 -11.03125 C 55.296875 -11 56.785156 -10.9375 58.265625 -10.84375 C 58.398438 -10.832031 58.539062 -10.828125 58.6875 -10.828125 C 58.769531 -10.828125 58.859375 -10.828125 58.953125 -10.828125 C 59.140625 -10.828125 59.320312 -10.804688 59.5 -10.765625 C 59.6875 -10.734375 59.859375 -10.671875 60.015625 -10.578125 C 60.046875 -10.554688 60.066406 -10.519531 60.078125 -10.46875 C 60.097656 -10.425781 60.101562 -10.390625 60.09375 -10.359375 C 60.09375 -10.304688 60.070312 -10.257812 60.03125 -10.21875 C 59.988281 -10.175781 59.953125 -10.148438 59.921875 -10.140625 C 59.785156 -10.085938 59.644531 -10.0625 59.5 -10.0625 Z M 26.6875 -9.9375 C 26.738281 -10.039062 26.742188 -10.132812 26.703125 -10.21875 C 26.660156 -10.300781 26.59375 -10.34375 26.5 -10.34375 C 26.351562 -10.351562 26.195312 -10.351562 26.03125 -10.34375 C 25.957031 -10.34375 25.878906 -10.34375 25.796875 -10.34375 C 20.253906 -10.269531 14.707031 -9.882812 9.15625 -9.1875 C 7.039062 -8.9375 4.929688 -8.597656 2.828125 -8.171875 C 0.734375 -7.753906 -1.34375 -7.234375 -3.40625 -6.609375 C -4.507812 -6.265625 -5.597656 -5.875 -6.671875 -5.4375 C -7.742188 -5 -8.789062 -4.484375 -9.8125 -3.890625 C -10.875 -3.296875 -11.84375 -2.566406 -12.71875 -1.703125 C -13.738281 -0.648438 -14.3125 0.460938 -14.4375 1.640625 C -14.5625 2.828125 -14.242188 3.972656 -13.484375 5.078125 C -12.921875 5.847656 -12.242188 6.507812 -11.453125 7.0625 C -8.597656 9.09375 -5.191406 10.125 -1.234375 10.15625 C -0.222656 10.15625 0.9375 10.023438 2.25 9.765625 C 3.5625 9.492188 4.828125 9.09375 6.046875 8.5625 C 7.265625 8.039062 8.445312 7.425781 9.59375 6.71875 C 12.414062 4.976562 15.03125 2.953125 17.4375 0.640625 C 19.101562 -0.921875 20.671875 -2.566406 22.140625 -4.296875 C 23.617188 -6.023438 25.050781 -7.785156 26.4375 -9.578125 C 26.519531 -9.710938 26.601562 -9.832031 26.6875 -9.9375 Z M 33.421875 -12.21875 C 34.484375 -14.644531 35.582031 -17.0625 36.71875 -19.46875 C 36.769531 -19.59375 36.9375 -19.96875 37.21875 -20.59375 C 37.507812 -21.226562 37.84375 -21.960938 38.21875 -22.796875 C 38.601562 -23.628906 38.953125 -24.414062 39.265625 -25.15625 C 39.585938 -25.894531 39.8125 -26.445312 39.9375 -26.8125 C 40.0625 -27.1875 40.023438 -27.222656 39.828125 -26.921875 C 39.773438 -26.859375 39.734375 -26.796875 39.703125 -26.734375 C 39.523438 -26.472656 39.351562 -26.210938 39.1875 -25.953125 C 37.84375 -23.867188 36.492188 -21.789062 35.140625 -19.71875 C 33.785156 -17.644531 32.378906 -15.597656 30.921875 -13.578125 C 30.785156 -13.378906 30.644531 -13.175781 30.5 -12.96875 C 30.21875 -12.582031 29.941406 -12.195312 29.671875 -11.8125 C 29.554688 -11.65625 29.519531 -11.519531 29.5625 -11.40625 C 29.613281 -11.300781 29.726562 -11.25 29.90625 -11.25 C 30.207031 -11.25 30.5 -11.257812 30.78125 -11.28125 C 31.238281 -11.3125 31.691406 -11.328125 32.140625 -11.328125 C 32.484375 -11.316406 32.75 -11.390625 32.9375 -11.546875 C 33.125 -11.710938 33.285156 -11.9375 33.421875 -12.21875 Z M 33.421875 -12.21875 "/></g></g></g><g fill="#000000" fill-opacity="1"><g transform="translate(179.947923, 82.778957)"><g><path d="M 8.71875 -5.5 C 8.832031 -5.34375 8.679688 -5.070312 8.265625 -4.6875 C 7.859375 -4.300781 7.425781 -3.972656 6.96875 -3.703125 C 6.507812 -3.441406 5.972656 -3.179688 5.359375 -2.921875 C 4.953125 -2.742188 4.519531 -2.679688 4.0625 -2.734375 C 3.613281 -2.796875 3.390625 -3.070312 3.390625 -3.5625 C 3.390625 -4.050781 3.503906 -4.539062 3.734375 -5.03125 C 3.960938 -5.53125 4.007812 -5.785156 3.875 -5.796875 C 3.75 -5.816406 3.484375 -5.695312 3.078125 -5.4375 C 2.035156 -4.75 1.0625 -3.960938 0.15625 -3.078125 C -0.0820312 -2.773438 -0.390625 -2.613281 -0.765625 -2.59375 C -0.960938 -2.59375 -1.113281 -2.648438 -1.21875 -2.765625 C -1.320312 -2.890625 -1.332031 -3.019531 -1.25 -3.15625 C -0.601562 -4.351562 0.046875 -5.535156 0.703125 -6.703125 C 0.847656 -6.941406 1.066406 -7.09375 1.359375 -7.15625 C 1.484375 -7.175781 1.597656 -7.132812 1.703125 -7.03125 C 1.816406 -6.9375 1.875 -6.828125 1.875 -6.703125 C 1.851562 -6.585938 1.804688 -6.445312 1.734375 -6.28125 C 1.691406 -6.1875 1.65625 -6.09375 1.625 -6 C 1.59375 -5.914062 1.582031 -5.84375 1.59375 -5.78125 C 1.601562 -5.726562 1.648438 -5.710938 1.734375 -5.734375 C 1.835938 -5.796875 1.945312 -5.859375 2.0625 -5.921875 C 2.34375 -6.085938 2.609375 -6.242188 2.859375 -6.390625 C 3.085938 -6.515625 3.328125 -6.628906 3.578125 -6.734375 C 3.828125 -6.835938 4.085938 -6.910156 4.359375 -6.953125 C 4.796875 -6.972656 5.109375 -6.867188 5.296875 -6.640625 C 5.484375 -6.421875 5.503906 -6.109375 5.359375 -5.703125 C 5.210938 -5.335938 5.0625 -4.972656 4.90625 -4.609375 C 4.707031 -4.273438 4.671875 -4.019531 4.796875 -3.84375 C 4.929688 -3.664062 5.546875 -3.867188 6.640625 -4.453125 L 7.46875 -4.9375 C 8.238281 -5.4375 8.65625 -5.625 8.71875 -5.5 Z M 8.71875 -5.5 "/></g></g></g><g fill="#000000" fill-opacity="1"><g transform="translate(188.016685, 82.778957)"><g><path d="M 8.71875 -5.5 C 8.832031 -5.34375 8.679688 -5.070312 8.265625 -4.6875 C 7.859375 -4.300781 7.425781 -3.972656 6.96875 -3.703125 C 6.507812 -3.441406 5.972656 -3.179688 5.359375 -2.921875 C 4.953125 -2.742188 4.519531 -2.679688 4.0625 -2.734375 C 3.613281 -2.796875 3.390625 -3.070312 3.390625 -3.5625 C 3.390625 -4.050781 3.503906 -4.539062 3.734375 -5.03125 C 3.960938 -5.53125 4.007812 -5.785156 3.875 -5.796875 C 3.75 -5.816406 3.484375 -5.695312 3.078125 -5.4375 C 2.035156 -4.75 1.0625 -3.960938 0.15625 -3.078125 C -0.0820312 -2.773438 -0.390625 -2.613281 -0.765625 -2.59375 C -0.960938 -2.59375 -1.113281 -2.648438 -1.21875 -2.765625 C -1.320312 -2.890625 -1.332031 -3.019531 -1.25 -3.15625 C -0.601562 -4.351562 0.046875 -5.535156 0.703125 -6.703125 C 0.847656 -6.941406 1.066406 -7.09375 1.359375 -7.15625 C 1.484375 -7.175781 1.597656 -7.132812 1.703125 -7.03125 C 1.816406 -6.9375 1.875 -6.828125 1.875 -6.703125 C 1.851562 -6.585938 1.804688 -6.445312 1.734375 -6.28125 C 1.691406 -6.1875 1.65625 -6.09375 1.625 -6 C 1.59375 -5.914062 1.582031 -5.84375 1.59375 -5.78125 C 1.601562 -5.726562 1.648438 -5.710938 1.734375 -5.734375 C 1.835938 -5.796875 1.945312 -5.859375 2.0625 -5.921875 C 2.34375 -6.085938 2.609375 -6.242188 2.859375 -6.390625 C 3.085938 -6.515625 3.328125 -6.628906 3.578125 -6.734375 C 3.828125 -6.835938 4.085938 -6.910156 4.359375 -6.953125 C 4.796875 -6.972656 5.109375 -6.867188 5.296875 -6.640625 C 5.484375 -6.421875 5.503906 -6.109375 5.359375 -5.703125 C 5.210938 -5.335938 5.0625 -4.972656 4.90625 -4.609375 C 4.707031 -4.273438 4.671875 -4.019531 4.796875 -3.84375 C 4.929688 -3.664062 5.546875 -3.867188 6.640625 -4.453125 L 7.46875 -4.9375 C 8.238281 -5.4375 8.65625 -5.625 8.71875 -5.5 Z M 8.71875 -5.5 "/></g></g></g><g fill="#000000" fill-opacity="1"><g transform="translate(196.085447, 82.778957)"><g><path d="M 4.375 -4.640625 C 3.976562 -4.171875 3.515625 -3.742188 2.984375 -3.359375 C 2.453125 -2.972656 1.847656 -2.707031 1.171875 -2.5625 C 0.492188 -2.425781 -0.03125 -2.476562 -0.40625 -2.71875 C -0.78125 -2.957031 -0.851562 -3.476562 -0.625 -4.28125 C -0.332031 -5.113281 0.0664062 -5.910156 0.578125 -6.671875 C 0.703125 -6.828125 0.875 -6.941406 1.09375 -7.015625 C 1.25 -7.046875 1.390625 -7.015625 1.515625 -6.921875 C 1.640625 -6.835938 1.6875 -6.722656 1.65625 -6.578125 C 1.539062 -6.316406 1.414062 -6.050781 1.28125 -5.78125 C 1.15625 -5.519531 1.070312 -5.347656 1.03125 -5.265625 C 0.769531 -4.796875 0.585938 -4.304688 0.484375 -3.796875 C 0.484375 -3.503906 0.875 -3.484375 1.65625 -3.734375 C 2.445312 -3.992188 3.210938 -4.46875 3.953125 -5.15625 C 4.691406 -5.84375 5.046875 -6.046875 5.015625 -5.765625 C 4.984375 -5.484375 4.769531 -5.109375 4.375 -4.640625 Z M 2.453125 -8.328125 C 2.421875 -8.296875 2.347656 -8.257812 2.234375 -8.21875 C 2.117188 -8.175781 1.992188 -8.144531 1.859375 -8.125 C 1.734375 -8.113281 1.632812 -8.132812 1.5625 -8.1875 C 1.488281 -8.25 1.484375 -8.367188 1.546875 -8.546875 C 1.671875 -8.847656 1.796875 -9.113281 1.921875 -9.34375 C 2.046875 -9.582031 2.210938 -9.84375 2.421875 -10.125 C 2.554688 -10.238281 2.695312 -10.300781 2.84375 -10.3125 C 3 -10.332031 3.128906 -10.296875 3.234375 -10.203125 C 3.335938 -10.109375 3.367188 -9.976562 3.328125 -9.8125 C 3.160156 -9.238281 2.867188 -8.742188 2.453125 -8.328125 Z M 2.453125 -8.328125 "/></g></g></g><g fill="#000000" fill-opacity="1"><g transform="translate(200.378511, 82.778957)"><g><path d="M 6.265625 -4.21875 C 5.847656 -3.800781 5.351562 -3.441406 4.78125 -3.140625 C 4.21875 -2.847656 3.742188 -2.65625 3.359375 -2.5625 C 2.984375 -2.476562 2.59375 -2.425781 2.1875 -2.40625 C 1.539062 -2.375 0.945312 -2.460938 0.40625 -2.671875 C -0.476562 -3.035156 -0.785156 -3.722656 -0.515625 -4.734375 C -0.253906 -5.609375 0.265625 -6.289062 1.046875 -6.78125 C 1.828125 -7.269531 2.640625 -7.507812 3.484375 -7.5 C 3.484375 -7.5 3.488281 -7.5 3.5 -7.5 C 3.707031 -7.507812 3.910156 -7.492188 4.109375 -7.453125 C 4.429688 -7.335938 4.632812 -7.144531 4.71875 -6.875 C 4.8125 -6.613281 4.753906 -6.320312 4.546875 -6 C 4.078125 -5.289062 3.4375 -4.894531 2.625 -4.8125 C 2.09375 -4.757812 1.578125 -4.785156 1.078125 -4.890625 C 0.984375 -4.898438 0.898438 -4.875 0.828125 -4.8125 C 0.753906 -4.75 0.707031 -4.664062 0.6875 -4.5625 C 0.539062 -3.9375 0.738281 -3.535156 1.28125 -3.359375 C 1.9375 -3.128906 2.617188 -3.128906 3.328125 -3.359375 C 4.148438 -3.617188 4.929688 -4.101562 5.671875 -4.8125 C 6.421875 -5.519531 6.851562 -5.847656 6.96875 -5.796875 C 7.082031 -5.753906 7.113281 -5.617188 7.0625 -5.390625 C 6.957031 -5.035156 6.691406 -4.644531 6.265625 -4.21875 Z M 1.578125 -6 C 1.535156 -5.945312 1.503906 -5.890625 1.484375 -5.828125 C 1.472656 -5.765625 1.5 -5.707031 1.5625 -5.65625 C 1.820312 -5.507812 2.097656 -5.457031 2.390625 -5.5 C 2.691406 -5.539062 2.945312 -5.65625 3.15625 -5.84375 C 3.375 -6.03125 3.46875 -6.257812 3.4375 -6.53125 C 3.414062 -6.625 3.363281 -6.679688 3.28125 -6.703125 C 3.195312 -6.734375 3.113281 -6.742188 3.03125 -6.734375 C 2.488281 -6.628906 2.003906 -6.382812 1.578125 -6 Z M 1.578125 -6 "/></g></g></g><g fill="#000000" fill-opacity="1"><g transform="translate(222.84177, 82.778957)"><g><path d="M 48.3125 -26.5625 C 48.269531 -26.425781 48.222656 -26.296875 48.171875 -26.171875 C 47.648438 -24.835938 47.09375 -23.523438 46.5 -22.234375 C 43.4375 -15.847656 40.140625 -9.675781 36.609375 -3.71875 C 35.472656 -1.800781 34.304688 0.0820312 33.109375 1.9375 C 31.910156 3.800781 30.707031 5.65625 29.5 7.5 C 29.207031 7.925781 28.914062 8.359375 28.625 8.796875 C 28.613281 8.828125 28.597656 8.851562 28.578125 8.875 C 28.515625 9.007812 28.4375 9.117188 28.34375 9.203125 C 28.257812 9.285156 28.144531 9.328125 28 9.328125 C 27.925781 9.328125 27.851562 9.3125 27.78125 9.28125 C 27.707031 9.25 27.648438 9.207031 27.609375 9.15625 C 27.578125 9.113281 27.550781 9.039062 27.53125 8.9375 C 27.519531 8.84375 27.53125 8.765625 27.5625 8.703125 C 27.757812 8.273438 27.976562 7.875 28.21875 7.5 C 28.757812 6.613281 29.304688 5.722656 29.859375 4.828125 C 30.890625 3.179688 31.90625 1.53125 32.90625 -0.125 C 35.125 -3.832031 37.238281 -7.609375 39.25 -11.453125 C 41.269531 -15.304688 43.242188 -19.203125 45.171875 -23.140625 C 45.941406 -24.660156 46.578125 -26.285156 47.078125 -28.015625 C 47.179688 -28.316406 47.257812 -28.628906 47.3125 -28.953125 C 47.363281 -29.273438 47.390625 -29.609375 47.390625 -29.953125 C 47.335938 -30.691406 47.023438 -31.015625 46.453125 -30.921875 C 45.929688 -30.816406 45.445312 -30.65625 45 -30.4375 C 43.914062 -29.914062 42.847656 -29.34375 41.796875 -28.71875 C 36.160156 -25.289062 31.03125 -21.039062 26.40625 -15.96875 C 26.332031 -15.894531 26.257812 -15.816406 26.1875 -15.734375 C 24.582031 -13.992188 22.992188 -12.238281 21.421875 -10.46875 C 19.847656 -8.695312 18.316406 -6.878906 16.828125 -5.015625 C 16.523438 -4.617188 16.203125 -4.253906 15.859375 -3.921875 C 15.503906 -3.546875 15.078125 -3.398438 14.578125 -3.484375 C 14.359375 -3.503906 14.179688 -3.601562 14.046875 -3.78125 C 13.910156 -3.96875 13.859375 -4.179688 13.890625 -4.421875 C 13.992188 -5.085938 14.140625 -5.726562 14.328125 -6.34375 C 14.921875 -8.289062 15.554688 -10.21875 16.234375 -12.125 C 16.328125 -12.414062 16.410156 -12.695312 16.484375 -12.96875 C 16.660156 -13.675781 16.910156 -14.332031 17.234375 -14.9375 C 17.234375 -14.957031 17.226562 -14.96875 17.21875 -14.96875 C 17.132812 -15.007812 17.050781 -15.039062 16.96875 -15.0625 C 16.894531 -15.09375 16.816406 -15.066406 16.734375 -14.984375 C 16.441406 -14.660156 16.160156 -14.320312 15.890625 -13.96875 C 13.660156 -10.945312 11.453125 -7.894531 9.265625 -4.8125 C 7.078125 -1.738281 4.9375 1.382812 2.84375 4.5625 C 2.675781 4.863281 2.484375 5.113281 2.265625 5.3125 C 2.046875 5.507812 1.753906 5.570312 1.390625 5.5 C 1.234375 5.457031 1.109375 5.359375 1.015625 5.203125 C 0.929688 5.046875 0.914062 4.894531 0.96875 4.75 C 1.15625 4.320312 1.363281 3.910156 1.59375 3.515625 C 2.238281 2.398438 2.878906 1.285156 3.515625 0.171875 C 4.785156 -2.035156 6.039062 -4.253906 7.28125 -6.484375 C 9.21875 -9.898438 10.945312 -13.5 12.46875 -17.28125 C 13.0625 -18.738281 13.546875 -20.265625 13.921875 -21.859375 C 14.128906 -22.710938 14.21875 -23.601562 14.1875 -24.53125 C 14.09375 -26.007812 13.601562 -27.066406 12.71875 -27.703125 C 11.832031 -28.347656 10.664062 -28.648438 9.21875 -28.609375 C 7.769531 -28.578125 6.164062 -28.28125 4.40625 -27.71875 C 2.644531 -27.164062 0.84375 -26.429688 -1 -25.515625 C -2.851562 -24.597656 -4.640625 -23.582031 -6.359375 -22.46875 C -8.078125 -21.363281 -9.601562 -20.242188 -10.9375 -19.109375 C -12.28125 -17.972656 -13.328125 -16.90625 -14.078125 -15.90625 C -14.867188 -14.800781 -15.535156 -13.59375 -16.078125 -12.28125 C -16.359375 -11.644531 -16.519531 -10.957031 -16.5625 -10.21875 C -16.582031 -10.070312 -16.65625 -9.960938 -16.78125 -9.890625 C -16.914062 -9.816406 -17.066406 -9.789062 -17.234375 -9.8125 C -17.484375 -9.894531 -17.644531 -10.097656 -17.71875 -10.421875 C -17.757812 -10.847656 -17.722656 -11.238281 -17.609375 -11.59375 C -17.367188 -12.476562 -17.046875 -13.316406 -16.640625 -14.109375 C -15.898438 -15.492188 -14.773438 -16.910156 -13.265625 -18.359375 C -11.753906 -19.804688 -9.992188 -21.191406 -7.984375 -22.515625 C -5.972656 -23.835938 -3.875 -25.019531 -1.6875 -26.0625 C 0.5 -27.101562 2.640625 -27.910156 4.734375 -28.484375 C 6.828125 -29.054688 8.710938 -29.3125 10.390625 -29.25 C 12.066406 -29.195312 13.390625 -28.738281 14.359375 -27.875 C 15.328125 -27.019531 15.796875 -25.660156 15.765625 -23.796875 C 15.710938 -22.597656 15.523438 -21.460938 15.203125 -20.390625 C 14.734375 -18.804688 14.191406 -17.273438 13.578125 -15.796875 C 12.960938 -14.316406 12.3125 -12.867188 11.625 -11.453125 C 11.414062 -11.003906 11.367188 -10.785156 11.484375 -10.796875 C 11.609375 -10.816406 11.789062 -10.988281 12.03125 -11.3125 C 12.90625 -12.46875 13.78125 -13.609375 14.65625 -14.734375 C 15.25 -15.492188 15.851562 -16.238281 16.46875 -16.96875 C 16.550781 -17.070312 16.632812 -17.171875 16.71875 -17.265625 C 17.0625 -17.691406 17.484375 -17.976562 17.984375 -18.125 C 18.359375 -18.207031 18.675781 -18.125 18.9375 -17.875 C 19.195312 -17.625 19.285156 -17.25 19.203125 -16.75 C 19.179688 -16.695312 19.164062 -16.648438 19.15625 -16.609375 C 19.019531 -15.960938 18.863281 -15.332031 18.6875 -14.71875 C 18.21875 -13.226562 17.734375 -11.75 17.234375 -10.28125 C 16.992188 -9.53125 16.753906 -8.765625 16.515625 -7.984375 C 16.460938 -7.867188 16.390625 -7.664062 16.296875 -7.375 C 16.203125 -7.113281 16.109375 -6.859375 16.015625 -6.609375 C 15.929688 -6.367188 15.863281 -6.179688 15.8125 -6.046875 C 15.875 -6.097656 16.472656 -6.769531 17.609375 -8.0625 C 19.140625 -9.820312 20.953125 -11.882812 23.046875 -14.25 C 25.148438 -16.613281 26.800781 -18.414062 28 -19.65625 C 30.207031 -21.882812 32.535156 -23.910156 34.984375 -25.734375 C 37.429688 -27.554688 39.96875 -29.207031 42.59375 -30.6875 C 43.238281 -31.019531 43.90625 -31.320312 44.59375 -31.59375 C 44.738281 -31.644531 44.878906 -31.703125 45.015625 -31.765625 C 45.660156 -32.023438 46.347656 -32.125 47.078125 -32.0625 C 48.472656 -31.925781 49.109375 -31.046875 48.984375 -29.421875 C 48.910156 -28.398438 48.6875 -27.445312 48.3125 -26.5625 Z M 17.15625 -15.03125 C 17.195312 -15 17.222656 -14.976562 17.234375 -14.96875 C 17.234375 -14.96875 17.234375 -14.957031 17.234375 -14.9375 C 17.253906 -14.9375 17.265625 -14.945312 17.265625 -14.96875 C 17.234375 -14.976562 17.195312 -15 17.15625 -15.03125 Z M 17.15625 -15.03125 "/></g></g></g><g fill="#000000" fill-opacity="1"><g transform="translate(264.330386, 82.778957)"><g><path d="M 7.984375 -5.609375 C 8.160156 -5.503906 8.175781 -5.265625 8.03125 -4.890625 C 7.8125 -4.609375 7.582031 -4.347656 7.34375 -4.109375 C 7.101562 -3.867188 6.835938 -3.648438 6.546875 -3.453125 C 6.523438 -3.453125 6.515625 -3.445312 6.515625 -3.4375 C 6.328125 -3.300781 6.125 -3.1875 5.90625 -3.09375 C 4.15625 -2.457031 3.257812 -2.828125 3.21875 -4.203125 C 2.507812 -3.585938 2.035156 -3.210938 1.796875 -3.078125 C 1.210938 -2.722656 0.582031 -2.566406 -0.09375 -2.609375 C -0.59375 -2.640625 -0.929688 -2.789062 -1.109375 -3.0625 C -1.285156 -3.34375 -1.269531 -3.71875 -1.0625 -4.1875 C -0.738281 -4.925781 -0.28125 -5.585938 0.3125 -6.171875 C 1.007812 -6.816406 1.785156 -7.332031 2.640625 -7.71875 C 3.097656 -7.945312 3.578125 -8.035156 4.078125 -7.984375 C 4.578125 -7.953125 4.875 -7.671875 4.96875 -7.140625 C 5.019531 -6.972656 4.984375 -6.828125 4.859375 -6.703125 C 4.691406 -6.554688 4.503906 -6.523438 4.296875 -6.609375 C 4.273438 -6.609375 4.25 -6.609375 4.21875 -6.609375 C 4.195312 -6.617188 4.179688 -6.632812 4.171875 -6.65625 C 3.960938 -6.945312 3.75 -7.066406 3.53125 -7.015625 C 3.3125 -6.972656 3.082031 -6.878906 2.84375 -6.734375 C 1.707031 -6.066406 0.863281 -5.144531 0.3125 -3.96875 C 0.289062 -3.914062 0.273438 -3.859375 0.265625 -3.796875 C 0.253906 -3.734375 0.269531 -3.679688 0.3125 -3.640625 C 0.445312 -3.597656 0.59375 -3.609375 0.75 -3.671875 C 0.914062 -3.734375 1.078125 -3.820312 1.234375 -3.9375 C 1.398438 -4.0625 1.539062 -4.164062 1.65625 -4.25 C 1.664062 -4.269531 1.671875 -4.28125 1.671875 -4.28125 C 2.210938 -4.726562 2.738281 -5.1875 3.25 -5.65625 C 3.476562 -5.894531 3.757812 -6.03125 4.09375 -6.0625 C 4.582031 -6.0625 4.785156 -5.847656 4.703125 -5.421875 C 4.660156 -5.253906 4.613281 -5.09375 4.5625 -4.9375 C 4.363281 -4.238281 4.351562 -3.828125 4.53125 -3.703125 C 4.707031 -3.578125 4.976562 -3.578125 5.34375 -3.703125 C 5.707031 -3.828125 6.070312 -4.054688 6.4375 -4.390625 C 6.800781 -4.734375 7.109375 -5.046875 7.359375 -5.328125 C 7.609375 -5.617188 7.816406 -5.710938 7.984375 -5.609375 Z M 7.984375 -5.609375 "/></g></g></g><g fill="#000000" fill-opacity="1"><g transform="translate(271.628598, 82.778957)"><g><path d="M 6.875 -5.3125 C 5.894531 -4.15625 4.929688 -3.300781 3.984375 -2.75 C 3.046875 -2.195312 2.035156 -2.015625 0.953125 -2.203125 C -0.117188 -2.390625 -0.554688 -3.113281 -0.359375 -4.375 C -0.234375 -5 -0.0546875 -5.613281 0.171875 -6.21875 C 0.742188 -7.625 1.316406 -9.019531 1.890625 -10.40625 C 2.085938 -10.90625 2.289062 -11.40625 2.5 -11.90625 C 2.550781 -12.019531 2.597656 -12.132812 2.640625 -12.25 C 2.722656 -12.425781 2.804688 -12.609375 2.890625 -12.796875 C 3.003906 -13.117188 2.875 -13.289062 2.5 -13.3125 C 2.289062 -13.3125 2.082031 -13.3125 1.875 -13.3125 C 1.78125 -13.3125 1.671875 -13.3125 1.546875 -13.3125 C 1.441406 -13.289062 1.332031 -13.273438 1.21875 -13.265625 C 1.019531 -13.253906 0.828125 -13.25 0.640625 -13.25 C 0.453125 -13.25 0.28125 -13.296875 0.125 -13.390625 C 0.0820312 -13.398438 0.046875 -13.425781 0.015625 -13.46875 C -0.00390625 -13.507812 -0.015625 -13.554688 -0.015625 -13.609375 C -0.00390625 -13.640625 0.015625 -13.671875 0.046875 -13.703125 C 0.078125 -13.742188 0.117188 -13.773438 0.171875 -13.796875 C 0.335938 -13.859375 0.507812 -13.90625 0.6875 -13.9375 C 1.132812 -13.957031 1.582031 -13.976562 2.03125 -14 C 2.207031 -14 2.363281 -14 2.5 -14 C 2.789062 -14 3.007812 -14.007812 3.15625 -14.03125 C 3.300781 -14.050781 3.414062 -14.125 3.5 -14.25 C 3.59375 -14.382812 3.695312 -14.585938 3.8125 -14.859375 C 3.875 -15.003906 3.953125 -15.164062 4.046875 -15.34375 C 4.296875 -15.863281 4.539062 -16.390625 4.78125 -16.921875 C 4.882812 -17.160156 5 -17.394531 5.125 -17.625 C 5.21875 -17.851562 5.367188 -18.03125 5.578125 -18.15625 C 5.773438 -18.25 5.945312 -18.238281 6.09375 -18.125 C 6.132812 -18.101562 6.164062 -18.054688 6.1875 -17.984375 C 6.21875 -17.921875 6.234375 -17.863281 6.234375 -17.8125 C 6.234375 -17.53125 6.160156 -17.25 6.015625 -16.96875 C 5.984375 -16.90625 5.945312 -16.832031 5.90625 -16.75 C 5.8125 -16.488281 5.710938 -16.222656 5.609375 -15.953125 C 5.390625 -15.453125 5.1875 -14.941406 5 -14.421875 C 4.945312 -14.328125 4.941406 -14.242188 4.984375 -14.171875 C 5.035156 -14.097656 5.109375 -14.0625 5.203125 -14.0625 C 5.722656 -14.039062 6.234375 -14.03125 6.734375 -14.03125 C 6.992188 -14.03125 7.253906 -14.03125 7.515625 -14.03125 C 8.316406 -14.019531 8.640625 -13.910156 8.484375 -13.703125 C 8.367188 -13.578125 8.242188 -13.503906 8.109375 -13.484375 C 7.984375 -13.460938 7.859375 -13.460938 7.734375 -13.484375 C 7.648438 -13.484375 7.566406 -13.484375 7.484375 -13.484375 C 6.660156 -13.429688 5.847656 -13.398438 5.046875 -13.390625 C 4.671875 -13.390625 4.421875 -13.21875 4.296875 -12.875 C 4.160156 -12.550781 4.03125 -12.226562 3.90625 -11.90625 C 3.726562 -11.488281 3.554688 -11.078125 3.390625 -10.671875 C 3.234375 -10.285156 3.070312 -9.898438 2.90625 -9.515625 C 2.488281 -8.523438 2.085938 -7.535156 1.703125 -6.546875 C 1.453125 -5.898438 1.257812 -5.238281 1.125 -4.5625 C 0.8125 -3.34375 1.285156 -2.875 2.546875 -3.15625 C 3.773438 -3.445312 5.066406 -4.335938 6.421875 -5.828125 C 7.003906 -6.203125 7.15625 -6.03125 6.875 -5.3125 Z M 6.875 -5.3125 "/></g></g></g><g fill="#000000" fill-opacity="1"><g transform="translate(277.881061, 82.778957)"><g><path d="M 6.875 -5.3125 C 5.894531 -4.15625 4.929688 -3.300781 3.984375 -2.75 C 3.046875 -2.195312 2.035156 -2.015625 0.953125 -2.203125 C -0.117188 -2.390625 -0.554688 -3.113281 -0.359375 -4.375 C -0.234375 -5 -0.0546875 -5.613281 0.171875 -6.21875 C 0.742188 -7.625 1.316406 -9.019531 1.890625 -10.40625 C 2.085938 -10.90625 2.289062 -11.40625 2.5 -11.90625 C 2.550781 -12.019531 2.597656 -12.132812 2.640625 -12.25 C 2.722656 -12.425781 2.804688 -12.609375 2.890625 -12.796875 C 3.003906 -13.117188 2.875 -13.289062 2.5 -13.3125 C 2.289062 -13.3125 2.082031 -13.3125 1.875 -13.3125 C 1.78125 -13.3125 1.671875 -13.3125 1.546875 -13.3125 C 1.441406 -13.289062 1.332031 -13.273438 1.21875 -13.265625 C 1.019531 -13.253906 0.828125 -13.25 0.640625 -13.25 C 0.453125 -13.25 0.28125 -13.296875 0.125 -13.390625 C 0.0820312 -13.398438 0.046875 -13.425781 0.015625 -13.46875 C -0.00390625 -13.507812 -0.015625 -13.554688 -0.015625 -13.609375 C -0.00390625 -13.640625 0.015625 -13.671875 0.046875 -13.703125 C 0.078125 -13.742188 0.117188 -13.773438 0.171875 -13.796875 C 0.335938 -13.859375 0.507812 -13.90625 0.6875 -13.9375 C 1.132812 -13.957031 1.582031 -13.976562 2.03125 -14 C 2.207031 -14 2.363281 -14 2.5 -14 C 2.789062 -14 3.007812 -14.007812 3.15625 -14.03125 C 3.300781 -14.050781 3.414062 -14.125 3.5 -14.25 C 3.59375 -14.382812 3.695312 -14.585938 3.8125 -14.859375 C 3.875 -15.003906 3.953125 -15.164062 4.046875 -15.34375 C 4.296875 -15.863281 4.539062 -16.390625 4.78125 -16.921875 C 4.882812 -17.160156 5 -17.394531 5.125 -17.625 C 5.21875 -17.851562 5.367188 -18.03125 5.578125 -18.15625 C 5.773438 -18.25 5.945312 -18.238281 6.09375 -18.125 C 6.132812 -18.101562 6.164062 -18.054688 6.1875 -17.984375 C 6.21875 -17.921875 6.234375 -17.863281 6.234375 -17.8125 C 6.234375 -17.53125 6.160156 -17.25 6.015625 -16.96875 C 5.984375 -16.90625 5.945312 -16.832031 5.90625 -16.75 C 5.8125 -16.488281 5.710938 -16.222656 5.609375 -15.953125 C 5.390625 -15.453125 5.1875 -14.941406 5 -14.421875 C 4.945312 -14.328125 4.941406 -14.242188 4.984375 -14.171875 C 5.035156 -14.097656 5.109375 -14.0625 5.203125 -14.0625 C 5.722656 -14.039062 6.234375 -14.03125 6.734375 -14.03125 C 6.992188 -14.03125 7.253906 -14.03125 7.515625 -14.03125 C 8.316406 -14.019531 8.640625 -13.910156 8.484375 -13.703125 C 8.367188 -13.578125 8.242188 -13.503906 8.109375 -13.484375 C 7.984375 -13.460938 7.859375 -13.460938 7.734375 -13.484375 C 7.648438 -13.484375 7.566406 -13.484375 7.484375 -13.484375 C 6.660156 -13.429688 5.847656 -13.398438 5.046875 -13.390625 C 4.671875 -13.390625 4.421875 -13.21875 4.296875 -12.875 C 4.160156 -12.550781 4.03125 -12.226562 3.90625 -11.90625 C 3.726562 -11.488281 3.554688 -11.078125 3.390625 -10.671875 C 3.234375 -10.285156 3.070312 -9.898438 2.90625 -9.515625 C 2.488281 -8.523438 2.085938 -7.535156 1.703125 -6.546875 C 1.453125 -5.898438 1.257812 -5.238281 1.125 -4.5625 C 0.8125 -3.34375 1.285156 -2.875 2.546875 -3.15625 C 3.773438 -3.445312 5.066406 -4.335938 6.421875 -5.828125 C 7.003906 -6.203125 7.15625 -6.03125 6.875 -5.3125 Z M 6.875 -5.3125 "/></g></g></g><g fill="#000000" fill-opacity="1"><g transform="translate(284.133524, 82.778957)"><g><path d="M 8.9375 -5.125 C 8.800781 -5.007812 8.660156 -4.90625 8.515625 -4.8125 C 8.046875 -4.519531 7.625 -4.285156 7.25 -4.109375 C 6.875 -3.941406 6.425781 -3.769531 5.90625 -3.59375 C 5.144531 -3.375 4.65625 -3.425781 4.4375 -3.75 C 4.226562 -4.082031 4.195312 -4.539062 4.34375 -5.125 C 4.539062 -5.96875 4.65625 -6.582031 4.6875 -6.96875 C 4.726562 -7.351562 4.601562 -7.484375 4.3125 -7.359375 C 4.019531 -7.242188 3.492188 -6.847656 2.734375 -6.171875 C 1.671875 -5.242188 0.757812 -4.191406 0 -3.015625 C -0.09375 -2.859375 -0.207031 -2.726562 -0.34375 -2.625 C -0.488281 -2.519531 -0.664062 -2.46875 -0.875 -2.46875 C -1.070312 -2.46875 -1.210938 -2.519531 -1.296875 -2.625 C -1.390625 -2.726562 -1.394531 -2.863281 -1.3125 -3.03125 C -0.875 -3.988281 -0.429688 -4.9375 0.015625 -5.875 C 0.796875 -7.507812 1.566406 -9.132812 2.328125 -10.75 C 2.890625 -11.957031 3.445312 -13.164062 4 -14.375 C 4.332031 -15.09375 4.660156 -15.804688 4.984375 -16.515625 C 5.015625 -16.578125 5.050781 -16.640625 5.09375 -16.703125 C 5.113281 -16.785156 5.144531 -16.863281 5.1875 -16.9375 C 5.226562 -17.019531 5.273438 -17.109375 5.328125 -17.203125 C 5.367188 -17.285156 5.453125 -17.351562 5.578125 -17.40625 C 5.703125 -17.457031 5.820312 -17.488281 5.9375 -17.5 C 6.0625 -17.519531 6.15625 -17.515625 6.21875 -17.484375 C 6.3125 -17.421875 6.363281 -17.347656 6.375 -17.265625 C 6.382812 -17.191406 6.375 -17.117188 6.34375 -17.046875 C 6.320312 -17.023438 6.3125 -17 6.3125 -16.96875 C 6.164062 -16.53125 6.015625 -16.109375 5.859375 -15.703125 C 4.921875 -13.460938 3.90625 -11.253906 2.8125 -9.078125 C 2.726562 -8.921875 2.628906 -8.742188 2.515625 -8.546875 C 2.359375 -8.253906 2.207031 -7.960938 2.0625 -7.671875 C 1.925781 -7.390625 1.878906 -7.203125 1.921875 -7.109375 C 1.972656 -7.015625 2.195312 -7.085938 2.59375 -7.328125 C 2.707031 -7.410156 2.8125 -7.492188 2.90625 -7.578125 C 3.21875 -7.773438 3.519531 -7.96875 3.8125 -8.15625 C 4.082031 -8.332031 4.378906 -8.425781 4.703125 -8.4375 C 5.472656 -8.488281 5.90625 -8.140625 6 -7.390625 C 6.039062 -7.097656 6.03125 -6.800781 5.96875 -6.5 C 5.90625 -6.207031 5.835938 -5.921875 5.765625 -5.640625 C 5.742188 -5.554688 5.726562 -5.472656 5.71875 -5.390625 C 5.582031 -4.890625 5.613281 -4.601562 5.8125 -4.53125 C 6.019531 -4.457031 6.304688 -4.5 6.671875 -4.65625 C 7.035156 -4.8125 7.398438 -5 7.765625 -5.21875 C 8.023438 -5.351562 8.25 -5.46875 8.4375 -5.5625 C 8.632812 -5.65625 8.785156 -5.695312 8.890625 -5.6875 C 9.066406 -5.65625 9.144531 -5.582031 9.125 -5.46875 C 9.113281 -5.351562 9.050781 -5.238281 8.9375 -5.125 Z M 8.9375 -5.125 "/></g></g></g><g fill="#000000" fill-opacity="1"><g transform="translate(292.532521, 82.778957)"><g><path d="M 6.265625 -4.21875 C 5.847656 -3.800781 5.351562 -3.441406 4.78125 -3.140625 C 4.21875 -2.847656 3.742188 -2.65625 3.359375 -2.5625 C 2.984375 -2.476562 2.59375 -2.425781 2.1875 -2.40625 C 1.539062 -2.375 0.945312 -2.460938 0.40625 -2.671875 C -0.476562 -3.035156 -0.785156 -3.722656 -0.515625 -4.734375 C -0.253906 -5.609375 0.265625 -6.289062 1.046875 -6.78125 C 1.828125 -7.269531 2.640625 -7.507812 3.484375 -7.5 C 3.484375 -7.5 3.488281 -7.5 3.5 -7.5 C 3.707031 -7.507812 3.910156 -7.492188 4.109375 -7.453125 C 4.429688 -7.335938 4.632812 -7.144531 4.71875 -6.875 C 4.8125 -6.613281 4.753906 -6.320312 4.546875 -6 C 4.078125 -5.289062 3.4375 -4.894531 2.625 -4.8125 C 2.09375 -4.757812 1.578125 -4.785156 1.078125 -4.890625 C 0.984375 -4.898438 0.898438 -4.875 0.828125 -4.8125 C 0.753906 -4.75 0.707031 -4.664062 0.6875 -4.5625 C 0.539062 -3.9375 0.738281 -3.535156 1.28125 -3.359375 C 1.9375 -3.128906 2.617188 -3.128906 3.328125 -3.359375 C 4.148438 -3.617188 4.929688 -4.101562 5.671875 -4.8125 C 6.421875 -5.519531 6.851562 -5.847656 6.96875 -5.796875 C 7.082031 -5.753906 7.113281 -5.617188 7.0625 -5.390625 C 6.957031 -5.035156 6.691406 -4.644531 6.265625 -4.21875 Z M 1.578125 -6 C 1.535156 -5.945312 1.503906 -5.890625 1.484375 -5.828125 C 1.472656 -5.765625 1.5 -5.707031 1.5625 -5.65625 C 1.820312 -5.507812 2.097656 -5.457031 2.390625 -5.5 C 2.691406 -5.539062 2.945312 -5.65625 3.15625 -5.84375 C 3.375 -6.03125 3.46875 -6.257812 3.4375 -6.53125 C 3.414062 -6.625 3.363281 -6.679688 3.28125 -6.703125 C 3.195312 -6.734375 3.113281 -6.742188 3.03125 -6.734375 C 2.488281 -6.628906 2.003906 -6.382812 1.578125 -6 Z M 1.578125 -6 "/></g></g></g><g fill="#000000" fill-opacity="1"><g transform="translate(298.939094, 82.778957)"><g><path d="M 10.015625 -9.53125 C 10.097656 -9.53125 10.175781 -9.492188 10.25 -9.421875 C 10.320312 -9.347656 10.34375 -9.269531 10.3125 -9.1875 C 10.257812 -9.0625 10.203125 -8.941406 10.140625 -8.828125 C 9.085938 -7.035156 7.875 -5.359375 6.5 -3.796875 C 6.15625 -3.390625 5.769531 -3.007812 5.34375 -2.65625 C 5.144531 -2.476562 4.921875 -2.34375 4.671875 -2.25 C 4.203125 -2.050781 3.835938 -2.046875 3.578125 -2.234375 C 3.316406 -2.429688 3.203125 -2.78125 3.234375 -3.28125 C 3.253906 -3.363281 3.273438 -3.441406 3.296875 -3.515625 C 3.304688 -3.640625 3.3125 -3.769531 3.3125 -3.90625 C 3.320312 -4.039062 3.304688 -4.1875 3.265625 -4.34375 C 3.066406 -4.164062 2.878906 -4 2.703125 -3.84375 C 2.328125 -3.488281 1.96875 -3.148438 1.625 -2.828125 C 1.226562 -2.472656 0.769531 -2.332031 0.25 -2.40625 C -0.113281 -2.476562 -0.328125 -2.679688 -0.390625 -3.015625 C -0.421875 -3.296875 -0.421875 -3.570312 -0.390625 -3.84375 C -0.234375 -5.050781 0.0625 -6.222656 0.5 -7.359375 C 0.582031 -7.535156 0.6875 -7.679688 0.8125 -7.796875 C 0.976562 -7.972656 1.179688 -8.019531 1.421875 -7.9375 C 1.660156 -7.84375 1.757812 -7.660156 1.71875 -7.390625 C 1.664062 -7.171875 1.609375 -6.953125 1.546875 -6.734375 C 1.523438 -6.648438 1.507812 -6.566406 1.5 -6.484375 C 1.3125 -5.785156 1.175781 -5.242188 1.09375 -4.859375 C 1.019531 -4.484375 0.988281 -4.226562 1 -4.09375 C 1.007812 -3.957031 1.046875 -3.914062 1.109375 -3.96875 C 1.378906 -4.09375 1.613281 -4.265625 1.8125 -4.484375 C 2.019531 -4.703125 2.210938 -4.925781 2.390625 -5.15625 C 2.535156 -5.351562 2.695312 -5.554688 2.875 -5.765625 C 3.0625 -5.953125 3.234375 -6.144531 3.390625 -6.34375 C 3.523438 -6.53125 3.675781 -6.710938 3.84375 -6.890625 C 3.988281 -7.054688 4.160156 -7.195312 4.359375 -7.3125 C 4.617188 -7.4375 4.875 -7.414062 5.125 -7.25 C 5.238281 -7.175781 5.300781 -7.085938 5.3125 -6.984375 C 5.332031 -6.878906 5.328125 -6.769531 5.296875 -6.65625 C 5.203125 -6.21875 5.109375 -5.78125 5.015625 -5.34375 C 4.960938 -5.125 4.90625 -4.90625 4.84375 -4.6875 C 4.800781 -4.507812 4.769531 -4.332031 4.75 -4.15625 C 4.726562 -4.09375 4.722656 -4.023438 4.734375 -3.953125 C 4.753906 -3.890625 4.796875 -3.851562 4.859375 -3.84375 C 4.910156 -3.820312 4.953125 -3.816406 4.984375 -3.828125 C 5.023438 -3.847656 5.066406 -3.878906 5.109375 -3.921875 C 5.316406 -4.097656 5.5 -4.285156 5.65625 -4.484375 C 6 -4.929688 6.34375 -5.367188 6.6875 -5.796875 C 6.9375 -6.160156 7.195312 -6.507812 7.46875 -6.84375 C 8.039062 -7.601562 8.625 -8.347656 9.21875 -9.078125 C 9.414062 -9.347656 9.679688 -9.5 10.015625 -9.53125 Z M 10.015625 -9.53125 "/></g></g></g><g fill="#000000" fill-opacity="1"><g transform="translate(269.093806, 90.223273)"><g><path d="M 1.28125 0.0625 C 1.070312 0.0625 0.875 0.0195312 0.6875 -0.0625 C 0.5 -0.144531 0.335938 -0.257812 0.203125 -0.40625 L 0.4375 -0.671875 C 0.539062 -0.554688 0.664062 -0.460938 0.8125 -0.390625 C 0.96875 -0.316406 1.128906 -0.28125 1.296875 -0.28125 C 1.492188 -0.28125 1.648438 -0.328125 1.765625 -0.421875 C 1.878906 -0.515625 1.9375 -0.640625 1.9375 -0.796875 C 1.9375 -0.867188 1.921875 -0.929688 1.890625 -0.984375 C 1.867188 -1.046875 1.832031 -1.097656 1.78125 -1.140625 C 1.738281 -1.179688 1.6875 -1.21875 1.625 -1.25 C 1.5625 -1.28125 1.492188 -1.3125 1.421875 -1.34375 L 0.984375 -1.53125 C 0.910156 -1.570312 0.832031 -1.613281 0.75 -1.65625 C 0.675781 -1.695312 0.609375 -1.75 0.546875 -1.8125 C 0.492188 -1.875 0.445312 -1.945312 0.40625 -2.03125 C 0.363281 -2.125 0.34375 -2.226562 0.34375 -2.34375 C 0.34375 -2.457031 0.367188 -2.5625 0.421875 -2.65625 C 0.472656 -2.757812 0.539062 -2.847656 0.625 -2.921875 C 0.707031 -3.003906 0.804688 -3.0625 0.921875 -3.09375 C 1.046875 -3.132812 1.179688 -3.15625 1.328125 -3.15625 C 1.515625 -3.15625 1.6875 -3.117188 1.84375 -3.046875 C 2 -2.984375 2.132812 -2.894531 2.25 -2.78125 L 2.03125 -2.515625 C 1.9375 -2.609375 1.832031 -2.679688 1.71875 -2.734375 C 1.601562 -2.785156 1.472656 -2.8125 1.328125 -2.8125 C 1.148438 -2.8125 1.007812 -2.769531 0.90625 -2.6875 C 0.800781 -2.613281 0.75 -2.503906 0.75 -2.359375 C 0.75 -2.285156 0.765625 -2.222656 0.796875 -2.171875 C 0.828125 -2.117188 0.863281 -2.070312 0.90625 -2.03125 C 0.957031 -1.988281 1.015625 -1.953125 1.078125 -1.921875 C 1.140625 -1.898438 1.203125 -1.875 1.265625 -1.84375 L 1.703125 -1.65625 C 1.796875 -1.613281 1.878906 -1.566406 1.953125 -1.515625 C 2.035156 -1.472656 2.101562 -1.421875 2.15625 -1.359375 C 2.21875 -1.296875 2.265625 -1.21875 2.296875 -1.125 C 2.328125 -1.039062 2.34375 -0.941406 2.34375 -0.828125 C 2.34375 -0.703125 2.316406 -0.585938 2.265625 -0.484375 C 2.222656 -0.378906 2.15625 -0.285156 2.0625 -0.203125 C 1.96875 -0.117188 1.851562 -0.0507812 1.71875 0 C 1.59375 0.0390625 1.445312 0.0625 1.28125 0.0625 Z M 1.28125 0.0625 "/></g></g></g><g fill="#000000" fill-opacity="1"><g transform="translate(271.619577, 90.223273)"><g><path d="M 1.0625 0.0625 C 0.8125 0.0625 0.628906 -0.0078125 0.515625 -0.15625 C 0.410156 -0.3125 0.359375 -0.539062 0.359375 -0.84375 L 0.359375 -2.296875 L 0.75 -2.296875 L 0.75 -0.890625 C 0.75 -0.671875 0.78125 -0.515625 0.84375 -0.421875 C 0.914062 -0.328125 1.023438 -0.28125 1.171875 -0.28125 C 1.296875 -0.28125 1.40625 -0.3125 1.5 -0.375 C 1.59375 -0.4375 1.691406 -0.535156 1.796875 -0.671875 L 1.796875 -2.296875 L 2.1875 -2.296875 L 2.1875 0 L 1.859375 0 L 1.828125 -0.359375 L 1.8125 -0.359375 C 1.707031 -0.234375 1.59375 -0.128906 1.46875 -0.046875 C 1.351562 0.0234375 1.21875 0.0625 1.0625 0.0625 Z M 1.0625 0.0625 "/></g></g></g><g fill="#000000" fill-opacity="1"><g transform="translate(274.192649, 90.223273)"><g><path d="M 0.390625 0 L 0.390625 -2.296875 L 0.703125 -2.296875 L 0.75 -1.96875 C 0.863281 -2.082031 0.976562 -2.175781 1.09375 -2.25 C 1.21875 -2.320312 1.363281 -2.359375 1.53125 -2.359375 C 1.769531 -2.359375 1.945312 -2.28125 2.0625 -2.125 C 2.175781 -1.976562 2.234375 -1.753906 2.234375 -1.453125 L 2.234375 0 L 1.84375 0 L 1.84375 -1.40625 C 1.84375 -1.625 1.804688 -1.78125 1.734375 -1.875 C 1.671875 -1.96875 1.5625 -2.015625 1.40625 -2.015625 C 1.28125 -2.015625 1.171875 -1.984375 1.078125 -1.921875 C 0.992188 -1.867188 0.894531 -1.785156 0.78125 -1.671875 L 0.78125 0 Z M 0.390625 0 "/></g></g></g><g fill="#000000" fill-opacity="1"><g transform="translate(276.779907, 90.223273)"><g><path d="M 1.171875 0.0625 C 0.878906 0.0625 0.644531 -0.0390625 0.46875 -0.25 C 0.300781 -0.457031 0.21875 -0.753906 0.21875 -1.140625 C 0.21875 -1.328125 0.242188 -1.492188 0.296875 -1.640625 C 0.359375 -1.796875 0.429688 -1.925781 0.515625 -2.03125 C 0.609375 -2.132812 0.710938 -2.210938 0.828125 -2.265625 C 0.953125 -2.328125 1.082031 -2.359375 1.21875 -2.359375 C 1.351562 -2.359375 1.46875 -2.332031 1.5625 -2.28125 C 1.664062 -2.238281 1.765625 -2.175781 1.859375 -2.09375 L 1.84375 -2.484375 L 1.84375 -3.375 L 2.234375 -3.375 L 2.234375 0 L 1.921875 0 L 1.890625 -0.265625 L 1.875 -0.265625 C 1.78125 -0.179688 1.671875 -0.101562 1.546875 -0.03125 C 1.429688 0.03125 1.304688 0.0625 1.171875 0.0625 Z M 1.265625 -0.265625 C 1.367188 -0.265625 1.46875 -0.289062 1.5625 -0.34375 C 1.65625 -0.394531 1.75 -0.476562 1.84375 -0.59375 L 1.84375 -1.796875 C 1.75 -1.878906 1.65625 -1.9375 1.5625 -1.96875 C 1.476562 -2.007812 1.382812 -2.03125 1.28125 -2.03125 C 1.195312 -2.03125 1.113281 -2.007812 1.03125 -1.96875 C 0.945312 -1.925781 0.875 -1.863281 0.8125 -1.78125 C 0.757812 -1.707031 0.710938 -1.613281 0.671875 -1.5 C 0.640625 -1.394531 0.625 -1.28125 0.625 -1.15625 C 0.625 -0.875 0.675781 -0.65625 0.78125 -0.5 C 0.894531 -0.34375 1.054688 -0.265625 1.265625 -0.265625 Z M 1.265625 -0.265625 "/></g></g></g><g fill="#000000" fill-opacity="1"><g transform="translate(279.405006, 90.223273)"><g><path d="M 0.921875 0.0625 C 0.722656 0.0625 0.5625 0.00390625 0.4375 -0.109375 C 0.3125 -0.222656 0.25 -0.382812 0.25 -0.59375 C 0.25 -0.84375 0.359375 -1.035156 0.578125 -1.171875 C 0.804688 -1.304688 1.164062 -1.398438 1.65625 -1.453125 C 1.65625 -1.523438 1.644531 -1.597656 1.625 -1.671875 C 1.613281 -1.742188 1.59375 -1.804688 1.5625 -1.859375 C 1.53125 -1.910156 1.484375 -1.953125 1.421875 -1.984375 C 1.359375 -2.015625 1.28125 -2.03125 1.1875 -2.03125 C 1.050781 -2.03125 0.925781 -2.003906 0.8125 -1.953125 C 0.695312 -1.910156 0.59375 -1.859375 0.5 -1.796875 L 0.34375 -2.0625 C 0.445312 -2.125 0.578125 -2.1875 0.734375 -2.25 C 0.890625 -2.320312 1.0625 -2.359375 1.25 -2.359375 C 1.53125 -2.359375 1.734375 -2.269531 1.859375 -2.09375 C 1.984375 -1.925781 2.046875 -1.695312 2.046875 -1.40625 L 2.046875 0 L 1.734375 0 L 1.6875 -0.28125 C 1.570312 -0.1875 1.453125 -0.101562 1.328125 -0.03125 C 1.203125 0.03125 1.066406 0.0625 0.921875 0.0625 Z M 1.03125 -0.25 C 1.144531 -0.25 1.25 -0.273438 1.34375 -0.328125 C 1.4375 -0.378906 1.539062 -0.457031 1.65625 -0.5625 L 1.65625 -1.203125 C 1.46875 -1.179688 1.304688 -1.148438 1.171875 -1.109375 C 1.035156 -1.078125 0.925781 -1.035156 0.84375 -0.984375 C 0.769531 -0.941406 0.710938 -0.890625 0.671875 -0.828125 C 0.640625 -0.765625 0.625 -0.695312 0.625 -0.625 C 0.625 -0.488281 0.660156 -0.390625 0.734375 -0.328125 C 0.816406 -0.273438 0.914062 -0.25 1.03125 -0.25 Z M 1.03125 -0.25 "/></g></g></g><g fill="#000000" fill-opacity="1"><g transform="translate(281.788877, 90.223273)"><g><path d="M 0.421875 0.984375 C 0.367188 0.984375 0.320312 0.976562 0.28125 0.96875 C 0.238281 0.96875 0.195312 0.957031 0.15625 0.9375 L 0.234375 0.640625 C 0.253906 0.640625 0.28125 0.644531 0.3125 0.65625 C 0.34375 0.664062 0.375 0.671875 0.40625 0.671875 C 0.539062 0.671875 0.648438 0.625 0.734375 0.53125 C 0.816406 0.4375 0.878906 0.316406 0.921875 0.171875 L 0.984375 0 L 0.0625 -2.296875 L 0.453125 -2.296875 L 0.921875 -1.03125 C 0.960938 -0.925781 1 -0.816406 1.03125 -0.703125 C 1.070312 -0.597656 1.113281 -0.488281 1.15625 -0.375 L 1.171875 -0.375 C 1.203125 -0.476562 1.234375 -0.585938 1.265625 -0.703125 C 1.296875 -0.816406 1.328125 -0.925781 1.359375 -1.03125 L 1.78125 -2.296875 L 2.15625 -2.296875 L 1.28125 0.1875 C 1.238281 0.300781 1.191406 0.40625 1.140625 0.5 C 1.097656 0.601562 1.039062 0.6875 0.96875 0.75 C 0.894531 0.820312 0.8125 0.878906 0.71875 0.921875 C 0.632812 0.960938 0.535156 0.984375 0.421875 0.984375 Z M 0.421875 0.984375 "/></g></g></g><g fill="#000000" fill-opacity="1"><g transform="translate(283.997744, 90.223273)"><g/></g></g><g fill="#000000" fill-opacity="1"><g transform="translate(284.943727, 90.223273)"><g><path d="M 1.1875 0.0625 C 1.039062 0.0625 0.90625 0.0390625 0.78125 0 C 0.664062 -0.0390625 0.5625 -0.0976562 0.46875 -0.171875 C 0.382812 -0.242188 0.316406 -0.332031 0.265625 -0.4375 C 0.210938 -0.539062 0.1875 -0.648438 0.1875 -0.765625 C 0.1875 -0.867188 0.203125 -0.960938 0.234375 -1.046875 C 0.273438 -1.128906 0.320312 -1.203125 0.375 -1.265625 C 0.425781 -1.335938 0.484375 -1.398438 0.546875 -1.453125 C 0.617188 -1.503906 0.691406 -1.550781 0.765625 -1.59375 L 0.765625 -1.609375 C 0.648438 -1.679688 0.550781 -1.773438 0.46875 -1.890625 C 0.382812 -2.003906 0.34375 -2.140625 0.34375 -2.296875 C 0.34375 -2.410156 0.363281 -2.515625 0.40625 -2.609375 C 0.445312 -2.710938 0.503906 -2.796875 0.578125 -2.859375 C 0.660156 -2.929688 0.753906 -2.984375 0.859375 -3.015625 C 0.960938 -3.054688 1.078125 -3.078125 1.203125 -3.078125 C 1.328125 -3.078125 1.441406 -3.054688 1.546875 -3.015625 C 1.648438 -2.972656 1.738281 -2.914062 1.8125 -2.84375 C 1.894531 -2.78125 1.953125 -2.695312 1.984375 -2.59375 C 2.023438 -2.5 2.046875 -2.390625 2.046875 -2.265625 C 2.046875 -2.191406 2.03125 -2.117188 2 -2.046875 C 1.976562 -1.972656 1.945312 -1.90625 1.90625 -1.84375 C 1.863281 -1.78125 1.816406 -1.722656 1.765625 -1.671875 C 1.722656 -1.617188 1.679688 -1.578125 1.640625 -1.546875 L 1.640625 -1.53125 C 1.703125 -1.488281 1.765625 -1.441406 1.828125 -1.390625 C 1.890625 -1.347656 1.941406 -1.296875 1.984375 -1.234375 C 2.035156 -1.171875 2.078125 -1.097656 2.109375 -1.015625 C 2.140625 -0.941406 2.15625 -0.851562 2.15625 -0.75 C 2.15625 -0.632812 2.128906 -0.523438 2.078125 -0.421875 C 2.035156 -0.328125 1.972656 -0.242188 1.890625 -0.171875 C 1.804688 -0.0976562 1.703125 -0.0390625 1.578125 0 C 1.460938 0.0390625 1.332031 0.0625 1.1875 0.0625 Z M 1.390625 -1.640625 C 1.492188 -1.734375 1.570312 -1.832031 1.625 -1.9375 C 1.6875 -2.039062 1.71875 -2.144531 1.71875 -2.25 C 1.71875 -2.40625 1.671875 -2.53125 1.578125 -2.625 C 1.484375 -2.726562 1.351562 -2.78125 1.1875 -2.78125 C 1.039062 -2.78125 0.921875 -2.734375 0.828125 -2.640625 C 0.742188 -2.554688 0.703125 -2.441406 0.703125 -2.296875 C 0.703125 -2.203125 0.71875 -2.125 0.75 -2.0625 C 0.789062 -2 0.84375 -1.941406 0.90625 -1.890625 C 0.976562 -1.835938 1.054688 -1.789062 1.140625 -1.75 C 1.222656 -1.71875 1.304688 -1.679688 1.390625 -1.640625 Z M 1.1875 -0.234375 C 1.363281 -0.234375 1.503906 -0.28125 1.609375 -0.375 C 1.722656 -0.476562 1.78125 -0.609375 1.78125 -0.765625 C 1.78125 -0.859375 1.757812 -0.941406 1.71875 -1.015625 C 1.675781 -1.085938 1.613281 -1.148438 1.53125 -1.203125 C 1.457031 -1.253906 1.367188 -1.300781 1.265625 -1.34375 C 1.171875 -1.382812 1.070312 -1.425781 0.96875 -1.46875 C 0.84375 -1.382812 0.738281 -1.285156 0.65625 -1.171875 C 0.582031 -1.066406 0.546875 -0.945312 0.546875 -0.8125 C 0.546875 -0.726562 0.5625 -0.648438 0.59375 -0.578125 C 0.625 -0.503906 0.664062 -0.441406 0.71875 -0.390625 C 0.78125 -0.335938 0.851562 -0.296875 0.9375 -0.265625 C 1.019531 -0.242188 1.101562 -0.234375 1.1875 -0.234375 Z M 1.1875 -0.234375 "/></g></g></g><g fill="#000000" fill-opacity="1"><g transform="translate(287.294489, 90.223273)"><g><path d="M 1.109375 0.0625 C 0.984375 0.0625 0.878906 0.0390625 0.796875 0 C 0.710938 -0.0390625 0.644531 -0.09375 0.59375 -0.15625 C 0.539062 -0.21875 0.503906 -0.296875 0.484375 -0.390625 C 0.460938 -0.492188 0.453125 -0.597656 0.453125 -0.703125 L 0.453125 -1.984375 L 0.109375 -1.984375 L 0.109375 -2.28125 L 0.46875 -2.296875 L 0.515625 -2.9375 L 0.84375 -2.9375 L 0.84375 -2.296875 L 1.46875 -2.296875 L 1.46875 -1.984375 L 0.84375 -1.984375 L 0.84375 -0.703125 C 0.84375 -0.566406 0.867188 -0.457031 0.921875 -0.375 C 0.972656 -0.300781 1.066406 -0.265625 1.203125 -0.265625 C 1.242188 -0.265625 1.285156 -0.269531 1.328125 -0.28125 C 1.378906 -0.289062 1.425781 -0.304688 1.46875 -0.328125 L 1.53125 -0.03125 C 1.46875 -0.0078125 1.398438 0.0078125 1.328125 0.03125 C 1.253906 0.0507812 1.179688 0.0625 1.109375 0.0625 Z M 1.109375 0.0625 "/></g></g></g><g fill="#000000" fill-opacity="1"><g transform="translate(288.893196, 90.223273)"><g><path d="M 0.390625 0 L 0.390625 -3.375 L 0.78125 -3.375 L 0.78125 -2.453125 L 0.765625 -1.984375 C 0.867188 -2.085938 0.976562 -2.175781 1.09375 -2.25 C 1.21875 -2.320312 1.363281 -2.359375 1.53125 -2.359375 C 1.769531 -2.359375 1.945312 -2.28125 2.0625 -2.125 C 2.175781 -1.976562 2.234375 -1.753906 2.234375 -1.453125 L 2.234375 0 L 1.84375 0 L 1.84375 -1.40625 C 1.84375 -1.625 1.804688 -1.78125 1.734375 -1.875 C 1.671875 -1.96875 1.5625 -2.015625 1.40625 -2.015625 C 1.28125 -2.015625 1.171875 -1.984375 1.078125 -1.921875 C 0.992188 -1.867188 0.894531 -1.785156 0.78125 -1.671875 L 0.78125 0 Z M 0.390625 0 "/></g></g></g><g fill="#000000" fill-opacity="1"><g transform="translate(291.466268, 90.223273)"><g/></g></g><g fill="#000000" fill-opacity="1"><g transform="translate(292.412251, 90.223273)"><g><path d="M 1 0.0625 C 0.613281 0.0625 0.328125 -0.101562 0.140625 -0.4375 L 0.4375 -0.640625 C 0.5 -0.515625 0.570312 -0.421875 0.65625 -0.359375 C 0.75 -0.304688 0.851562 -0.28125 0.96875 -0.28125 C 1.132812 -0.28125 1.257812 -0.332031 1.34375 -0.4375 C 1.425781 -0.539062 1.46875 -0.710938 1.46875 -0.953125 L 1.46875 -3.109375 L 1.859375 -3.109375 L 1.859375 -0.90625 C 1.859375 -0.78125 1.84375 -0.65625 1.8125 -0.53125 C 1.78125 -0.414062 1.726562 -0.3125 1.65625 -0.21875 C 1.59375 -0.132812 1.503906 -0.0664062 1.390625 -0.015625 C 1.285156 0.0351562 1.15625 0.0625 1 0.0625 Z M 1 0.0625 "/></g></g></g><g fill="#000000" fill-opacity="1"><g transform="translate(294.682608, 90.223273)"><g><path d="M 1.0625 0.0625 C 0.8125 0.0625 0.628906 -0.0078125 0.515625 -0.15625 C 0.410156 -0.3125 0.359375 -0.539062 0.359375 -0.84375 L 0.359375 -2.296875 L 0.75 -2.296875 L 0.75 -0.890625 C 0.75 -0.671875 0.78125 -0.515625 0.84375 -0.421875 C 0.914062 -0.328125 1.023438 -0.28125 1.171875 -0.28125 C 1.296875 -0.28125 1.40625 -0.3125 1.5 -0.375 C 1.59375 -0.4375 1.691406 -0.535156 1.796875 -0.671875 L 1.796875 -2.296875 L 2.1875 -2.296875 L 2.1875 0 L 1.859375 0 L 1.828125 -0.359375 L 1.8125 -0.359375 C 1.707031 -0.234375 1.59375 -0.128906 1.46875 -0.046875 C 1.351562 0.0234375 1.21875 0.0625 1.0625 0.0625 Z M 1.0625 0.0625 "/></g></g></g><g fill="#000000" fill-opacity="1"><g transform="translate(297.25568, 90.223273)"><g><path d="M 0.390625 0 L 0.390625 -2.296875 L 0.703125 -2.296875 L 0.75 -1.96875 C 0.863281 -2.082031 0.976562 -2.175781 1.09375 -2.25 C 1.21875 -2.320312 1.363281 -2.359375 1.53125 -2.359375 C 1.769531 -2.359375 1.945312 -2.28125 2.0625 -2.125 C 2.175781 -1.976562 2.234375 -1.753906 2.234375 -1.453125 L 2.234375 0 L 1.84375 0 L 1.84375 -1.40625 C 1.84375 -1.625 1.804688 -1.78125 1.734375 -1.875 C 1.671875 -1.96875 1.5625 -2.015625 1.40625 -2.015625 C 1.28125 -2.015625 1.171875 -1.984375 1.078125 -1.921875 C 0.992188 -1.867188 0.894531 -1.785156 0.78125 -1.671875 L 0.78125 0 Z M 0.390625 0 "/></g></g></g><g fill="#000000" fill-opacity="1"><g transform="translate(299.842938, 90.223273)"><g><path d="M 1.328125 0.0625 C 1.171875 0.0625 1.023438 0.0351562 0.890625 -0.015625 C 0.753906 -0.078125 0.632812 -0.160156 0.53125 -0.265625 C 0.4375 -0.367188 0.359375 -0.492188 0.296875 -0.640625 C 0.242188 -0.785156 0.21875 -0.953125 0.21875 -1.140625 C 0.21875 -1.335938 0.242188 -1.507812 0.296875 -1.65625 C 0.359375 -1.800781 0.4375 -1.925781 0.53125 -2.03125 C 0.632812 -2.132812 0.742188 -2.210938 0.859375 -2.265625 C 0.984375 -2.328125 1.113281 -2.359375 1.25 -2.359375 C 1.394531 -2.359375 1.523438 -2.332031 1.640625 -2.28125 C 1.753906 -2.226562 1.847656 -2.15625 1.921875 -2.0625 C 2.003906 -1.96875 2.066406 -1.851562 2.109375 -1.71875 C 2.148438 -1.59375 2.171875 -1.445312 2.171875 -1.28125 C 2.171875 -1.238281 2.164062 -1.195312 2.15625 -1.15625 C 2.15625 -1.113281 2.15625 -1.082031 2.15625 -1.0625 L 0.59375 -1.0625 C 0.613281 -0.8125 0.691406 -0.613281 0.828125 -0.46875 C 0.960938 -0.320312 1.144531 -0.25 1.375 -0.25 C 1.476562 -0.25 1.578125 -0.265625 1.671875 -0.296875 C 1.765625 -0.335938 1.851562 -0.382812 1.9375 -0.4375 L 2.078125 -0.1875 C 1.972656 -0.113281 1.859375 -0.0507812 1.734375 0 C 1.617188 0.0390625 1.484375 0.0625 1.328125 0.0625 Z M 0.59375 -1.328125 L 1.828125 -1.328125 C 1.828125 -1.566406 1.773438 -1.742188 1.671875 -1.859375 C 1.578125 -1.984375 1.441406 -2.046875 1.265625 -2.046875 C 1.179688 -2.046875 1.097656 -2.03125 1.015625 -2 C 0.941406 -1.96875 0.875 -1.921875 0.8125 -1.859375 C 0.757812 -1.796875 0.710938 -1.71875 0.671875 -1.625 C 0.628906 -1.539062 0.601562 -1.441406 0.59375 -1.328125 Z M 0.59375 -1.328125 "/></g></g></g><g fill="#000000" fill-opacity="1"><g transform="translate(302.188973, 90.223273)"><g/></g></g><g fill="#000000" fill-opacity="1"><g transform="translate(303.134956, 90.223273)"><g><path d="M 0.1875 0 L 0.1875 -0.234375 C 0.414062 -0.460938 0.617188 -0.664062 0.796875 -0.84375 C 0.972656 -1.03125 1.117188 -1.203125 1.234375 -1.359375 C 1.359375 -1.515625 1.453125 -1.65625 1.515625 -1.78125 C 1.578125 -1.914062 1.609375 -2.046875 1.609375 -2.171875 C 1.609375 -2.335938 1.5625 -2.476562 1.46875 -2.59375 C 1.375 -2.707031 1.226562 -2.765625 1.03125 -2.765625 C 0.90625 -2.765625 0.789062 -2.726562 0.6875 -2.65625 C 0.582031 -2.582031 0.484375 -2.492188 0.390625 -2.390625 L 0.171875 -2.625 C 0.296875 -2.757812 0.425781 -2.867188 0.5625 -2.953125 C 0.707031 -3.035156 0.878906 -3.078125 1.078125 -3.078125 C 1.359375 -3.078125 1.578125 -2.992188 1.734375 -2.828125 C 1.898438 -2.671875 1.984375 -2.457031 1.984375 -2.1875 C 1.984375 -2.039062 1.953125 -1.894531 1.890625 -1.75 C 1.828125 -1.613281 1.742188 -1.46875 1.640625 -1.3125 C 1.535156 -1.15625 1.40625 -0.992188 1.25 -0.828125 C 1.101562 -0.671875 0.9375 -0.5 0.75 -0.3125 C 0.832031 -0.3125 0.914062 -0.316406 1 -0.328125 C 1.09375 -0.335938 1.179688 -0.34375 1.265625 -0.34375 L 2.140625 -0.34375 L 2.140625 0 Z M 0.1875 0 "/></g></g></g><g fill="#000000" fill-opacity="1"><g transform="translate(305.485718, 90.223273)"><g><path d="M 1.171875 0.0625 C 0.867188 0.0625 0.628906 -0.0703125 0.453125 -0.34375 C 0.285156 -0.613281 0.203125 -1.003906 0.203125 -1.515625 C 0.203125 -2.023438 0.285156 -2.410156 0.453125 -2.671875 C 0.628906 -2.941406 0.867188 -3.078125 1.171875 -3.078125 C 1.484375 -3.078125 1.722656 -2.941406 1.890625 -2.671875 C 2.054688 -2.410156 2.140625 -2.023438 2.140625 -1.515625 C 2.140625 -1.003906 2.054688 -0.613281 1.890625 -0.34375 C 1.722656 -0.0703125 1.484375 0.0625 1.171875 0.0625 Z M 1.171875 -0.25 C 1.265625 -0.25 1.347656 -0.273438 1.421875 -0.328125 C 1.492188 -0.378906 1.554688 -0.453125 1.609375 -0.546875 C 1.660156 -0.648438 1.695312 -0.78125 1.71875 -0.9375 C 1.75 -1.101562 1.765625 -1.296875 1.765625 -1.515625 C 1.765625 -1.734375 1.75 -1.921875 1.71875 -2.078125 C 1.695312 -2.242188 1.660156 -2.375 1.609375 -2.46875 C 1.554688 -2.570312 1.492188 -2.644531 1.421875 -2.6875 C 1.347656 -2.738281 1.265625 -2.765625 1.171875 -2.765625 C 1.085938 -2.765625 1.007812 -2.738281 0.9375 -2.6875 C 0.863281 -2.644531 0.800781 -2.570312 0.75 -2.46875 C 0.695312 -2.375 0.65625 -2.242188 0.625 -2.078125 C 0.601562 -1.921875 0.59375 -1.734375 0.59375 -1.515625 C 0.59375 -1.078125 0.644531 -0.753906 0.75 -0.546875 C 0.851562 -0.347656 0.992188 -0.25 1.171875 -0.25 Z M 1.171875 -0.25 "/></g></g></g><g fill="#000000" fill-opacity="1"><g transform="translate(307.83648, 90.223273)"><g><path d="M 0.1875 0 L 0.1875 -0.234375 C 0.414062 -0.460938 0.617188 -0.664062 0.796875 -0.84375 C 0.972656 -1.03125 1.117188 -1.203125 1.234375 -1.359375 C 1.359375 -1.515625 1.453125 -1.65625 1.515625 -1.78125 C 1.578125 -1.914062 1.609375 -2.046875 1.609375 -2.171875 C 1.609375 -2.335938 1.5625 -2.476562 1.46875 -2.59375 C 1.375 -2.707031 1.226562 -2.765625 1.03125 -2.765625 C 0.90625 -2.765625 0.789062 -2.726562 0.6875 -2.65625 C 0.582031 -2.582031 0.484375 -2.492188 0.390625 -2.390625 L 0.171875 -2.625 C 0.296875 -2.757812 0.425781 -2.867188 0.5625 -2.953125 C 0.707031 -3.035156 0.878906 -3.078125 1.078125 -3.078125 C 1.359375 -3.078125 1.578125 -2.992188 1.734375 -2.828125 C 1.898438 -2.671875 1.984375 -2.457031 1.984375 -2.1875 C 1.984375 -2.039062 1.953125 -1.894531 1.890625 -1.75 C 1.828125 -1.613281 1.742188 -1.46875 1.640625 -1.3125 C 1.535156 -1.15625 1.40625 -0.992188 1.25 -0.828125 C 1.101562 -0.671875 0.9375 -0.5 0.75 -0.3125 C 0.832031 -0.3125 0.914062 -0.316406 1 -0.328125 C 1.09375 -0.335938 1.179688 -0.34375 1.265625 -0.34375 L 2.140625 -0.34375 L 2.140625 0 Z M 0.1875 0 "/></g></g></g><g fill="#000000" fill-opacity="1"><g transform="translate(310.187243, 90.223273)"><g><path d="M 1.109375 0.0625 C 0.984375 0.0625 0.867188 0.046875 0.765625 0.015625 C 0.671875 -0.00390625 0.582031 -0.03125 0.5 -0.0625 C 0.425781 -0.101562 0.351562 -0.148438 0.28125 -0.203125 C 0.21875 -0.253906 0.164062 -0.304688 0.125 -0.359375 L 0.3125 -0.609375 C 0.394531 -0.515625 0.5 -0.429688 0.625 -0.359375 C 0.75 -0.296875 0.894531 -0.265625 1.0625 -0.265625 C 1.15625 -0.265625 1.242188 -0.28125 1.328125 -0.3125 C 1.410156 -0.34375 1.476562 -0.390625 1.53125 -0.453125 C 1.59375 -0.515625 1.640625 -0.585938 1.671875 -0.671875 C 1.710938 -0.753906 1.734375 -0.847656 1.734375 -0.953125 C 1.734375 -1.160156 1.671875 -1.320312 1.546875 -1.4375 C 1.429688 -1.5625 1.28125 -1.625 1.09375 -1.625 C 0.988281 -1.625 0.894531 -1.609375 0.8125 -1.578125 C 0.738281 -1.546875 0.660156 -1.5 0.578125 -1.4375 L 0.359375 -1.5625 L 0.46875 -3.015625 L 1.96875 -3.015625 L 1.96875 -2.6875 L 0.8125 -2.6875 L 0.71875 -1.796875 C 0.789062 -1.828125 0.863281 -1.851562 0.9375 -1.875 C 1.007812 -1.894531 1.09375 -1.90625 1.1875 -1.90625 C 1.3125 -1.90625 1.429688 -1.882812 1.546875 -1.84375 C 1.660156 -1.8125 1.757812 -1.753906 1.84375 -1.671875 C 1.9375 -1.597656 2.003906 -1.503906 2.046875 -1.390625 C 2.097656 -1.273438 2.125 -1.132812 2.125 -0.96875 C 2.125 -0.800781 2.09375 -0.65625 2.03125 -0.53125 C 1.976562 -0.40625 1.90625 -0.296875 1.8125 -0.203125 C 1.71875 -0.117188 1.609375 -0.0507812 1.484375 0 C 1.367188 0.0390625 1.242188 0.0625 1.109375 0.0625 Z M 1.109375 0.0625 "/></g></g></g></svg>