<svg xmlns="http://www.w3.org/2000/svg" xmlns:xlink="http://www.w3.org/1999/xlink" width="800" zoomAndPan="magnify" viewBox="0 0 600 225" height="300" preserveAspectRatio="xMidYMid meet" version="1.0"><defs><g/><clipPath id="90cba9706d"><path d="M 261.664062 58.589844 L 338.164062 58.589844 L 338.164062 99.070312 L 261.664062 99.070312 Z M 261.664062 58.589844 " clip-rule="nonzero"/></clipPath></defs><g fill="#ffffff" fill-opacity="1"><g transform="translate(119.31127, 156.624349)"><g><path d="M 79.171875 -13.390625 C 77.304688 -13.609375 75.425781 -13.71875 73.53125 -13.71875 C 72.707031 -13.738281 71.863281 -13.757812 71 -13.78125 C 63.175781 -14.101562 55.332031 -14.1875 47.46875 -14.03125 C 47.082031 -14.03125 46.765625 -14.03125 46.515625 -14.03125 C 46.078125 -14.0625 45.757812 -14.054688 45.5625 -14.015625 C 45.375 -13.984375 45.21875 -13.878906 45.09375 -13.703125 C 44.976562 -13.523438 44.84375 -13.226562 44.6875 -12.8125 C 44.582031 -12.582031 44.457031 -12.289062 44.3125 -11.9375 C 43 -9.082031 41.796875 -6.179688 40.703125 -3.234375 C 39.992188 -1.328125 39.441406 0.625 39.046875 2.625 C 38.898438 3.25 38.847656 3.851562 38.890625 4.4375 C 38.941406 5.03125 39.210938 5.5625 39.703125 6.03125 C 39.765625 6.082031 39.785156 6.144531 39.765625 6.21875 C 39.742188 6.289062 39.695312 6.359375 39.625 6.421875 C 39.5625 6.484375 39.492188 6.523438 39.421875 6.546875 C 38.253906 6.722656 37.554688 6.304688 37.328125 5.296875 C 37.191406 4.734375 37.164062 4.15625 37.25 3.5625 C 37.25 3.507812 37.25 3.472656 37.25 3.453125 C 37.34375 2.429688 37.523438 1.414062 37.796875 0.40625 C 38.078125 -0.601562 38.390625 -1.617188 38.734375 -2.640625 C 39.835938 -5.679688 41.050781 -8.6875 42.375 -11.65625 C 42.445312 -11.78125 42.503906 -11.910156 42.546875 -12.046875 C 42.609375 -12.191406 42.679688 -12.34375 42.765625 -12.5 C 42.867188 -12.707031 42.960938 -12.921875 43.046875 -13.140625 C 43.140625 -13.359375 43.175781 -13.582031 43.15625 -13.8125 C 43.050781 -13.90625 42.941406 -13.957031 42.828125 -13.96875 C 42.722656 -13.988281 42.617188 -13.988281 42.515625 -13.96875 C 42.492188 -13.96875 42.46875 -13.96875 42.4375 -13.96875 C 41.519531 -13.96875 40.597656 -13.960938 39.671875 -13.953125 C 39.410156 -13.953125 39.140625 -13.953125 38.859375 -13.953125 C 38.515625 -13.929688 38.222656 -13.820312 37.984375 -13.625 C 37.753906 -13.425781 37.535156 -13.1875 37.328125 -12.90625 C 37.046875 -12.539062 36.757812 -12.179688 36.46875 -11.828125 C 35.269531 -10.285156 34.0625 -8.765625 32.84375 -7.265625 C 31.03125 -5.078125 29.140625 -2.96875 27.171875 -0.9375 C 25.210938 1.09375 23.128906 3 20.921875 4.78125 C 18.148438 7.0625 15.203125 9.070312 12.078125 10.8125 C 7.316406 13.375 2.320312 14.582031 -2.90625 14.4375 C -7.820312 14.332031 -12.257812 13.003906 -16.21875 10.453125 C -17.332031 9.742188 -18.316406 8.882812 -19.171875 7.875 C -19.753906 7.164062 -20.210938 6.398438 -20.546875 5.578125 C -20.878906 4.753906 -21.046875 3.859375 -21.046875 2.890625 C -21.003906 1.722656 -20.738281 0.644531 -20.25 -0.34375 C -19.769531 -1.332031 -19.097656 -2.234375 -18.234375 -3.046875 C -17.054688 -4.191406 -15.757812 -5.160156 -14.34375 -5.953125 C -12.96875 -6.753906 -11.546875 -7.453125 -10.078125 -8.046875 C -8.617188 -8.648438 -7.148438 -9.1875 -5.671875 -9.65625 C -3.265625 -10.425781 -0.835938 -11.070312 1.609375 -11.59375 C 4.054688 -12.125 6.519531 -12.578125 9 -12.953125 C 14.851562 -13.765625 20.722656 -14.300781 26.609375 -14.5625 C 29.617188 -14.75 32.617188 -14.84375 35.609375 -14.84375 C 36.429688 -14.820312 37.066406 -15.164062 37.515625 -15.875 C 38.304688 -16.988281 39.101562 -18.109375 39.90625 -19.234375 C 41.144531 -20.953125 42.363281 -22.703125 43.5625 -24.484375 C 49.144531 -32.816406 54.5 -41.289062 59.625 -49.90625 C 60.050781 -50.632812 60.46875 -51.378906 60.875 -52.140625 C 61.070312 -52.515625 61.28125 -52.898438 61.5 -53.296875 C 61.75 -53.785156 62.148438 -54.0625 62.703125 -54.125 C 63.015625 -54.125 63.238281 -54.035156 63.375 -53.859375 C 63.519531 -53.691406 63.535156 -53.46875 63.421875 -53.1875 C 63.316406 -52.957031 63.195312 -52.734375 63.0625 -52.515625 C 62.226562 -51.023438 61.488281 -49.519531 60.84375 -48 C 60.601562 -47.46875 60.363281 -46.941406 60.125 -46.421875 C 57.875 -41.523438 55.609375 -36.628906 53.328125 -31.734375 C 51.597656 -27.953125 49.847656 -24.160156 48.078125 -20.359375 C 47.566406 -19.234375 47.0625 -18.113281 46.5625 -17 C 46.457031 -16.769531 46.351562 -16.546875 46.25 -16.328125 C 46.226562 -16.285156 46.207031 -16.234375 46.1875 -16.171875 C 46.113281 -16.015625 46.054688 -15.859375 46.015625 -15.703125 C 45.972656 -15.554688 45.988281 -15.410156 46.0625 -15.265625 C 46.207031 -15.160156 46.375 -15.101562 46.5625 -15.09375 C 46.757812 -15.082031 46.941406 -15.078125 47.109375 -15.078125 C 47.242188 -15.097656 47.363281 -15.109375 47.46875 -15.109375 C 48.28125 -15.085938 49.097656 -15.085938 49.921875 -15.109375 C 51.035156 -15.109375 52.15625 -15.097656 53.28125 -15.078125 C 59.375 -14.960938 65.472656 -14.828125 71.578125 -14.671875 C 73.578125 -14.640625 75.5625 -14.554688 77.53125 -14.421875 C 77.707031 -14.410156 77.894531 -14.40625 78.09375 -14.40625 C 78.195312 -14.40625 78.3125 -14.40625 78.4375 -14.40625 C 78.695312 -14.40625 78.945312 -14.378906 79.1875 -14.328125 C 79.425781 -14.285156 79.648438 -14.203125 79.859375 -14.078125 C 79.898438 -14.046875 79.929688 -14 79.953125 -13.9375 C 79.972656 -13.875 79.972656 -13.820312 79.953125 -13.78125 C 79.953125 -13.71875 79.925781 -13.65625 79.875 -13.59375 C 79.820312 -13.539062 79.773438 -13.503906 79.734375 -13.484375 C 79.554688 -13.421875 79.367188 -13.390625 79.171875 -13.390625 Z M 35.515625 -13.234375 C 35.578125 -13.367188 35.582031 -13.488281 35.53125 -13.59375 C 35.476562 -13.695312 35.390625 -13.75 35.265625 -13.75 C 35.066406 -13.769531 34.859375 -13.769531 34.640625 -13.75 C 34.535156 -13.75 34.429688 -13.75 34.328125 -13.75 C 26.953125 -13.664062 19.570312 -13.160156 12.1875 -12.234375 C 9.363281 -11.890625 6.554688 -11.4375 3.765625 -10.875 C 0.972656 -10.320312 -1.796875 -9.628906 -4.546875 -8.796875 C -6.003906 -8.335938 -7.445312 -7.816406 -8.875 -7.234375 C -10.300781 -6.660156 -11.691406 -5.972656 -13.046875 -5.171875 C -14.460938 -4.378906 -15.753906 -3.410156 -16.921875 -2.265625 C -18.273438 -0.867188 -19.035156 0.613281 -19.203125 2.1875 C -19.378906 3.769531 -18.957031 5.289062 -17.9375 6.75 C -17.1875 7.78125 -16.289062 8.660156 -15.25 9.390625 C -11.4375 12.097656 -6.898438 13.472656 -1.640625 13.515625 C -0.296875 13.515625 1.25 13.34375 3 13 C 4.738281 12.632812 6.414062 12.101562 8.03125 11.40625 C 9.65625 10.707031 11.234375 9.882812 12.765625 8.9375 C 16.523438 6.625 20.003906 3.925781 23.203125 0.84375 C 25.421875 -1.226562 27.507812 -3.414062 29.46875 -5.71875 C 31.4375 -8.019531 33.34375 -10.363281 35.1875 -12.75 C 35.289062 -12.925781 35.398438 -13.085938 35.515625 -13.234375 Z M 44.46875 -16.265625 C 45.882812 -19.484375 47.347656 -22.695312 48.859375 -25.90625 C 48.921875 -26.070312 49.144531 -26.570312 49.53125 -27.40625 C 49.914062 -28.25 50.359375 -29.222656 50.859375 -30.328125 C 51.367188 -31.441406 51.832031 -32.488281 52.25 -33.46875 C 52.664062 -34.457031 52.957031 -35.195312 53.125 -35.6875 C 53.300781 -36.1875 53.253906 -36.234375 52.984375 -35.828125 C 52.910156 -35.742188 52.859375 -35.65625 52.828125 -35.5625 C 52.585938 -35.21875 52.363281 -34.878906 52.15625 -34.546875 C 50.363281 -31.765625 48.5625 -28.992188 46.75 -26.234375 C 44.945312 -23.472656 43.078125 -20.75 41.140625 -18.0625 C 40.960938 -17.8125 40.773438 -17.539062 40.578125 -17.25 C 40.203125 -16.75 39.835938 -16.238281 39.484375 -15.71875 C 39.335938 -15.5 39.296875 -15.316406 39.359375 -15.171875 C 39.421875 -15.035156 39.566406 -14.96875 39.796875 -14.96875 C 40.191406 -14.96875 40.578125 -14.976562 40.953125 -15 C 41.554688 -15.050781 42.160156 -15.078125 42.765625 -15.078125 C 43.222656 -15.054688 43.578125 -15.148438 43.828125 -15.359375 C 44.078125 -15.578125 44.289062 -15.878906 44.46875 -16.265625 Z M 44.46875 -16.265625 "/></g></g></g><g fill="#ffffff" fill-opacity="1"><g transform="translate(172.558722, 156.624349)"><g><path d="M 11.609375 -7.3125 C 11.765625 -7.113281 11.566406 -6.753906 11.015625 -6.234375 C 10.472656 -5.722656 9.890625 -5.289062 9.265625 -4.9375 C 8.648438 -4.582031 7.941406 -4.226562 7.140625 -3.875 C 6.597656 -3.644531 6.023438 -3.566406 5.421875 -3.640625 C 4.816406 -3.722656 4.515625 -4.09375 4.515625 -4.75 C 4.515625 -5.40625 4.664062 -6.050781 4.96875 -6.6875 C 5.269531 -7.351562 5.332031 -7.695312 5.15625 -7.71875 C 4.988281 -7.738281 4.640625 -7.578125 4.109375 -7.234375 C 2.703125 -6.316406 1.398438 -5.269531 0.203125 -4.09375 C -0.117188 -3.695312 -0.53125 -3.476562 -1.03125 -3.4375 C -1.28125 -3.4375 -1.472656 -3.515625 -1.609375 -3.671875 C -1.753906 -3.835938 -1.773438 -4.015625 -1.671875 -4.203125 C -0.804688 -5.796875 0.0625 -7.367188 0.9375 -8.921875 C 1.132812 -9.242188 1.425781 -9.441406 1.8125 -9.515625 C 1.976562 -9.546875 2.128906 -9.492188 2.265625 -9.359375 C 2.410156 -9.234375 2.484375 -9.085938 2.484375 -8.921875 C 2.472656 -8.765625 2.410156 -8.578125 2.296875 -8.359375 C 2.253906 -8.234375 2.207031 -8.113281 2.15625 -8 C 2.113281 -7.882812 2.097656 -7.785156 2.109375 -7.703125 C 2.128906 -7.628906 2.191406 -7.601562 2.296875 -7.625 C 2.441406 -7.707031 2.585938 -7.789062 2.734375 -7.875 C 3.109375 -8.09375 3.46875 -8.300781 3.8125 -8.5 C 4.113281 -8.675781 4.429688 -8.832031 4.765625 -8.96875 C 5.097656 -9.101562 5.441406 -9.195312 5.796875 -9.25 C 6.390625 -9.28125 6.804688 -9.144531 7.046875 -8.84375 C 7.285156 -8.539062 7.316406 -8.125 7.140625 -7.59375 C 6.941406 -7.101562 6.734375 -6.617188 6.515625 -6.140625 C 6.253906 -5.691406 6.210938 -5.347656 6.390625 -5.109375 C 6.566406 -4.878906 7.378906 -5.148438 8.828125 -5.921875 L 9.9375 -6.5625 C 10.96875 -7.226562 11.523438 -7.476562 11.609375 -7.3125 Z M 11.609375 -7.3125 "/></g></g></g><g fill="#ffffff" fill-opacity="1"><g transform="translate(190.107933, 156.624349)"><g><path d="M 11.609375 -7.3125 C 11.765625 -7.113281 11.566406 -6.753906 11.015625 -6.234375 C 10.472656 -5.722656 9.890625 -5.289062 9.265625 -4.9375 C 8.648438 -4.582031 7.941406 -4.226562 7.140625 -3.875 C 6.597656 -3.644531 6.023438 -3.566406 5.421875 -3.640625 C 4.816406 -3.722656 4.515625 -4.09375 4.515625 -4.75 C 4.515625 -5.40625 4.664062 -6.050781 4.96875 -6.6875 C 5.269531 -7.351562 5.332031 -7.695312 5.15625 -7.71875 C 4.988281 -7.738281 4.640625 -7.578125 4.109375 -7.234375 C 2.703125 -6.316406 1.398438 -5.269531 0.203125 -4.09375 C -0.117188 -3.695312 -0.53125 -3.476562 -1.03125 -3.4375 C -1.28125 -3.4375 -1.472656 -3.515625 -1.609375 -3.671875 C -1.753906 -3.835938 -1.773438 -4.015625 -1.671875 -4.203125 C -0.804688 -5.796875 0.0625 -7.367188 0.9375 -8.921875 C 1.132812 -9.242188 1.425781 -9.441406 1.8125 -9.515625 C 1.976562 -9.546875 2.128906 -9.492188 2.265625 -9.359375 C 2.410156 -9.234375 2.484375 -9.085938 2.484375 -8.921875 C 2.472656 -8.765625 2.410156 -8.578125 2.296875 -8.359375 C 2.253906 -8.234375 2.207031 -8.113281 2.15625 -8 C 2.113281 -7.882812 2.097656 -7.785156 2.109375 -7.703125 C 2.128906 -7.628906 2.191406 -7.601562 2.296875 -7.625 C 2.441406 -7.707031 2.585938 -7.789062 2.734375 -7.875 C 3.109375 -8.09375 3.46875 -8.300781 3.8125 -8.5 C 4.113281 -8.675781 4.429688 -8.832031 4.765625 -8.96875 C 5.097656 -9.101562 5.441406 -9.195312 5.796875 -9.25 C 6.390625 -9.28125 6.804688 -9.144531 7.046875 -8.84375 C 7.285156 -8.539062 7.316406 -8.125 7.140625 -7.59375 C 6.941406 -7.101562 6.734375 -6.617188 6.515625 -6.140625 C 6.253906 -5.691406 6.210938 -5.347656 6.390625 -5.109375 C 6.566406 -4.878906 7.378906 -5.148438 8.828125 -5.921875 L 9.9375 -6.5625 C 10.96875 -7.226562 11.523438 -7.476562 11.609375 -7.3125 Z M 11.609375 -7.3125 "/></g></g></g><g fill="#ffffff" fill-opacity="1"><g transform="translate(207.657144, 156.624349)"><g><path d="M 5.828125 -6.171875 C 5.304688 -5.554688 4.6875 -4.988281 3.96875 -4.46875 C 3.257812 -3.945312 2.453125 -3.597656 1.546875 -3.421875 C 0.648438 -3.242188 -0.046875 -3.3125 -0.546875 -3.625 C -1.046875 -3.9375 -1.140625 -4.628906 -0.828125 -5.703125 C -0.441406 -6.816406 0.09375 -7.875 0.78125 -8.875 C 0.9375 -9.09375 1.160156 -9.242188 1.453125 -9.328125 C 1.660156 -9.378906 1.84375 -9.34375 2 -9.21875 C 2.164062 -9.09375 2.234375 -8.941406 2.203125 -8.765625 C 2.054688 -8.410156 1.894531 -8.054688 1.71875 -7.703125 C 1.539062 -7.347656 1.421875 -7.117188 1.359375 -7.015625 C 1.015625 -6.390625 0.773438 -5.734375 0.640625 -5.046875 C 0.640625 -4.660156 1.160156 -4.640625 2.203125 -4.984375 C 3.253906 -5.328125 4.269531 -5.953125 5.25 -6.859375 C 6.238281 -7.773438 6.710938 -8.046875 6.671875 -7.671875 C 6.628906 -7.296875 6.347656 -6.796875 5.828125 -6.171875 Z M 3.265625 -11.078125 C 3.210938 -11.035156 3.109375 -10.988281 2.953125 -10.9375 C 2.804688 -10.882812 2.648438 -10.84375 2.484375 -10.8125 C 2.316406 -10.789062 2.179688 -10.816406 2.078125 -10.890625 C 1.984375 -10.972656 1.976562 -11.132812 2.0625 -11.375 C 2.21875 -11.78125 2.378906 -12.132812 2.546875 -12.4375 C 2.722656 -12.75 2.945312 -13.09375 3.21875 -13.46875 C 3.394531 -13.632812 3.585938 -13.722656 3.796875 -13.734375 C 4.003906 -13.742188 4.175781 -13.6875 4.3125 -13.5625 C 4.445312 -13.445312 4.484375 -13.28125 4.421875 -13.0625 C 4.210938 -12.289062 3.828125 -11.628906 3.265625 -11.078125 Z M 3.265625 -11.078125 "/></g></g></g><g fill="#ffffff" fill-opacity="1"><g transform="translate(220.181941, 156.624349)"><g><path d="M 8.34375 -5.625 C 7.78125 -5.070312 7.125 -4.597656 6.375 -4.203125 C 5.625 -3.804688 4.992188 -3.546875 4.484375 -3.421875 C 3.972656 -3.296875 3.453125 -3.222656 2.921875 -3.203125 C 2.054688 -3.171875 1.265625 -3.289062 0.546875 -3.5625 C -0.640625 -4.039062 -1.050781 -4.953125 -0.6875 -6.296875 C -0.34375 -7.460938 0.347656 -8.367188 1.390625 -9.015625 C 2.429688 -9.671875 3.507812 -9.988281 4.625 -9.96875 C 4.625 -9.96875 4.632812 -9.96875 4.65625 -9.96875 C 4.9375 -9.988281 5.207031 -9.972656 5.46875 -9.921875 C 5.894531 -9.765625 6.164062 -9.507812 6.28125 -9.15625 C 6.394531 -8.800781 6.316406 -8.410156 6.046875 -7.984375 C 5.421875 -7.035156 4.570312 -6.507812 3.5 -6.40625 C 2.789062 -6.332031 2.101562 -6.363281 1.4375 -6.5 C 1.3125 -6.519531 1.195312 -6.484375 1.09375 -6.390625 C 1 -6.304688 0.941406 -6.203125 0.921875 -6.078125 C 0.722656 -5.234375 0.984375 -4.695312 1.703125 -4.46875 C 2.578125 -4.164062 3.488281 -4.164062 4.4375 -4.46875 C 5.53125 -4.8125 6.566406 -5.457031 7.546875 -6.40625 C 8.535156 -7.351562 9.109375 -7.789062 9.265625 -7.71875 C 9.421875 -7.65625 9.46875 -7.472656 9.40625 -7.171875 C 9.269531 -6.691406 8.914062 -6.175781 8.34375 -5.625 Z M 2.109375 -7.984375 C 2.046875 -7.910156 2.003906 -7.832031 1.984375 -7.75 C 1.960938 -7.664062 1.992188 -7.59375 2.078125 -7.53125 C 2.421875 -7.332031 2.789062 -7.257812 3.1875 -7.3125 C 3.59375 -7.363281 3.929688 -7.515625 4.203125 -7.765625 C 4.484375 -8.015625 4.609375 -8.320312 4.578125 -8.6875 C 4.546875 -8.8125 4.472656 -8.890625 4.359375 -8.921875 C 4.253906 -8.960938 4.148438 -8.972656 4.046875 -8.953125 C 3.316406 -8.828125 2.671875 -8.503906 2.109375 -7.984375 Z M 2.109375 -7.984375 "/></g></g></g><g fill="#ffffff" fill-opacity="1"><g transform="translate(235.519244, 156.624349)"><g/></g></g><g fill="#ffffff" fill-opacity="1"><g transform="translate(253.405374, 156.624349)"><g><path d="M 31.046875 -11.90625 C 31.148438 -11.65625 31.210938 -11.390625 31.234375 -11.109375 C 31.285156 -9.941406 31.171875 -8.648438 30.890625 -7.234375 C 30.617188 -5.816406 30.144531 -4.421875 29.46875 -3.046875 C 28.800781 -1.671875 27.914062 -0.492188 26.8125 0.484375 C 25.71875 1.460938 24.398438 2.066406 22.859375 2.296875 C 20.660156 2.617188 18.78125 2.253906 17.21875 1.203125 C 16.269531 0.535156 15.503906 -0.289062 14.921875 -1.28125 C 14.710938 -1.613281 14.5 -1.96875 14.28125 -2.34375 C 14.175781 -2.507812 14.054688 -2.691406 13.921875 -2.890625 C 13.378906 -2.628906 12.894531 -2.296875 12.46875 -1.890625 C 12.320312 -1.765625 12.175781 -1.644531 12.03125 -1.53125 C 12 -1.519531 11.960938 -1.488281 11.921875 -1.4375 C 10.742188 -0.46875 9.5 0.421875 8.1875 1.234375 C 6.789062 2.054688 5.394531 2.421875 4 2.328125 C 2.800781 2.242188 1.953125 1.8125 1.453125 1.03125 C 0.953125 0.257812 0.898438 -0.734375 1.296875 -1.953125 C 1.523438 -2.703125 1.859375 -3.410156 2.296875 -4.078125 C 2.734375 -4.742188 3.222656 -5.390625 3.765625 -6.015625 C 4.566406 -6.929688 5.410156 -7.804688 6.296875 -8.640625 C 7.179688 -9.472656 8.097656 -10.285156 9.046875 -11.078125 C 9.867188 -11.753906 10.710938 -12.414062 11.578125 -13.0625 C 12.203125 -13.519531 12.53125 -14.082031 12.5625 -14.75 C 12.78125 -16.894531 13.242188 -19.0625 13.953125 -21.25 C 14.421875 -22.757812 15.125 -24.222656 16.0625 -25.640625 C 17.632812 -28.023438 19.691406 -29.148438 22.234375 -29.015625 C 23.503906 -28.992188 24.578125 -28.644531 25.453125 -27.96875 C 27.023438 -26.625 27.132812 -24.828125 25.78125 -22.578125 C 25.15625 -21.660156 24.414062 -20.800781 23.5625 -20 C 22.75 -19.226562 21.898438 -18.492188 21.015625 -17.796875 C 20.128906 -17.109375 19.238281 -16.445312 18.34375 -15.8125 C 18.226562 -15.726562 18.117188 -15.65625 18.015625 -15.59375 C 17.191406 -14.976562 16.382812 -14.375 15.59375 -13.78125 C 15.257812 -13.570312 15.078125 -13.304688 15.046875 -12.984375 C 15.023438 -12.691406 15.015625 -12.410156 15.015625 -12.140625 C 14.992188 -11.285156 15.007812 -10.441406 15.0625 -9.609375 C 15.113281 -8.773438 15.269531 -7.984375 15.53125 -7.234375 C 15.5625 -7.210938 15.59375 -7.191406 15.625 -7.171875 C 15.644531 -7.160156 15.65625 -7.15625 15.65625 -7.15625 C 16.15625 -7.40625 16.597656 -7.710938 16.984375 -8.078125 C 17.117188 -8.179688 17.25 -8.300781 17.375 -8.4375 C 20.113281 -10.644531 22.925781 -12.75 25.8125 -14.75 C 26.21875 -15.019531 26.640625 -15.289062 27.078125 -15.5625 C 27.503906 -15.832031 27.941406 -15.9375 28.390625 -15.875 C 28.648438 -15.851562 28.820312 -15.75 28.90625 -15.5625 C 28.945312 -15.40625 28.925781 -15.28125 28.84375 -15.1875 C 28.757812 -15.09375 28.660156 -15 28.546875 -14.90625 C 28.296875 -14.695312 28.039062 -14.484375 27.78125 -14.265625 C 27.519531 -14.085938 27.273438 -13.894531 27.046875 -13.6875 C 26.503906 -13.269531 25.972656 -12.847656 25.453125 -12.421875 C 22.628906 -10.148438 19.804688 -7.863281 16.984375 -5.5625 C 16.546875 -5.21875 16.296875 -4.945312 16.234375 -4.75 C 16.171875 -4.5625 16.21875 -4.296875 16.375 -3.953125 C 16.84375 -2.804688 17.453125 -1.785156 18.203125 -0.890625 C 18.804688 -0.179688 19.5625 0.351562 20.46875 0.71875 C 21.71875 1.144531 22.84375 1.144531 23.84375 0.71875 C 24.851562 0.289062 25.722656 -0.414062 26.453125 -1.40625 C 27.179688 -2.394531 27.765625 -3.503906 28.203125 -4.734375 C 28.648438 -5.972656 28.925781 -7.175781 29.03125 -8.34375 C 29.132812 -9.519531 29.0625 -10.503906 28.8125 -11.296875 C 28.8125 -11.398438 28.800781 -11.5 28.78125 -11.59375 C 28.738281 -11.71875 28.71875 -11.847656 28.71875 -11.984375 C 28.71875 -12.128906 28.765625 -12.25 28.859375 -12.34375 C 28.953125 -12.445312 29.070312 -12.515625 29.21875 -12.546875 C 30.144531 -12.816406 30.753906 -12.601562 31.046875 -11.90625 Z M 17.828125 -24.28125 C 17.421875 -23.550781 17.082031 -22.816406 16.8125 -22.078125 C 16.539062 -21.335938 16.296875 -20.585938 16.078125 -19.828125 C 16.015625 -19.554688 15.953125 -19.269531 15.890625 -18.96875 C 15.710938 -18.21875 15.5625 -17.457031 15.4375 -16.6875 C 15.382812 -16.507812 15.425781 -16.394531 15.5625 -16.34375 C 15.695312 -16.289062 15.847656 -16.316406 16.015625 -16.421875 C 17.046875 -17.128906 18.050781 -17.863281 19.03125 -18.625 C 20.019531 -19.394531 20.972656 -20.226562 21.890625 -21.125 C 22.546875 -21.800781 23.09375 -22.523438 23.53125 -23.296875 C 24.488281 -25.316406 24.128906 -26.703125 22.453125 -27.453125 C 21.640625 -27.796875 20.796875 -27.609375 19.921875 -26.890625 C 19.460938 -26.535156 19.066406 -26.132812 18.734375 -25.6875 C 18.398438 -25.25 18.097656 -24.78125 17.828125 -24.28125 Z M 12.625 -4.5 C 13.050781 -4.863281 13.191406 -5.265625 13.046875 -5.703125 C 12.660156 -7.222656 12.4375 -8.816406 12.375 -10.484375 C 12.375 -10.578125 12.351562 -10.6875 12.3125 -10.8125 C 12.269531 -10.894531 12.238281 -11.003906 12.21875 -11.140625 C 10.90625 -10.148438 9.691406 -9.132812 8.578125 -8.09375 C 7.472656 -7.050781 6.453125 -5.953125 5.515625 -4.796875 C 4.628906 -3.710938 4.035156 -2.570312 3.734375 -1.375 C 3.585938 -0.726562 3.664062 -0.164062 3.96875 0.3125 C 4.3125 0.90625 4.90625 1 5.75 0.59375 C 6.195312 0.40625 6.625 0.164062 7.03125 -0.125 C 8.644531 -1.226562 10.203125 -2.425781 11.703125 -3.71875 C 11.992188 -3.976562 12.300781 -4.238281 12.625 -4.5 Z M 12.625 -4.5 "/></g></g></g><g fill="#ffffff" fill-opacity="1"><g transform="translate(290.838611, 156.624349)"><g/></g></g><g fill="#ffffff" fill-opacity="1"><g transform="translate(308.724735, 156.624349)"><g/></g></g><g fill="#ffffff" fill-opacity="1"><g transform="translate(326.615949, 156.624349)"><g><path d="M 64.296875 -35.34375 C 64.222656 -35.164062 64.15625 -34.988281 64.09375 -34.8125 C 63.40625 -33.039062 62.664062 -31.296875 61.875 -29.578125 C 57.789062 -21.085938 53.40625 -12.878906 48.71875 -4.953125 C 47.195312 -2.390625 45.640625 0.125 44.046875 2.59375 C 42.453125 5.0625 40.851562 7.519531 39.25 9.96875 C 38.863281 10.550781 38.476562 11.128906 38.09375 11.703125 C 38.070312 11.753906 38.050781 11.789062 38.03125 11.8125 C 37.9375 11.988281 37.832031 12.132812 37.71875 12.25 C 37.601562 12.363281 37.445312 12.421875 37.25 12.421875 C 37.164062 12.421875 37.070312 12.398438 36.96875 12.359375 C 36.875 12.316406 36.796875 12.257812 36.734375 12.1875 C 36.691406 12.125 36.660156 12.023438 36.640625 11.890625 C 36.617188 11.765625 36.628906 11.664062 36.671875 11.59375 C 36.929688 11.019531 37.222656 10.476562 37.546875 9.96875 C 38.265625 8.789062 38.992188 7.613281 39.734375 6.4375 C 41.109375 4.238281 42.457031 2.035156 43.78125 -0.171875 C 46.726562 -5.097656 49.546875 -10.125 52.234375 -15.25 C 54.921875 -20.375 57.546875 -25.554688 60.109375 -30.796875 C 61.128906 -32.816406 61.972656 -34.976562 62.640625 -37.28125 C 62.773438 -37.675781 62.878906 -38.085938 62.953125 -38.515625 C 63.023438 -38.953125 63.0625 -39.398438 63.0625 -39.859375 C 62.988281 -40.847656 62.566406 -41.273438 61.796875 -41.140625 C 61.117188 -41.003906 60.476562 -40.789062 59.875 -40.5 C 58.4375 -39.8125 57.019531 -39.046875 55.625 -38.203125 C 48.125 -33.648438 41.289062 -28 35.125 -21.25 C 35.039062 -21.144531 34.941406 -21.039062 34.828125 -20.9375 C 32.703125 -18.625 30.59375 -16.289062 28.5 -13.9375 C 26.40625 -11.582031 24.367188 -9.160156 22.390625 -6.671875 C 21.984375 -6.148438 21.554688 -5.664062 21.109375 -5.21875 C 20.628906 -4.71875 20.054688 -4.519531 19.390625 -4.625 C 19.109375 -4.664062 18.875 -4.804688 18.6875 -5.046875 C 18.507812 -5.285156 18.441406 -5.566406 18.484375 -5.890625 C 18.617188 -6.765625 18.816406 -7.613281 19.078125 -8.4375 C 19.867188 -11.03125 20.707031 -13.59375 21.59375 -16.125 C 21.71875 -16.519531 21.832031 -16.894531 21.9375 -17.25 C 22.175781 -18.195312 22.507812 -19.070312 22.9375 -19.875 C 22.9375 -19.894531 22.925781 -19.90625 22.90625 -19.90625 C 22.800781 -19.96875 22.691406 -20.015625 22.578125 -20.046875 C 22.472656 -20.078125 22.367188 -20.039062 22.265625 -19.9375 C 21.878906 -19.507812 21.503906 -19.0625 21.140625 -18.59375 C 18.171875 -14.5625 15.226562 -10.5 12.3125 -6.40625 C 9.40625 -2.320312 6.566406 1.832031 3.796875 6.0625 C 3.554688 6.476562 3.289062 6.8125 3 7.0625 C 2.71875 7.320312 2.335938 7.410156 1.859375 7.328125 C 1.640625 7.265625 1.472656 7.128906 1.359375 6.921875 C 1.242188 6.722656 1.222656 6.523438 1.296875 6.328125 C 1.546875 5.753906 1.820312 5.207031 2.125 4.6875 C 2.976562 3.207031 3.828125 1.722656 4.671875 0.234375 C 6.359375 -2.703125 8.035156 -5.65625 9.703125 -8.625 C 12.273438 -13.175781 14.570312 -17.96875 16.59375 -23 C 17.382812 -24.9375 18.03125 -26.96875 18.53125 -29.09375 C 18.800781 -30.226562 18.914062 -31.410156 18.875 -32.640625 C 18.75 -34.609375 18.09375 -36.015625 16.90625 -36.859375 C 15.726562 -37.710938 14.175781 -38.117188 12.25 -38.078125 C 10.332031 -38.035156 8.203125 -37.640625 5.859375 -36.890625 C 3.515625 -36.148438 1.113281 -35.171875 -1.34375 -33.953125 C -3.8125 -32.734375 -6.1875 -31.382812 -8.46875 -29.90625 C -10.75 -28.4375 -12.78125 -26.941406 -14.5625 -25.421875 C -16.34375 -23.910156 -17.734375 -22.492188 -18.734375 -21.171875 C -19.773438 -19.703125 -20.664062 -18.085938 -21.40625 -16.328125 C -21.769531 -15.492188 -21.984375 -14.582031 -22.046875 -13.59375 C -22.066406 -13.394531 -22.164062 -13.25 -22.34375 -13.15625 C -22.519531 -13.0625 -22.710938 -13.03125 -22.921875 -13.0625 C -23.265625 -13.175781 -23.476562 -13.445312 -23.5625 -13.875 C -23.625 -14.4375 -23.582031 -14.953125 -23.4375 -15.421875 C -23.113281 -16.609375 -22.6875 -17.726562 -22.15625 -18.78125 C -21.164062 -20.625 -19.664062 -22.503906 -17.65625 -24.421875 C -15.644531 -26.347656 -13.300781 -28.191406 -10.625 -29.953125 C -7.945312 -31.722656 -5.148438 -33.296875 -2.234375 -34.671875 C 0.671875 -36.054688 3.515625 -37.128906 6.296875 -37.890625 C 9.078125 -38.660156 11.582031 -39.003906 13.8125 -38.921875 C 16.050781 -38.847656 17.8125 -38.238281 19.09375 -37.09375 C 20.382812 -35.945312 21.015625 -34.140625 20.984375 -31.671875 C 20.910156 -30.078125 20.660156 -28.5625 20.234375 -27.125 C 19.609375 -25.019531 18.882812 -22.984375 18.0625 -21.015625 C 17.25 -19.046875 16.382812 -17.117188 15.46875 -15.234375 C 15.1875 -14.648438 15.125 -14.363281 15.28125 -14.375 C 15.445312 -14.394531 15.691406 -14.617188 16.015625 -15.046875 C 17.171875 -16.585938 18.332031 -18.109375 19.5 -19.609375 C 20.289062 -20.617188 21.097656 -21.609375 21.921875 -22.578125 C 22.023438 -22.710938 22.128906 -22.84375 22.234375 -22.96875 C 22.703125 -23.539062 23.269531 -23.925781 23.9375 -24.125 C 24.4375 -24.226562 24.851562 -24.113281 25.1875 -23.78125 C 25.53125 -23.457031 25.648438 -22.960938 25.546875 -22.296875 C 25.523438 -22.222656 25.503906 -22.15625 25.484375 -22.09375 C 25.304688 -21.226562 25.101562 -20.390625 24.875 -19.578125 C 24.25 -17.597656 23.601562 -15.632812 22.9375 -13.6875 C 22.613281 -12.675781 22.289062 -11.65625 21.96875 -10.625 C 21.90625 -10.476562 21.8125 -10.207031 21.6875 -9.8125 C 21.550781 -9.46875 21.425781 -9.128906 21.3125 -8.796875 C 21.195312 -8.472656 21.101562 -8.222656 21.03125 -8.046875 C 21.125 -8.109375 21.921875 -9 23.421875 -10.71875 C 25.460938 -13.0625 27.878906 -15.804688 30.671875 -18.953125 C 33.460938 -22.097656 35.65625 -24.5 37.25 -26.15625 C 40.1875 -29.113281 43.285156 -31.804688 46.546875 -34.234375 C 49.804688 -36.660156 53.179688 -38.859375 56.671875 -40.828125 C 57.535156 -41.273438 58.421875 -41.679688 59.328125 -42.046875 C 59.523438 -42.109375 59.710938 -42.1875 59.890625 -42.28125 C 60.753906 -42.613281 61.671875 -42.738281 62.640625 -42.65625 C 64.492188 -42.476562 65.34375 -41.304688 65.1875 -39.140625 C 65.082031 -37.796875 64.785156 -36.53125 64.296875 -35.34375 Z M 22.84375 -20 C 22.882812 -19.957031 22.914062 -19.925781 22.9375 -19.90625 C 22.9375 -19.90625 22.9375 -19.894531 22.9375 -19.875 C 22.957031 -19.875 22.96875 -19.882812 22.96875 -19.90625 C 22.925781 -19.925781 22.882812 -19.957031 22.84375 -20 Z M 22.84375 -20 "/></g></g></g><g fill="#ffffff" fill-opacity="1"><g transform="translate(388.637815, 156.624349)"><g><path d="M 10.625 -7.453125 C 10.851562 -7.328125 10.867188 -7.007812 10.671875 -6.5 C 10.390625 -6.132812 10.085938 -5.789062 9.765625 -5.46875 C 9.441406 -5.144531 9.09375 -4.851562 8.71875 -4.59375 C 8.6875 -4.59375 8.671875 -4.585938 8.671875 -4.578125 C 8.421875 -4.398438 8.148438 -4.242188 7.859375 -4.109375 C 5.523438 -3.273438 4.335938 -3.769531 4.296875 -5.59375 C 3.347656 -4.769531 2.710938 -4.269531 2.390625 -4.09375 C 1.617188 -3.632812 0.78125 -3.425781 -0.125 -3.46875 C -0.78125 -3.507812 -1.226562 -3.710938 -1.46875 -4.078125 C -1.707031 -4.441406 -1.6875 -4.9375 -1.40625 -5.5625 C -0.976562 -6.550781 -0.367188 -7.429688 0.421875 -8.203125 C 1.347656 -9.066406 2.378906 -9.753906 3.515625 -10.265625 C 4.117188 -10.566406 4.753906 -10.6875 5.421875 -10.625 C 6.085938 -10.582031 6.488281 -10.207031 6.625 -9.5 C 6.675781 -9.28125 6.617188 -9.085938 6.453125 -8.921875 C 6.242188 -8.722656 6 -8.679688 5.71875 -8.796875 C 5.695312 -8.796875 5.664062 -8.796875 5.625 -8.796875 C 5.59375 -8.804688 5.566406 -8.820312 5.546875 -8.84375 C 5.265625 -9.238281 4.976562 -9.40625 4.6875 -9.34375 C 4.40625 -9.28125 4.101562 -9.148438 3.78125 -8.953125 C 2.28125 -8.066406 1.160156 -6.84375 0.421875 -5.28125 C 0.378906 -5.207031 0.351562 -5.128906 0.34375 -5.046875 C 0.34375 -4.960938 0.367188 -4.894531 0.421875 -4.84375 C 0.597656 -4.789062 0.789062 -4.804688 1 -4.890625 C 1.21875 -4.972656 1.4375 -5.09375 1.65625 -5.25 C 1.875 -5.414062 2.054688 -5.550781 2.203125 -5.65625 C 2.222656 -5.6875 2.234375 -5.703125 2.234375 -5.703125 C 2.941406 -6.296875 3.640625 -6.90625 4.328125 -7.53125 C 4.628906 -7.851562 5.003906 -8.035156 5.453125 -8.078125 C 6.097656 -8.078125 6.363281 -7.785156 6.25 -7.203125 C 6.195312 -6.992188 6.132812 -6.78125 6.0625 -6.5625 C 5.8125 -5.632812 5.800781 -5.085938 6.03125 -4.921875 C 6.269531 -4.765625 6.628906 -4.765625 7.109375 -4.921875 C 7.597656 -5.085938 8.082031 -5.394531 8.5625 -5.84375 C 9.039062 -6.300781 9.445312 -6.71875 9.78125 -7.09375 C 10.113281 -7.46875 10.394531 -7.585938 10.625 -7.453125 Z M 10.625 -7.453125 "/></g></g></g><g fill="#ffffff" fill-opacity="1"><g transform="translate(405.161635, 156.624349)"><g><path d="M 9.15625 -7.078125 C 7.84375 -5.535156 6.554688 -4.394531 5.296875 -3.65625 C 4.046875 -2.925781 2.707031 -2.6875 1.28125 -2.9375 C -0.144531 -3.1875 -0.734375 -4.144531 -0.484375 -5.8125 C -0.304688 -6.65625 -0.0664062 -7.476562 0.234375 -8.28125 C 0.984375 -10.144531 1.742188 -12 2.515625 -13.84375 C 2.773438 -14.507812 3.046875 -15.175781 3.328125 -15.84375 C 3.390625 -15.988281 3.453125 -16.140625 3.515625 -16.296875 C 3.617188 -16.535156 3.726562 -16.78125 3.84375 -17.03125 C 4 -17.46875 3.828125 -17.691406 3.328125 -17.703125 C 3.046875 -17.703125 2.765625 -17.703125 2.484375 -17.703125 C 2.359375 -17.703125 2.21875 -17.703125 2.0625 -17.703125 C 1.914062 -17.691406 1.765625 -17.675781 1.609375 -17.65625 C 1.359375 -17.632812 1.109375 -17.625 0.859375 -17.625 C 0.609375 -17.625 0.375 -17.6875 0.15625 -17.8125 C 0.101562 -17.832031 0.0546875 -17.867188 0.015625 -17.921875 C -0.015625 -17.972656 -0.03125 -18.035156 -0.03125 -18.109375 C -0.0078125 -18.148438 0.0195312 -18.195312 0.0625 -18.25 C 0.101562 -18.300781 0.160156 -18.335938 0.234375 -18.359375 C 0.453125 -18.441406 0.675781 -18.503906 0.90625 -18.546875 C 1.507812 -18.578125 2.109375 -18.601562 2.703125 -18.625 C 2.941406 -18.625 3.148438 -18.625 3.328125 -18.625 C 3.710938 -18.625 4 -18.632812 4.1875 -18.65625 C 4.382812 -18.6875 4.539062 -18.789062 4.65625 -18.96875 C 4.769531 -19.144531 4.90625 -19.414062 5.0625 -19.78125 C 5.15625 -19.96875 5.265625 -20.179688 5.390625 -20.421875 C 5.710938 -21.109375 6.035156 -21.804688 6.359375 -22.515625 C 6.503906 -22.835938 6.65625 -23.148438 6.8125 -23.453125 C 6.9375 -23.753906 7.132812 -23.988281 7.40625 -24.15625 C 7.675781 -24.28125 7.90625 -24.269531 8.09375 -24.125 C 8.15625 -24.082031 8.203125 -24.015625 8.234375 -23.921875 C 8.273438 -23.835938 8.296875 -23.765625 8.296875 -23.703125 C 8.296875 -23.316406 8.195312 -22.941406 8 -22.578125 C 7.957031 -22.492188 7.910156 -22.398438 7.859375 -22.296875 C 7.734375 -21.941406 7.597656 -21.582031 7.453125 -21.21875 C 7.171875 -20.5625 6.90625 -19.882812 6.65625 -19.1875 C 6.582031 -19.0625 6.578125 -18.945312 6.640625 -18.84375 C 6.703125 -18.75 6.796875 -18.703125 6.921875 -18.703125 C 7.617188 -18.679688 8.300781 -18.671875 8.96875 -18.671875 C 9.3125 -18.671875 9.648438 -18.671875 9.984375 -18.671875 C 11.066406 -18.648438 11.5 -18.5 11.28125 -18.21875 C 11.132812 -18.050781 10.972656 -17.957031 10.796875 -17.9375 C 10.628906 -17.914062 10.457031 -17.914062 10.28125 -17.9375 C 10.175781 -17.9375 10.070312 -17.9375 9.96875 -17.9375 C 8.875 -17.875 7.785156 -17.832031 6.703125 -17.8125 C 6.210938 -17.8125 5.882812 -17.585938 5.71875 -17.140625 C 5.539062 -16.710938 5.367188 -16.28125 5.203125 -15.84375 C 4.953125 -15.28125 4.722656 -14.726562 4.515625 -14.1875 C 4.296875 -13.6875 4.082031 -13.175781 3.875 -12.65625 C 3.3125 -11.34375 2.769531 -10.03125 2.25 -8.71875 C 1.925781 -7.851562 1.675781 -6.972656 1.5 -6.078125 C 1.082031 -4.453125 1.710938 -3.828125 3.390625 -4.203125 C 5.023438 -4.597656 6.742188 -5.78125 8.546875 -7.75 C 9.328125 -8.25 9.53125 -8.023438 9.15625 -7.078125 Z M 9.15625 -7.078125 "/></g></g></g><g fill="#ffffff" fill-opacity="1"><g transform="translate(420.293853, 156.624349)"><g><path d="M 9.15625 -7.078125 C 7.84375 -5.535156 6.554688 -4.394531 5.296875 -3.65625 C 4.046875 -2.925781 2.707031 -2.6875 1.28125 -2.9375 C -0.144531 -3.1875 -0.734375 -4.144531 -0.484375 -5.8125 C -0.304688 -6.65625 -0.0664062 -7.476562 0.234375 -8.28125 C 0.984375 -10.144531 1.742188 -12 2.515625 -13.84375 C 2.773438 -14.507812 3.046875 -15.175781 3.328125 -15.84375 C 3.390625 -15.988281 3.453125 -16.140625 3.515625 -16.296875 C 3.617188 -16.535156 3.726562 -16.78125 3.84375 -17.03125 C 4 -17.46875 3.828125 -17.691406 3.328125 -17.703125 C 3.046875 -17.703125 2.765625 -17.703125 2.484375 -17.703125 C 2.359375 -17.703125 2.21875 -17.703125 2.0625 -17.703125 C 1.914062 -17.691406 1.765625 -17.675781 1.609375 -17.65625 C 1.359375 -17.632812 1.109375 -17.625 0.859375 -17.625 C 0.609375 -17.625 0.375 -17.6875 0.15625 -17.8125 C 0.101562 -17.832031 0.0546875 -17.867188 0.015625 -17.921875 C -0.015625 -17.972656 -0.03125 -18.035156 -0.03125 -18.109375 C -0.0078125 -18.148438 0.0195312 -18.195312 0.0625 -18.25 C 0.101562 -18.300781 0.160156 -18.335938 0.234375 -18.359375 C 0.453125 -18.441406 0.675781 -18.503906 0.90625 -18.546875 C 1.507812 -18.578125 2.109375 -18.601562 2.703125 -18.625 C 2.941406 -18.625 3.148438 -18.625 3.328125 -18.625 C 3.710938 -18.625 4 -18.632812 4.1875 -18.65625 C 4.382812 -18.6875 4.539062 -18.789062 4.65625 -18.96875 C 4.769531 -19.144531 4.90625 -19.414062 5.0625 -19.78125 C 5.15625 -19.96875 5.265625 -20.179688 5.390625 -20.421875 C 5.710938 -21.109375 6.035156 -21.804688 6.359375 -22.515625 C 6.503906 -22.835938 6.65625 -23.148438 6.8125 -23.453125 C 6.9375 -23.753906 7.132812 -23.988281 7.40625 -24.15625 C 7.675781 -24.28125 7.90625 -24.269531 8.09375 -24.125 C 8.15625 -24.082031 8.203125 -24.015625 8.234375 -23.921875 C 8.273438 -23.835938 8.296875 -23.765625 8.296875 -23.703125 C 8.296875 -23.316406 8.195312 -22.941406 8 -22.578125 C 7.957031 -22.492188 7.910156 -22.398438 7.859375 -22.296875 C 7.734375 -21.941406 7.597656 -21.582031 7.453125 -21.21875 C 7.171875 -20.5625 6.90625 -19.882812 6.65625 -19.1875 C 6.582031 -19.0625 6.578125 -18.945312 6.640625 -18.84375 C 6.703125 -18.75 6.796875 -18.703125 6.921875 -18.703125 C 7.617188 -18.679688 8.300781 -18.671875 8.96875 -18.671875 C 9.3125 -18.671875 9.648438 -18.671875 9.984375 -18.671875 C 11.066406 -18.648438 11.5 -18.5 11.28125 -18.21875 C 11.132812 -18.050781 10.972656 -17.957031 10.796875 -17.9375 C 10.628906 -17.914062 10.457031 -17.914062 10.28125 -17.9375 C 10.175781 -17.9375 10.070312 -17.9375 9.96875 -17.9375 C 8.875 -17.875 7.785156 -17.832031 6.703125 -17.8125 C 6.210938 -17.8125 5.882812 -17.585938 5.71875 -17.140625 C 5.539062 -16.710938 5.367188 -16.28125 5.203125 -15.84375 C 4.953125 -15.28125 4.722656 -14.726562 4.515625 -14.1875 C 4.296875 -13.6875 4.082031 -13.175781 3.875 -12.65625 C 3.3125 -11.34375 2.769531 -10.03125 2.25 -8.71875 C 1.925781 -7.851562 1.675781 -6.972656 1.5 -6.078125 C 1.082031 -4.453125 1.710938 -3.828125 3.390625 -4.203125 C 5.023438 -4.597656 6.742188 -5.78125 8.546875 -7.75 C 9.328125 -8.25 9.53125 -8.023438 9.15625 -7.078125 Z M 9.15625 -7.078125 "/></g></g></g><g fill="#ffffff" fill-opacity="1"><g transform="translate(435.426071, 156.624349)"><g><path d="M 11.890625 -6.828125 C 11.710938 -6.671875 11.53125 -6.53125 11.34375 -6.40625 C 10.71875 -6.007812 10.148438 -5.695312 9.640625 -5.46875 C 9.140625 -5.25 8.546875 -5.023438 7.859375 -4.796875 C 6.847656 -4.492188 6.195312 -4.5625 5.90625 -5 C 5.625 -5.4375 5.578125 -6.046875 5.765625 -6.828125 C 6.046875 -7.941406 6.207031 -8.753906 6.25 -9.265625 C 6.289062 -9.785156 6.117188 -9.960938 5.734375 -9.796875 C 5.347656 -9.640625 4.648438 -9.109375 3.640625 -8.203125 C 2.222656 -6.984375 1.007812 -5.585938 0 -4.015625 C -0.125 -3.796875 -0.28125 -3.617188 -0.46875 -3.484375 C -0.65625 -3.347656 -0.882812 -3.28125 -1.15625 -3.28125 C -1.414062 -3.28125 -1.601562 -3.347656 -1.71875 -3.484375 C -1.84375 -3.617188 -1.851562 -3.804688 -1.75 -4.046875 C -1.164062 -5.316406 -0.570312 -6.578125 0.03125 -7.828125 C 1.0625 -9.992188 2.082031 -12.148438 3.09375 -14.296875 C 3.84375 -15.910156 4.582031 -17.519531 5.3125 -19.125 C 5.757812 -20.070312 6.203125 -21.019531 6.640625 -21.96875 C 6.671875 -22.050781 6.710938 -22.132812 6.765625 -22.21875 C 6.804688 -22.332031 6.851562 -22.441406 6.90625 -22.546875 C 6.957031 -22.648438 7.019531 -22.765625 7.09375 -22.890625 C 7.144531 -23.003906 7.25 -23.09375 7.40625 -23.15625 C 7.570312 -23.226562 7.734375 -23.273438 7.890625 -23.296875 C 8.054688 -23.316406 8.1875 -23.304688 8.28125 -23.265625 C 8.40625 -23.171875 8.472656 -23.078125 8.484375 -22.984375 C 8.503906 -22.890625 8.488281 -22.785156 8.4375 -22.671875 C 8.414062 -22.648438 8.40625 -22.617188 8.40625 -22.578125 C 8.207031 -21.992188 8.003906 -21.4375 7.796875 -20.90625 C 6.554688 -17.914062 5.203125 -14.972656 3.734375 -12.078125 C 3.628906 -11.878906 3.503906 -11.644531 3.359375 -11.375 C 3.140625 -10.976562 2.9375 -10.59375 2.75 -10.21875 C 2.5625 -9.84375 2.5 -9.585938 2.5625 -9.453125 C 2.632812 -9.328125 2.925781 -9.425781 3.4375 -9.75 C 3.59375 -9.863281 3.738281 -9.972656 3.875 -10.078125 C 4.28125 -10.347656 4.679688 -10.609375 5.078125 -10.859375 C 5.429688 -11.085938 5.820312 -11.210938 6.25 -11.234375 C 7.28125 -11.304688 7.859375 -10.84375 7.984375 -9.84375 C 8.035156 -9.445312 8.019531 -9.050781 7.9375 -8.65625 C 7.863281 -8.269531 7.769531 -7.882812 7.65625 -7.5 C 7.632812 -7.394531 7.617188 -7.285156 7.609375 -7.171875 C 7.429688 -6.515625 7.472656 -6.132812 7.734375 -6.03125 C 8.003906 -5.9375 8.378906 -5.988281 8.859375 -6.1875 C 9.347656 -6.394531 9.84375 -6.644531 10.34375 -6.9375 C 10.6875 -7.113281 10.984375 -7.265625 11.234375 -7.390625 C 11.492188 -7.523438 11.691406 -7.582031 11.828125 -7.5625 C 12.054688 -7.519531 12.160156 -7.421875 12.140625 -7.265625 C 12.117188 -7.117188 12.035156 -6.972656 11.890625 -6.828125 Z M 11.890625 -6.828125 "/></g></g></g><g fill="#ffffff" fill-opacity="1"><g transform="translate(453.414741, 156.624349)"><g><path d="M 8.34375 -5.625 C 7.78125 -5.070312 7.125 -4.597656 6.375 -4.203125 C 5.625 -3.804688 4.992188 -3.546875 4.484375 -3.421875 C 3.972656 -3.296875 3.453125 -3.222656 2.921875 -3.203125 C 2.054688 -3.171875 1.265625 -3.289062 0.546875 -3.5625 C -0.640625 -4.039062 -1.050781 -4.953125 -0.6875 -6.296875 C -0.34375 -7.460938 0.347656 -8.367188 1.390625 -9.015625 C 2.429688 -9.671875 3.507812 -9.988281 4.625 -9.96875 C 4.625 -9.96875 4.632812 -9.96875 4.65625 -9.96875 C 4.9375 -9.988281 5.207031 -9.972656 5.46875 -9.921875 C 5.894531 -9.765625 6.164062 -9.507812 6.28125 -9.15625 C 6.394531 -8.800781 6.316406 -8.410156 6.046875 -7.984375 C 5.421875 -7.035156 4.570312 -6.507812 3.5 -6.40625 C 2.789062 -6.332031 2.101562 -6.363281 1.4375 -6.5 C 1.3125 -6.519531 1.195312 -6.484375 1.09375 -6.390625 C 1 -6.304688 0.941406 -6.203125 0.921875 -6.078125 C 0.722656 -5.234375 0.984375 -4.695312 1.703125 -4.46875 C 2.578125 -4.164062 3.488281 -4.164062 4.4375 -4.46875 C 5.53125 -4.8125 6.566406 -5.457031 7.546875 -6.40625 C 8.535156 -7.351562 9.109375 -7.789062 9.265625 -7.71875 C 9.421875 -7.65625 9.46875 -7.472656 9.40625 -7.171875 C 9.269531 -6.691406 8.914062 -6.175781 8.34375 -5.625 Z M 2.109375 -7.984375 C 2.046875 -7.910156 2.003906 -7.832031 1.984375 -7.75 C 1.960938 -7.664062 1.992188 -7.59375 2.078125 -7.53125 C 2.421875 -7.332031 2.789062 -7.257812 3.1875 -7.3125 C 3.59375 -7.363281 3.929688 -7.515625 4.203125 -7.765625 C 4.484375 -8.015625 4.609375 -8.320312 4.578125 -8.6875 C 4.546875 -8.8125 4.472656 -8.890625 4.359375 -8.921875 C 4.253906 -8.960938 4.148438 -8.972656 4.046875 -8.953125 C 3.316406 -8.828125 2.671875 -8.503906 2.109375 -7.984375 Z M 2.109375 -7.984375 "/></g></g></g><g fill="#ffffff" fill-opacity="1"><g transform="translate(468.752044, 156.624349)"><g><path d="M 13.328125 -12.6875 C 13.429688 -12.6875 13.53125 -12.632812 13.625 -12.53125 C 13.726562 -12.4375 13.757812 -12.335938 13.71875 -12.234375 C 13.65625 -12.066406 13.578125 -11.90625 13.484375 -11.75 C 12.085938 -9.363281 10.476562 -7.128906 8.65625 -5.046875 C 8.1875 -4.515625 7.675781 -4.007812 7.125 -3.53125 C 6.851562 -3.289062 6.550781 -3.109375 6.21875 -2.984375 C 5.59375 -2.722656 5.109375 -2.722656 4.765625 -2.984375 C 4.421875 -3.242188 4.269531 -3.703125 4.3125 -4.359375 C 4.332031 -4.472656 4.351562 -4.582031 4.375 -4.6875 C 4.394531 -4.84375 4.410156 -5.007812 4.421875 -5.1875 C 4.429688 -5.375 4.40625 -5.570312 4.34375 -5.78125 C 4.082031 -5.550781 3.835938 -5.328125 3.609375 -5.109375 C 3.109375 -4.640625 2.625 -4.191406 2.15625 -3.765625 C 1.632812 -3.285156 1.023438 -3.097656 0.328125 -3.203125 C -0.148438 -3.296875 -0.4375 -3.566406 -0.53125 -4.015625 C -0.570312 -4.390625 -0.570312 -4.753906 -0.53125 -5.109375 C -0.3125 -6.722656 0.0859375 -8.28125 0.671875 -9.78125 C 0.773438 -10.019531 0.910156 -10.21875 1.078125 -10.375 C 1.296875 -10.601562 1.566406 -10.664062 1.890625 -10.5625 C 2.210938 -10.4375 2.34375 -10.195312 2.28125 -9.84375 C 2.21875 -9.550781 2.140625 -9.253906 2.046875 -8.953125 C 2.023438 -8.847656 2.007812 -8.738281 2 -8.625 C 1.738281 -7.695312 1.554688 -6.984375 1.453125 -6.484375 C 1.359375 -5.984375 1.316406 -5.640625 1.328125 -5.453125 C 1.335938 -5.265625 1.390625 -5.207031 1.484375 -5.28125 C 1.835938 -5.445312 2.148438 -5.675781 2.421875 -5.96875 C 2.691406 -6.257812 2.941406 -6.554688 3.171875 -6.859375 C 3.367188 -7.128906 3.585938 -7.394531 3.828125 -7.65625 C 4.066406 -7.914062 4.296875 -8.175781 4.515625 -8.4375 C 4.703125 -8.6875 4.898438 -8.929688 5.109375 -9.171875 C 5.304688 -9.390625 5.535156 -9.578125 5.796875 -9.734375 C 6.140625 -9.890625 6.484375 -9.863281 6.828125 -9.65625 C 6.972656 -9.550781 7.054688 -9.425781 7.078125 -9.28125 C 7.109375 -9.144531 7.097656 -9 7.046875 -8.84375 C 6.921875 -8.269531 6.796875 -7.691406 6.671875 -7.109375 C 6.597656 -6.816406 6.523438 -6.523438 6.453125 -6.234375 C 6.398438 -6.003906 6.351562 -5.769531 6.3125 -5.53125 C 6.289062 -5.445312 6.289062 -5.359375 6.3125 -5.265625 C 6.332031 -5.179688 6.382812 -5.128906 6.46875 -5.109375 C 6.53125 -5.085938 6.585938 -5.085938 6.640625 -5.109375 C 6.691406 -5.128906 6.742188 -5.164062 6.796875 -5.21875 C 7.066406 -5.445312 7.3125 -5.703125 7.53125 -5.984375 C 7.988281 -6.566406 8.441406 -7.144531 8.890625 -7.71875 C 9.234375 -8.195312 9.585938 -8.660156 9.953125 -9.109375 C 10.703125 -10.117188 11.476562 -11.109375 12.28125 -12.078125 C 12.53125 -12.441406 12.878906 -12.644531 13.328125 -12.6875 Z M 13.328125 -12.6875 "/></g></g></g><g clip-path="url(#90cba9706d)"><path fill="#ffffff" d="M 284.679688 83.394531 C 283.332031 84.828125 282.117188 88.261719 283.703125 88.878906 C 285.1875 88.214844 285.273438 84.804688 284.679688 83.394531 Z M 289.5 79.367188 C 289.972656 79.328125 298.78125 72.988281 301.28125 67.699219 C 303.347656 63.320312 299.605469 56.589844 293.167969 65.433594 C 291.4375 67.8125 290.820312 69.949219 290.148438 72.558594 C 289.679688 72.855469 289.199219 72.613281 289.167969 72.023438 C 289.058594 69.664062 289.5625 69.078125 289.542969 68.703125 C 289.398438 65.398438 289.15625 60.839844 286.3125 59.460938 C 283.550781 58.121094 283.011719 62.957031 283.5 66.003906 C 284.175781 70.21875 287.222656 75.78125 289.5 79.367188 Z M 284.542969 82.859375 C 284.539062 82.535156 283.011719 76.800781 275.753906 75.46875 C 269.765625 74.371094 264.933594 78.140625 263.589844 83.800781 C 261.496094 92.636719 269.105469 98.972656 276.546875 98.039062 C 284.15625 97.085938 296.953125 88.75 297.054688 88.390625 C 293.804688 86.273438 290.890625 83.773438 288.65625 80.542969 C 287.632812 81.113281 286.65625 81.703125 285.75 82.414062 C 287.898438 89.71875 282.367188 90.660156 282.300781 87.976562 C 282.230469 85.074219 284.457031 83.035156 284.542969 82.859375 Z M 299.335938 88.402344 C 299.359375 88.492188 315.664062 100.847656 327.117188 98.355469 C 335.273438 96.578125 338.378906 88.496094 336.328125 82.023438 C 331.167969 65.734375 313.65625 79.011719 308.355469 82.390625 C 305.550781 84.175781 299.390625 88.289062 299.335938 88.402344 Z M 285.617188 81.933594 C 288.015625 80.039062 288.519531 80.34375 288.273438 79.964844 C 286.230469 76.796875 283.105469 70.964844 282.179688 67.554688 C 281.265625 64.183594 281.429688 59.003906 284.808594 58.621094 C 287.5 58.3125 289.390625 60.226562 289.960938 62.84375 C 290.246094 64.152344 290.410156 65.636719 290.460938 66.761719 C 290.871094 66.535156 293.730469 59.734375 299.492188 60.125 C 304.4375 60.460938 304.59375 66.386719 300.566406 71.023438 C 296.046875 76.222656 289.921875 79.757812 289.855469 79.835938 C 289.855469 79.984375 291.171875 81.792969 292.710938 83.269531 C 294.433594 84.917969 296.207031 86.382812 298.152344 87.660156 C 298.515625 87.554688 309.429688 79.324219 317.882812 75.0625 C 327.820312 70.046875 336.132812 75.113281 337.921875 82.117188 C 340.023438 90.332031 333.84375 100.855469 321.007812 99.164062 C 315.558594 98.449219 311.90625 97.714844 298.214844 89.140625 C 291.648438 93.515625 280.285156 100.023438 272.5 98.660156 C 257.40625 96.019531 258.921875 77.234375 271.839844 74.769531 C 275.1875 74.128906 280.203125 75.25 283.101562 78.121094 C 285.078125 80.078125 285.410156 81.71875 285.617188 81.933594 " fill-opacity="1" fill-rule="nonzero"/></g><g fill="#ffffff" fill-opacity="1"><g transform="translate(214.227573, 204.939258)"><g><path d="M 0.15625 -1.21875 C 0.457031 -1.21875 0.6875 -1.238281 0.84375 -1.28125 C 1 -1.332031 1.113281 -1.425781 1.1875 -1.5625 C 1.257812 -1.707031 1.296875 -1.914062 1.296875 -2.1875 L 1.296875 -9.53125 L 3.40625 -9.53125 L 3.40625 -2.09375 C 3.40625 -1.550781 3.335938 -1.109375 3.203125 -0.765625 C 3.066406 -0.429688 2.835938 -0.175781 2.515625 0 C 2.191406 0.164062 1.742188 0.25 1.171875 0.25 L 0.15625 0.25 Z M 0.15625 -1.21875 "/></g></g></g><g fill="#ffffff" fill-opacity="1"><g transform="translate(221.864042, 204.939258)"><g><path d="M 3.453125 0.140625 C 2.742188 0.140625 2.179688 0.0234375 1.765625 -0.203125 C 1.347656 -0.429688 1.054688 -0.769531 0.890625 -1.21875 C 0.722656 -1.675781 0.640625 -2.253906 0.640625 -2.953125 L 0.640625 -9.53125 L 2.71875 -9.53125 L 2.71875 -2.640625 C 2.71875 -2.253906 2.765625 -1.945312 2.859375 -1.71875 C 2.960938 -1.488281 3.160156 -1.375 3.453125 -1.375 C 3.753906 -1.375 3.953125 -1.488281 4.046875 -1.71875 C 4.140625 -1.945312 4.1875 -2.253906 4.1875 -2.640625 L 4.1875 -9.53125 L 6.28125 -9.53125 L 6.28125 -2.953125 C 6.28125 -2.253906 6.191406 -1.675781 6.015625 -1.21875 C 5.847656 -0.769531 5.554688 -0.429688 5.140625 -0.203125 C 4.734375 0.0234375 4.171875 0.140625 3.453125 0.140625 Z M 3.453125 0.140625 "/></g></g></g><g fill="#ffffff" fill-opacity="1"><g transform="translate(232.312485, 204.939258)"><g><path d="M 0.703125 -9.53125 L 2.1875 -9.53125 L 4.140625 -4.9375 L 4.140625 -9.53125 L 5.890625 -9.53125 L 5.890625 0 L 4.453125 0 L 2.5 -4.9375 L 2.5 0 L 0.703125 0 Z M 0.703125 -9.53125 "/></g></g></g><g fill="#ffffff" fill-opacity="1"><g transform="translate(242.443261, 204.939258)"><g><path d="M 0.703125 -9.53125 L 4.984375 -9.53125 L 4.984375 -8.09375 L 2.8125 -8.09375 L 2.8125 -5.734375 L 4.46875 -5.734375 L 4.46875 -4.265625 L 2.8125 -4.265625 L 2.8125 -1.421875 L 5.015625 -1.421875 L 5.015625 0 L 0.703125 0 Z M 0.703125 -9.53125 "/></g></g></g><g fill="#ffffff" fill-opacity="1"><g transform="translate(251.232758, 204.939258)"><g/></g></g><g fill="#ffffff" fill-opacity="1"><g transform="translate(257.775024, 204.939258)"><g><path d="M 3.0625 0.15625 C 2.144531 0.15625 1.476562 -0.101562 1.0625 -0.625 C 0.65625 -1.144531 0.453125 -1.863281 0.453125 -2.78125 C 0.453125 -3.289062 0.539062 -3.742188 0.71875 -4.140625 C 0.90625 -4.535156 1.179688 -4.828125 1.546875 -5.015625 C 1.273438 -5.210938 1.046875 -5.492188 0.859375 -5.859375 C 0.679688 -6.222656 0.59375 -6.664062 0.59375 -7.1875 C 0.59375 -7.96875 0.804688 -8.570312 1.234375 -9 C 1.660156 -9.4375 2.269531 -9.65625 3.0625 -9.65625 C 3.84375 -9.65625 4.441406 -9.4375 4.859375 -9 C 5.285156 -8.570312 5.5 -7.976562 5.5 -7.21875 C 5.5 -6.675781 5.410156 -6.21875 5.234375 -5.84375 C 5.066406 -5.476562 4.84375 -5.203125 4.5625 -5.015625 C 4.9375 -4.828125 5.210938 -4.523438 5.390625 -4.109375 C 5.578125 -3.703125 5.671875 -3.234375 5.671875 -2.703125 C 5.671875 -1.804688 5.460938 -1.101562 5.046875 -0.59375 C 4.628906 -0.09375 3.96875 0.15625 3.0625 0.15625 Z M 3.0625 -5.71875 C 3.445312 -5.71875 3.640625 -6.191406 3.640625 -7.140625 C 3.640625 -7.460938 3.585938 -7.71875 3.484375 -7.90625 C 3.390625 -8.09375 3.25 -8.1875 3.0625 -8.1875 C 2.863281 -8.1875 2.710938 -8.09375 2.609375 -7.90625 C 2.503906 -7.726562 2.453125 -7.476562 2.453125 -7.15625 C 2.453125 -6.195312 2.65625 -5.71875 3.0625 -5.71875 Z M 3.0625 -1.296875 C 3.269531 -1.296875 3.421875 -1.378906 3.515625 -1.546875 C 3.617188 -1.710938 3.679688 -1.894531 3.703125 -2.09375 C 3.722656 -2.300781 3.734375 -2.550781 3.734375 -2.84375 C 3.734375 -3.25 3.6875 -3.570312 3.59375 -3.8125 C 3.5 -4.050781 3.320312 -4.171875 3.0625 -4.171875 C 2.78125 -4.171875 2.597656 -4.035156 2.515625 -3.765625 C 2.429688 -3.503906 2.390625 -3.144531 2.390625 -2.6875 C 2.390625 -2.289062 2.429688 -1.957031 2.515625 -1.6875 C 2.597656 -1.425781 2.78125 -1.296875 3.0625 -1.296875 Z M 3.0625 -1.296875 "/></g></g></g><g fill="#ffffff" fill-opacity="1"><g transform="translate(267.435176, 204.939258)"><g/></g></g><g fill="#ffffff" fill-opacity="1"><g transform="translate(273.977443, 204.939258)"><g><path d="M 0.484375 -1.390625 L 2.765625 -4.890625 L 2.90625 -5.109375 C 3.207031 -5.554688 3.425781 -5.929688 3.5625 -6.234375 C 3.707031 -6.535156 3.78125 -6.847656 3.78125 -7.171875 C 3.78125 -7.441406 3.722656 -7.644531 3.609375 -7.78125 C 3.503906 -7.914062 3.359375 -7.984375 3.171875 -7.984375 C 2.867188 -7.984375 2.65625 -7.867188 2.53125 -7.640625 C 2.414062 -7.410156 2.359375 -7.09375 2.359375 -6.6875 L 2.359375 -6.21875 L 0.453125 -6.21875 L 0.453125 -6.71875 C 0.453125 -7.613281 0.671875 -8.328125 1.109375 -8.859375 C 1.546875 -9.390625 2.21875 -9.65625 3.125 -9.65625 C 3.96875 -9.65625 4.609375 -9.4375 5.046875 -9 C 5.492188 -8.5625 5.71875 -7.941406 5.71875 -7.140625 C 5.71875 -6.773438 5.660156 -6.429688 5.546875 -6.109375 C 5.429688 -5.796875 5.296875 -5.507812 5.140625 -5.25 C 4.984375 -4.988281 4.738281 -4.617188 4.40625 -4.140625 L 2.671875 -1.546875 L 5.453125 -1.546875 L 5.453125 0 L 0.484375 0 Z M 0.484375 -1.390625 "/></g></g></g><g fill="#ffffff" fill-opacity="1"><g transform="translate(283.555232, 204.939258)"><g><path d="M 3.234375 0.171875 C 2.398438 0.171875 1.757812 -0.0703125 1.3125 -0.5625 C 0.863281 -1.0625 0.640625 -1.722656 0.640625 -2.546875 L 0.640625 -6.875 C 0.640625 -7.738281 0.851562 -8.421875 1.28125 -8.921875 C 1.71875 -9.421875 2.367188 -9.671875 3.234375 -9.671875 C 4.097656 -9.671875 4.742188 -9.421875 5.171875 -8.921875 C 5.609375 -8.421875 5.828125 -7.738281 5.828125 -6.875 L 5.828125 -2.546875 C 5.828125 -1.722656 5.597656 -1.0625 5.140625 -0.5625 C 4.691406 -0.0703125 4.054688 0.171875 3.234375 0.171875 Z M 3.234375 -1.578125 C 3.472656 -1.578125 3.628906 -1.675781 3.703125 -1.875 C 3.785156 -2.082031 3.828125 -2.320312 3.828125 -2.59375 L 3.828125 -6.828125 C 3.828125 -7.140625 3.789062 -7.398438 3.71875 -7.609375 C 3.65625 -7.816406 3.492188 -7.921875 3.234375 -7.921875 C 2.972656 -7.921875 2.804688 -7.816406 2.734375 -7.609375 C 2.671875 -7.410156 2.640625 -7.148438 2.640625 -6.828125 L 2.640625 -2.59375 C 2.640625 -1.914062 2.835938 -1.578125 3.234375 -1.578125 Z M 3.234375 -1.578125 "/></g></g></g><g fill="#ffffff" fill-opacity="1"><g transform="translate(293.556589, 204.939258)"><g><path d="M 0.484375 -1.390625 L 2.765625 -4.890625 L 2.90625 -5.109375 C 3.207031 -5.554688 3.425781 -5.929688 3.5625 -6.234375 C 3.707031 -6.535156 3.78125 -6.847656 3.78125 -7.171875 C 3.78125 -7.441406 3.722656 -7.644531 3.609375 -7.78125 C 3.503906 -7.914062 3.359375 -7.984375 3.171875 -7.984375 C 2.867188 -7.984375 2.65625 -7.867188 2.53125 -7.640625 C 2.414062 -7.410156 2.359375 -7.09375 2.359375 -6.6875 L 2.359375 -6.21875 L 0.453125 -6.21875 L 0.453125 -6.71875 C 0.453125 -7.613281 0.671875 -8.328125 1.109375 -8.859375 C 1.546875 -9.390625 2.21875 -9.65625 3.125 -9.65625 C 3.96875 -9.65625 4.609375 -9.4375 5.046875 -9 C 5.492188 -8.5625 5.71875 -7.941406 5.71875 -7.140625 C 5.71875 -6.773438 5.660156 -6.429688 5.546875 -6.109375 C 5.429688 -5.796875 5.296875 -5.507812 5.140625 -5.25 C 4.984375 -4.988281 4.738281 -4.617188 4.40625 -4.140625 L 2.671875 -1.546875 L 5.453125 -1.546875 L 5.453125 0 L 0.484375 0 Z M 0.484375 -1.390625 "/></g></g></g><g fill="#ffffff" fill-opacity="1"><g transform="translate(303.134378, 204.939258)"><g><path d="M 3 0.171875 C 2.320312 0.171875 1.800781 0.0507812 1.4375 -0.1875 C 1.082031 -0.425781 0.835938 -0.753906 0.703125 -1.171875 C 0.566406 -1.597656 0.5 -2.132812 0.5 -2.78125 L 2.40625 -2.78125 C 2.40625 -2.226562 2.445312 -1.835938 2.53125 -1.609375 C 2.625 -1.390625 2.804688 -1.28125 3.078125 -1.28125 C 3.285156 -1.28125 3.4375 -1.351562 3.53125 -1.5 C 3.632812 -1.644531 3.695312 -1.847656 3.71875 -2.109375 C 3.738281 -2.367188 3.75 -2.753906 3.75 -3.265625 C 3.75 -3.804688 3.695312 -4.210938 3.59375 -4.484375 C 3.5 -4.765625 3.304688 -4.90625 3.015625 -4.90625 C 2.609375 -4.90625 2.359375 -4.613281 2.265625 -4.03125 L 0.5625 -4.03125 L 0.734375 -9.53125 L 5.1875 -9.53125 L 5.1875 -7.890625 L 2.3125 -7.890625 L 2.21875 -5.921875 C 2.300781 -6.046875 2.476562 -6.148438 2.75 -6.234375 C 3.03125 -6.328125 3.316406 -6.375 3.609375 -6.375 C 4.253906 -6.375 4.742188 -6.109375 5.078125 -5.578125 C 5.421875 -5.046875 5.59375 -4.289062 5.59375 -3.3125 C 5.59375 -2.550781 5.523438 -1.921875 5.390625 -1.421875 C 5.265625 -0.929688 5.015625 -0.539062 4.640625 -0.25 C 4.265625 0.03125 3.71875 0.171875 3 0.171875 Z M 3 0.171875 "/></g></g></g><g fill="#ffffff" fill-opacity="1"><g transform="translate(312.653339, 204.939258)"><g/></g></g><g fill="#ffffff" fill-opacity="1"><g transform="translate(319.195605, 204.939258)"><g><path d="M 2.046875 -9.53125 L 4.453125 -9.53125 L 6.21875 0 L 4.28125 0 L 3.96875 -2.015625 L 2.5625 -2.015625 L 2.234375 0 L 0.25 0 Z M 3.765625 -3.265625 L 3.265625 -6.984375 L 2.75 -3.265625 Z M 3.765625 -3.265625 "/></g></g></g><g fill="#ffffff" fill-opacity="1"><g transform="translate(329.208727, 204.939258)"><g><path d="M 1.5625 -7.96875 L 0.125 -7.96875 L 0.125 -9.53125 L 5.109375 -9.53125 L 5.109375 -7.96875 L 3.6875 -7.96875 L 3.6875 0 L 1.5625 0 Z M 1.5625 -7.96875 "/></g></g></g><g fill="#ffffff" fill-opacity="1"><g transform="translate(337.974695, 204.939258)"><g/></g></g><g fill="#ffffff" fill-opacity="1"><g transform="translate(344.516962, 204.939258)"><g><path d="M 1.5625 -7.59375 C 1.476562 -7.539062 1.25 -7.4375 0.875 -7.28125 C 0.8125 -7.257812 0.710938 -7.21875 0.578125 -7.15625 C 0.453125 -7.101562 0.347656 -7.054688 0.265625 -7.015625 L 0.265625 -8.46875 C 1.203125 -8.957031 1.773438 -9.3125 1.984375 -9.53125 L 3.53125 -9.53125 L 3.53125 0 L 1.5625 0 Z M 1.5625 -7.59375 "/></g></g></g><g fill="#ffffff" fill-opacity="1"><g transform="translate(352.624048, 204.939258)"><g><path d="M 3.25 0.140625 C 2.351562 0.140625 1.6875 -0.140625 1.25 -0.703125 C 0.820312 -1.265625 0.609375 -2.023438 0.609375 -2.984375 L 0.609375 -6.4375 C 0.609375 -7.46875 0.796875 -8.257812 1.171875 -8.8125 C 1.554688 -9.375 2.242188 -9.65625 3.234375 -9.65625 C 4.109375 -9.65625 4.726562 -9.453125 5.09375 -9.046875 C 5.46875 -8.648438 5.65625 -8.039062 5.65625 -7.21875 L 5.671875 -7.046875 L 3.828125 -7.046875 C 3.828125 -7.472656 3.789062 -7.765625 3.71875 -7.921875 C 3.65625 -8.085938 3.5 -8.171875 3.25 -8.171875 C 3.070312 -8.171875 2.9375 -8.113281 2.84375 -8 C 2.75 -7.894531 2.6875 -7.710938 2.65625 -7.453125 C 2.625 -7.203125 2.609375 -6.8125 2.609375 -6.28125 L 2.609375 -5.4375 C 2.710938 -5.601562 2.875 -5.734375 3.09375 -5.828125 C 3.3125 -5.921875 3.5625 -5.96875 3.84375 -5.96875 C 4.53125 -5.96875 5.035156 -5.710938 5.359375 -5.203125 C 5.679688 -4.703125 5.84375 -4.039062 5.84375 -3.21875 C 5.84375 -2.132812 5.644531 -1.300781 5.25 -0.71875 C 4.863281 -0.144531 4.195312 0.140625 3.25 0.140625 Z M 3.265625 -1.3125 C 3.515625 -1.3125 3.675781 -1.429688 3.75 -1.671875 C 3.832031 -1.910156 3.875 -2.328125 3.875 -2.921875 C 3.875 -3.304688 3.859375 -3.597656 3.828125 -3.796875 C 3.804688 -3.992188 3.753906 -4.148438 3.671875 -4.265625 C 3.585938 -4.390625 3.445312 -4.453125 3.25 -4.453125 C 3.113281 -4.453125 2.984375 -4.410156 2.859375 -4.328125 C 2.742188 -4.253906 2.660156 -4.171875 2.609375 -4.078125 L 2.609375 -2.53125 C 2.609375 -1.71875 2.828125 -1.3125 3.265625 -1.3125 Z M 3.265625 -1.3125 "/></g></g></g><g fill="#ffffff" fill-opacity="1"><g transform="translate(362.484208, 204.939258)"><g><path d="M 0.78125 -6.640625 L 2.578125 -6.640625 L 2.578125 -4.84375 L 0.78125 -4.84375 Z M 0.78125 -2.453125 L 2.578125 -2.453125 L 2.578125 -0.65625 L 0.78125 -0.65625 Z M 0.78125 -2.453125 "/></g></g></g><g fill="#ffffff" fill-opacity="1"><g transform="translate(369.285317, 204.939258)"><g><path d="M 3.234375 0.171875 C 2.398438 0.171875 1.757812 -0.0703125 1.3125 -0.5625 C 0.863281 -1.0625 0.640625 -1.722656 0.640625 -2.546875 L 0.640625 -6.875 C 0.640625 -7.738281 0.851562 -8.421875 1.28125 -8.921875 C 1.71875 -9.421875 2.367188 -9.671875 3.234375 -9.671875 C 4.097656 -9.671875 4.742188 -9.421875 5.171875 -8.921875 C 5.609375 -8.421875 5.828125 -7.738281 5.828125 -6.875 L 5.828125 -2.546875 C 5.828125 -1.722656 5.597656 -1.0625 5.140625 -0.5625 C 4.691406 -0.0703125 4.054688 0.171875 3.234375 0.171875 Z M 3.234375 -1.578125 C 3.472656 -1.578125 3.628906 -1.675781 3.703125 -1.875 C 3.785156 -2.082031 3.828125 -2.320312 3.828125 -2.59375 L 3.828125 -6.828125 C 3.828125 -7.140625 3.789062 -7.398438 3.71875 -7.609375 C 3.65625 -7.816406 3.492188 -7.921875 3.234375 -7.921875 C 2.972656 -7.921875 2.804688 -7.816406 2.734375 -7.609375 C 2.671875 -7.410156 2.640625 -7.148438 2.640625 -6.828125 L 2.640625 -2.59375 C 2.640625 -1.914062 2.835938 -1.578125 3.234375 -1.578125 Z M 3.234375 -1.578125 "/></g></g></g><g fill="#ffffff" fill-opacity="1"><g transform="translate(379.286675, 204.939258)"><g><path d="M 3.234375 0.171875 C 2.398438 0.171875 1.757812 -0.0703125 1.3125 -0.5625 C 0.863281 -1.0625 0.640625 -1.722656 0.640625 -2.546875 L 0.640625 -6.875 C 0.640625 -7.738281 0.851562 -8.421875 1.28125 -8.921875 C 1.71875 -9.421875 2.367188 -9.671875 3.234375 -9.671875 C 4.097656 -9.671875 4.742188 -9.421875 5.171875 -8.921875 C 5.609375 -8.421875 5.828125 -7.738281 5.828125 -6.875 L 5.828125 -2.546875 C 5.828125 -1.722656 5.597656 -1.0625 5.140625 -0.5625 C 4.691406 -0.0703125 4.054688 0.171875 3.234375 0.171875 Z M 3.234375 -1.578125 C 3.472656 -1.578125 3.628906 -1.675781 3.703125 -1.875 C 3.785156 -2.082031 3.828125 -2.320312 3.828125 -2.59375 L 3.828125 -6.828125 C 3.828125 -7.140625 3.789062 -7.398438 3.71875 -7.609375 C 3.65625 -7.816406 3.492188 -7.921875 3.234375 -7.921875 C 2.972656 -7.921875 2.804688 -7.816406 2.734375 -7.609375 C 2.671875 -7.410156 2.640625 -7.148438 2.640625 -6.828125 L 2.640625 -2.59375 C 2.640625 -1.914062 2.835938 -1.578125 3.234375 -1.578125 Z M 3.234375 -1.578125 "/></g></g></g><g fill="#ffffff" fill-opacity="1"><g transform="translate(128.105101, 25.125009)"><g><path d="M 4.734375 -3.25 L 4.734375 0 L 3.140625 0 L 3.140625 -3.21875 L 0.1875 -8 L 1.890625 -8 L 3.9375 -4.40625 L 6.015625 -8 L 7.6875 -8 Z M 4.734375 -3.25 "/></g></g></g><g fill="#ffffff" fill-opacity="1"><g transform="translate(139.506561, 25.125009)"><g><path d="M 4.71875 0.171875 C 3.84375 0.171875 3.09375 -0.015625 2.46875 -0.390625 C 1.851562 -0.765625 1.382812 -1.265625 1.0625 -1.890625 C 0.75 -2.523438 0.59375 -3.222656 0.59375 -3.984375 C 0.59375 -4.753906 0.75 -5.453125 1.0625 -6.078125 C 1.375 -6.710938 1.84375 -7.210938 2.46875 -7.578125 C 3.09375 -7.953125 3.84375 -8.140625 4.71875 -8.140625 C 5.59375 -8.140625 6.335938 -7.953125 6.953125 -7.578125 C 7.578125 -7.210938 8.046875 -6.710938 8.359375 -6.078125 C 8.679688 -5.453125 8.84375 -4.757812 8.84375 -4 C 8.84375 -3.226562 8.679688 -2.523438 8.359375 -1.890625 C 8.046875 -1.265625 7.578125 -0.765625 6.953125 -0.390625 C 6.335938 -0.015625 5.59375 0.171875 4.71875 0.171875 Z M 4.734375 -1.015625 C 5.253906 -1.015625 5.703125 -1.140625 6.078125 -1.390625 C 6.460938 -1.648438 6.753906 -2.003906 6.953125 -2.453125 C 7.160156 -2.910156 7.265625 -3.425781 7.265625 -4 C 7.265625 -4.5625 7.160156 -5.066406 6.953125 -5.515625 C 6.753906 -5.960938 6.460938 -6.316406 6.078125 -6.578125 C 5.703125 -6.835938 5.253906 -6.96875 4.734375 -6.96875 C 4.203125 -6.96875 3.742188 -6.835938 3.359375 -6.578125 C 2.972656 -6.316406 2.679688 -5.960938 2.484375 -5.515625 C 2.296875 -5.066406 2.203125 -4.5625 2.203125 -4 C 2.203125 -3.425781 2.296875 -2.910156 2.484375 -2.453125 C 2.679688 -2.003906 2.972656 -1.648438 3.359375 -1.390625 C 3.742188 -1.140625 4.203125 -1.015625 4.734375 -1.015625 Z M 4.734375 -1.015625 "/></g></g></g><g fill="#ffffff" fill-opacity="1"><g transform="translate(152.484606, 25.125009)"><g><path d="M 4.578125 0.171875 C 3.441406 0.171875 2.570312 -0.117188 1.96875 -0.703125 C 1.375 -1.296875 1.078125 -2.09375 1.078125 -3.09375 L 1.078125 -8 L 2.671875 -8 L 2.671875 -3.109375 C 2.671875 -2.410156 2.832031 -1.882812 3.15625 -1.53125 C 3.476562 -1.1875 3.953125 -1.015625 4.578125 -1.015625 C 5.191406 -1.015625 5.660156 -1.1875 5.984375 -1.53125 C 6.304688 -1.882812 6.46875 -2.410156 6.46875 -3.109375 L 6.46875 -8 L 8.078125 -8 L 8.078125 -3.125 C 8.078125 -2.101562 7.773438 -1.296875 7.171875 -0.703125 C 6.566406 -0.117188 5.703125 0.171875 4.578125 0.171875 Z M 4.578125 0.171875 "/></g></g></g><g fill="#ffffff" fill-opacity="1"><g transform="translate(165.144984, 25.125009)"><g/></g></g><g fill="#ffffff" fill-opacity="1"><g transform="translate(171.616652, 25.125009)"><g><path d="M 5.46875 -2.171875 L 2.5 -2.171875 L 1.75 0 L 0.140625 0 L 3.21875 -8.109375 L 4.75 -8.109375 L 7.84375 0 L 6.21875 0 Z M 5.078125 -3.296875 L 3.984375 -6.421875 L 2.890625 -3.296875 Z M 5.078125 -3.296875 "/></g></g></g><g fill="#ffffff" fill-opacity="1"><g transform="translate(183.135771, 25.125009)"><g><path d="M 4.09375 -3.234375 L 2.78125 -3.234375 L 2.78125 0 L 1.1875 0 L 1.1875 -8 L 4.125 -8 C 6.15625 -8 7.171875 -7.226562 7.171875 -5.6875 C 7.171875 -4.5625 6.675781 -3.835938 5.6875 -3.515625 L 8.09375 0 L 6.25 0 Z M 2.78125 -4.375 L 4.125 -4.375 C 4.625 -4.375 4.988281 -4.472656 5.21875 -4.671875 C 5.445312 -4.878906 5.5625 -5.191406 5.5625 -5.609375 C 5.5625 -6.441406 5.082031 -6.859375 4.125 -6.859375 L 2.78125 -6.859375 Z M 2.78125 -4.375 "/></g></g></g><g fill="#ffffff" fill-opacity="1"><g transform="translate(195.043153, 25.125009)"><g><path d="M 6.359375 -1.140625 L 6.359375 0 L 1.1875 0 L 1.1875 -8 L 6.125 -8 L 6.125 -6.859375 L 2.78125 -6.859375 L 2.78125 -4.796875 L 5.640625 -4.796875 L 5.640625 -3.65625 L 2.78125 -3.65625 L 2.78125 -1.140625 Z M 6.359375 -1.140625 "/></g></g></g><g fill="#ffffff" fill-opacity="1"><g transform="translate(205.550431, 25.125009)"><g/></g></g><g fill="#ffffff" fill-opacity="1"><g transform="translate(212.022099, 25.125009)"><g><path d="M 1.1875 -8 L 2.78125 -8 L 2.78125 0 L 1.1875 0 Z M 1.1875 -8 "/></g></g></g><g fill="#ffffff" fill-opacity="1"><g transform="translate(219.517384, 25.125009)"><g><path d="M 8.1875 -8 L 8.1875 0 L 6.765625 0.015625 L 2.671875 -5.640625 L 2.78125 -2.9375 L 2.78125 0 L 1.1875 0 L 1.1875 -8 L 2.609375 -8 L 6.703125 -2.359375 L 6.59375 -5.21875 L 6.59375 -8 Z M 8.1875 -8 "/></g></g></g><g fill="#ffffff" fill-opacity="1"><g transform="translate(232.413072, 25.125009)"><g><path d="M 8 -8 L 4.921875 0.078125 L 3.3125 0.078125 L 0.21875 -8 L 1.859375 -8 L 4.125 -1.5 L 6.390625 -8 Z M 8 -8 "/></g></g></g><g fill="#ffffff" fill-opacity="1"><g transform="translate(244.155729, 25.125009)"><g><path d="M 1.1875 -8 L 2.78125 -8 L 2.78125 0 L 1.1875 0 Z M 1.1875 -8 "/></g></g></g><g fill="#ffffff" fill-opacity="1"><g transform="translate(251.651013, 25.125009)"><g><path d="M 6.78125 -6.84375 L 4.359375 -6.84375 L 4.359375 0 L 2.75 0 L 2.75 -6.84375 L 0.3125 -6.84375 L 0.3125 -8 L 6.78125 -8 Z M 6.78125 -6.84375 "/></g></g></g><g fill="#ffffff" fill-opacity="1"><g transform="translate(262.287712, 25.125009)"><g><path d="M 6.359375 -1.140625 L 6.359375 0 L 1.1875 0 L 1.1875 -8 L 6.125 -8 L 6.125 -6.859375 L 2.78125 -6.859375 L 2.78125 -4.796875 L 5.640625 -4.796875 L 5.640625 -3.65625 L 2.78125 -3.65625 L 2.78125 -1.140625 Z M 6.359375 -1.140625 "/></g></g></g><g fill="#ffffff" fill-opacity="1"><g transform="translate(272.79499, 25.125009)"><g><path d="M 4.25 -8 C 5.113281 -8 5.847656 -7.828125 6.453125 -7.484375 C 7.066406 -7.140625 7.53125 -6.664062 7.84375 -6.0625 C 8.15625 -5.457031 8.3125 -4.773438 8.3125 -4.015625 C 8.3125 -3.234375 8.15625 -2.539062 7.84375 -1.9375 C 7.53125 -1.332031 7.066406 -0.859375 6.453125 -0.515625 C 5.847656 -0.171875 5.113281 0 4.25 0 L 1.1875 0 L 1.1875 -8 Z M 4.25 -1.15625 C 5.019531 -1.15625 5.617188 -1.410156 6.046875 -1.921875 C 6.484375 -2.429688 6.703125 -3.125 6.703125 -4 C 6.703125 -4.851562 6.484375 -5.539062 6.046875 -6.0625 C 5.617188 -6.582031 5.019531 -6.84375 4.25 -6.84375 L 2.78125 -6.84375 L 2.78125 -1.15625 Z M 4.25 -1.15625 "/></g></g></g><g fill="#ffffff" fill-opacity="1"><g transform="translate(285.220058, 25.125009)"><g/></g></g><g fill="#ffffff" fill-opacity="1"><g transform="translate(291.691726, 25.125009)"><g><path d="M 6.78125 -6.84375 L 4.359375 -6.84375 L 4.359375 0 L 2.75 0 L 2.75 -6.84375 L 0.3125 -6.84375 L 0.3125 -8 L 6.78125 -8 Z M 6.78125 -6.84375 "/></g></g></g><g fill="#ffffff" fill-opacity="1"><g transform="translate(302.328425, 25.125009)"><g><path d="M 4.71875 0.171875 C 3.84375 0.171875 3.09375 -0.015625 2.46875 -0.390625 C 1.851562 -0.765625 1.382812 -1.265625 1.0625 -1.890625 C 0.75 -2.523438 0.59375 -3.222656 0.59375 -3.984375 C 0.59375 -4.753906 0.75 -5.453125 1.0625 -6.078125 C 1.375 -6.710938 1.84375 -7.210938 2.46875 -7.578125 C 3.09375 -7.953125 3.84375 -8.140625 4.71875 -8.140625 C 5.59375 -8.140625 6.335938 -7.953125 6.953125 -7.578125 C 7.578125 -7.210938 8.046875 -6.710938 8.359375 -6.078125 C 8.679688 -5.453125 8.84375 -4.757812 8.84375 -4 C 8.84375 -3.226562 8.679688 -2.523438 8.359375 -1.890625 C 8.046875 -1.265625 7.578125 -0.765625 6.953125 -0.390625 C 6.335938 -0.015625 5.59375 0.171875 4.71875 0.171875 Z M 4.734375 -1.015625 C 5.253906 -1.015625 5.703125 -1.140625 6.078125 -1.390625 C 6.460938 -1.648438 6.753906 -2.003906 6.953125 -2.453125 C 7.160156 -2.910156 7.265625 -3.425781 7.265625 -4 C 7.265625 -4.5625 7.160156 -5.066406 6.953125 -5.515625 C 6.753906 -5.960938 6.460938 -6.316406 6.078125 -6.578125 C 5.703125 -6.835938 5.253906 -6.96875 4.734375 -6.96875 C 4.203125 -6.96875 3.742188 -6.835938 3.359375 -6.578125 C 2.972656 -6.316406 2.679688 -5.960938 2.484375 -5.515625 C 2.296875 -5.066406 2.203125 -4.5625 2.203125 -4 C 2.203125 -3.425781 2.296875 -2.910156 2.484375 -2.453125 C 2.679688 -2.003906 2.972656 -1.648438 3.359375 -1.390625 C 3.742188 -1.140625 4.203125 -1.015625 4.734375 -1.015625 Z M 4.734375 -1.015625 "/></g></g></g><g fill="#ffffff" fill-opacity="1"><g transform="translate(315.306471, 25.125009)"><g/></g></g><g fill="#ffffff" fill-opacity="1"><g transform="translate(321.778127, 25.125009)"><g><path d="M 6.78125 -6.84375 L 4.359375 -6.84375 L 4.359375 0 L 2.75 0 L 2.75 -6.84375 L 0.3125 -6.84375 L 0.3125 -8 L 6.78125 -8 Z M 6.78125 -6.84375 "/></g></g></g><g fill="#ffffff" fill-opacity="1"><g transform="translate(332.414815, 25.125009)"><g><path d="M 8.1875 -8 L 8.1875 0 L 6.59375 0 L 6.59375 -3.640625 L 2.78125 -3.640625 L 2.78125 0 L 1.1875 0 L 1.1875 -8 L 2.78125 -8 L 2.78125 -4.8125 L 6.59375 -4.8125 L 6.59375 -8 Z M 8.1875 -8 "/></g></g></g><g fill="#ffffff" fill-opacity="1"><g transform="translate(345.310498, 25.125009)"><g><path d="M 6.359375 -1.140625 L 6.359375 0 L 1.1875 0 L 1.1875 -8 L 6.125 -8 L 6.125 -6.859375 L 2.78125 -6.859375 L 2.78125 -4.796875 L 5.640625 -4.796875 L 5.640625 -3.65625 L 2.78125 -3.65625 L 2.78125 -1.140625 Z M 6.359375 -1.140625 "/></g></g></g><g fill="#ffffff" fill-opacity="1"><g transform="translate(355.817776, 25.125009)"><g/></g></g><g fill="#ffffff" fill-opacity="1"><g transform="translate(362.289432, 25.125009)"><g><path d="M 12.359375 -8 L 9.65625 0.078125 L 8.078125 0.078125 L 6.21875 -6 L 4.359375 0.078125 L 2.765625 0.078125 L 0.21875 -8 L 1.859375 -8 L 3.578125 -1.640625 L 5.46875 -8 L 6.96875 -8 L 8.875 -1.625 L 10.6875 -8 Z M 12.359375 -8 "/></g></g></g><g fill="#ffffff" fill-opacity="1"><g transform="translate(378.385364, 25.125009)"><g><path d="M 6.359375 -1.140625 L 6.359375 0 L 1.1875 0 L 1.1875 -8 L 6.125 -8 L 6.125 -6.859375 L 2.78125 -6.859375 L 2.78125 -4.796875 L 5.640625 -4.796875 L 5.640625 -3.65625 L 2.78125 -3.65625 L 2.78125 -1.140625 Z M 6.359375 -1.140625 "/></g></g></g><g fill="#ffffff" fill-opacity="1"><g transform="translate(388.892642, 25.125009)"><g><path d="M 4.25 -8 C 5.113281 -8 5.847656 -7.828125 6.453125 -7.484375 C 7.066406 -7.140625 7.53125 -6.664062 7.84375 -6.0625 C 8.15625 -5.457031 8.3125 -4.773438 8.3125 -4.015625 C 8.3125 -3.234375 8.15625 -2.539062 7.84375 -1.9375 C 7.53125 -1.332031 7.066406 -0.859375 6.453125 -0.515625 C 5.847656 -0.171875 5.113281 0 4.25 0 L 1.1875 0 L 1.1875 -8 Z M 4.25 -1.15625 C 5.019531 -1.15625 5.617188 -1.410156 6.046875 -1.921875 C 6.484375 -2.429688 6.703125 -3.125 6.703125 -4 C 6.703125 -4.851562 6.484375 -5.539062 6.046875 -6.0625 C 5.617188 -6.582031 5.019531 -6.84375 4.25 -6.84375 L 2.78125 -6.84375 L 2.78125 -1.15625 Z M 4.25 -1.15625 "/></g></g></g><g fill="#ffffff" fill-opacity="1"><g transform="translate(401.317698, 25.125009)"><g><path d="M 4.25 -8 C 5.113281 -8 5.847656 -7.828125 6.453125 -7.484375 C 7.066406 -7.140625 7.53125 -6.664062 7.84375 -6.0625 C 8.15625 -5.457031 8.3125 -4.773438 8.3125 -4.015625 C 8.3125 -3.234375 8.15625 -2.539062 7.84375 -1.9375 C 7.53125 -1.332031 7.066406 -0.859375 6.453125 -0.515625 C 5.847656 -0.171875 5.113281 0 4.25 0 L 1.1875 0 L 1.1875 -8 Z M 4.25 -1.15625 C 5.019531 -1.15625 5.617188 -1.410156 6.046875 -1.921875 C 6.484375 -2.429688 6.703125 -3.125 6.703125 -4 C 6.703125 -4.851562 6.484375 -5.539062 6.046875 -6.0625 C 5.617188 -6.582031 5.019531 -6.84375 4.25 -6.84375 L 2.78125 -6.84375 L 2.78125 -1.15625 Z M 4.25 -1.15625 "/></g></g></g><g fill="#ffffff" fill-opacity="1"><g transform="translate(413.742754, 25.125009)"><g><path d="M 1.1875 -8 L 2.78125 -8 L 2.78125 0 L 1.1875 0 Z M 1.1875 -8 "/></g></g></g><g fill="#ffffff" fill-opacity="1"><g transform="translate(421.238038, 25.125009)"><g><path d="M 8.1875 -8 L 8.1875 0 L 6.765625 0.015625 L 2.671875 -5.640625 L 2.78125 -2.9375 L 2.78125 0 L 1.1875 0 L 1.1875 -8 L 2.609375 -8 L 6.703125 -2.359375 L 6.59375 -5.21875 L 6.59375 -8 Z M 8.1875 -8 "/></g></g></g><g fill="#ffffff" fill-opacity="1"><g transform="translate(434.133721, 25.125009)"><g><path d="M 7.6875 -3.84375 L 7.6875 -0.4375 C 7.34375 -0.257812 6.921875 -0.113281 6.421875 0 C 5.921875 0.101562 5.394531 0.15625 4.84375 0.15625 C 3.914062 0.15625 3.132812 -0.03125 2.5 -0.40625 C 1.863281 -0.789062 1.382812 -1.296875 1.0625 -1.921875 C 0.75 -2.554688 0.59375 -3.253906 0.59375 -4.015625 C 0.59375 -4.753906 0.757812 -5.4375 1.09375 -6.0625 C 1.425781 -6.695312 1.921875 -7.203125 2.578125 -7.578125 C 3.234375 -7.953125 4.03125 -8.140625 4.96875 -8.140625 C 5.457031 -8.140625 5.921875 -8.070312 6.359375 -7.9375 C 6.796875 -7.800781 7.171875 -7.617188 7.484375 -7.390625 L 7.0625 -6.296875 C 6.789062 -6.492188 6.476562 -6.65625 6.125 -6.78125 C 5.769531 -6.90625 5.382812 -6.96875 4.96875 -6.96875 C 4.382812 -6.96875 3.878906 -6.835938 3.453125 -6.578125 C 3.035156 -6.316406 2.71875 -5.957031 2.5 -5.5 C 2.289062 -5.050781 2.1875 -4.550781 2.1875 -4 C 2.1875 -3.425781 2.285156 -2.910156 2.484375 -2.453125 C 2.691406 -2.003906 2.992188 -1.648438 3.390625 -1.390625 C 3.796875 -1.140625 4.28125 -1.015625 4.84375 -1.015625 C 5.226562 -1.015625 5.65625 -1.054688 6.125 -1.140625 L 6.125 -3.84375 Z M 7.6875 -3.84375 "/></g></g></g><g fill="#ffffff" fill-opacity="1"><g transform="translate(446.041092, 25.125009)"><g/></g></g><g fill="#ffffff" fill-opacity="1"><g transform="translate(452.512748, 25.125009)"><g><path d="M 4.71875 0.171875 C 3.84375 0.171875 3.09375 -0.015625 2.46875 -0.390625 C 1.851562 -0.765625 1.382812 -1.265625 1.0625 -1.890625 C 0.75 -2.523438 0.59375 -3.222656 0.59375 -3.984375 C 0.59375 -4.753906 0.75 -5.453125 1.0625 -6.078125 C 1.375 -6.710938 1.84375 -7.210938 2.46875 -7.578125 C 3.09375 -7.953125 3.84375 -8.140625 4.71875 -8.140625 C 5.59375 -8.140625 6.335938 -7.953125 6.953125 -7.578125 C 7.578125 -7.210938 8.046875 -6.710938 8.359375 -6.078125 C 8.679688 -5.453125 8.84375 -4.757812 8.84375 -4 C 8.84375 -3.226562 8.679688 -2.523438 8.359375 -1.890625 C 8.046875 -1.265625 7.578125 -0.765625 6.953125 -0.390625 C 6.335938 -0.015625 5.59375 0.171875 4.71875 0.171875 Z M 4.734375 -1.015625 C 5.253906 -1.015625 5.703125 -1.140625 6.078125 -1.390625 C 6.460938 -1.648438 6.753906 -2.003906 6.953125 -2.453125 C 7.160156 -2.910156 7.265625 -3.425781 7.265625 -4 C 7.265625 -4.5625 7.160156 -5.066406 6.953125 -5.515625 C 6.753906 -5.960938 6.460938 -6.316406 6.078125 -6.578125 C 5.703125 -6.835938 5.253906 -6.96875 4.734375 -6.96875 C 4.203125 -6.96875 3.742188 -6.835938 3.359375 -6.578125 C 2.972656 -6.316406 2.679688 -5.960938 2.484375 -5.515625 C 2.296875 -5.066406 2.203125 -4.5625 2.203125 -4 C 2.203125 -3.425781 2.296875 -2.910156 2.484375 -2.453125 C 2.679688 -2.003906 2.972656 -1.648438 3.359375 -1.390625 C 3.742188 -1.140625 4.203125 -1.015625 4.734375 -1.015625 Z M 4.734375 -1.015625 "/></g></g></g><g fill="#ffffff" fill-opacity="1"><g transform="translate(465.490783, 25.125009)"><g><path d="M 2.78125 -6.84375 L 2.78125 -4.453125 L 5.640625 -4.453125 L 5.640625 -3.3125 L 2.78125 -3.3125 L 2.78125 0 L 1.1875 0 L 1.1875 -8 L 6.125 -8 L 6.125 -6.84375 Z M 2.78125 -6.84375 "/></g></g></g><g fill="#ffffff" fill-opacity="1"><g transform="translate(238.075228, 190.205599)"><g><path d="M 3.984375 -4.40625 L 2.453125 -4.40625 L 2.265625 -3.125 L 3.78125 -3.125 Z M 4.8125 -4.40625 L 4.609375 -3.125 L 5.78125 -3.125 L 5.78125 -1.90625 L 4.421875 -1.90625 L 4.125 0 L 3.296875 0 L 3.59375 -1.90625 L 2.078125 -1.90625 L 1.765625 0 L 0.9375 0 L 1.25 -1.90625 L 0.296875 -1.90625 L 0.296875 -3.125 L 1.4375 -3.125 L 1.640625 -4.40625 L 0.578125 -4.40625 L 0.578125 -5.640625 L 1.828125 -5.640625 L 2.15625 -7.640625 L 2.984375 -7.640625 L 2.65625 -5.640625 L 4.1875 -5.640625 L 4.5 -7.640625 L 5.328125 -7.640625 L 5.015625 -5.640625 L 6.0625 -5.640625 L 6.0625 -4.40625 Z M 4.8125 -4.40625 "/></g></g></g><g fill="#ffffff" fill-opacity="1"><g transform="translate(247.958928, 190.205599)"><g><path d="M 4.53125 -3.046875 L 3.59375 -5.671875 L 2.609375 -3.046875 Z M 7.875 -0.578125 L 7.875 0 L 4.40625 0 L 4.40625 -0.578125 L 5.375 -0.6875 L 4.765625 -2.40625 L 2.375 -2.40625 L 1.75 -0.734375 L 2.703125 -0.59375 L 2.703125 0 L 0.0625 0 L 0.0625 -0.59375 L 1.109375 -0.734375 L 3.71875 -7.703125 L 4.421875 -7.703125 L 7.09375 -0.671875 Z M 7.875 -0.578125 "/></g></g></g><g fill="#ffffff" fill-opacity="1"><g transform="translate(259.407447, 190.205599)"><g><path d="M 7.078125 -0.515625 L 7.078125 0 L 4.078125 0 L 4.078125 -0.515625 L 4.78125 -0.65625 C 4.789062 -0.945312 4.796875 -1.253906 4.796875 -1.578125 C 4.796875 -1.910156 4.796875 -2.207031 4.796875 -2.46875 L 4.796875 -3.59375 C 4.796875 -4.039062 4.75 -4.367188 4.65625 -4.578125 C 4.5625 -4.785156 4.378906 -4.890625 4.109375 -4.890625 C 3.878906 -4.890625 3.65625 -4.828125 3.4375 -4.703125 C 3.226562 -4.585938 3.007812 -4.421875 2.78125 -4.203125 L 2.78125 -2.46875 C 2.78125 -2.21875 2.78125 -1.925781 2.78125 -1.59375 C 2.78125 -1.257812 2.78125 -0.945312 2.78125 -0.65625 L 3.453125 -0.515625 L 3.453125 0 L 0.453125 0 L 0.453125 -0.515625 L 1.171875 -0.65625 C 1.171875 -0.957031 1.171875 -1.269531 1.171875 -1.59375 C 1.171875 -1.925781 1.171875 -2.21875 1.171875 -2.46875 L 1.171875 -3.140625 C 1.171875 -3.304688 1.171875 -3.445312 1.171875 -3.5625 C 1.171875 -3.6875 1.171875 -3.800781 1.171875 -3.90625 C 1.171875 -4.019531 1.164062 -4.125 1.15625 -4.21875 C 1.15625 -4.3125 1.148438 -4.421875 1.140625 -4.546875 L 0.359375 -4.640625 L 0.359375 -5.09375 L 2.484375 -5.859375 L 2.65625 -5.734375 L 2.734375 -4.8125 C 2.898438 -5 3.054688 -5.15625 3.203125 -5.28125 C 3.347656 -5.414062 3.492188 -5.523438 3.640625 -5.609375 C 3.796875 -5.691406 3.953125 -5.753906 4.109375 -5.796875 C 4.273438 -5.835938 4.457031 -5.859375 4.65625 -5.859375 C 5.21875 -5.859375 5.648438 -5.691406 5.953125 -5.359375 C 6.253906 -5.023438 6.40625 -4.5 6.40625 -3.78125 L 6.40625 -2.46875 C 6.40625 -2.207031 6.40625 -1.910156 6.40625 -1.578125 C 6.40625 -1.242188 6.40625 -0.9375 6.40625 -0.65625 Z M 7.078125 -0.515625 "/></g></g></g><g fill="#ffffff" fill-opacity="1"><g transform="translate(270.279456, 190.205599)"><g><path d="M 7.078125 -0.515625 L 7.078125 0 L 4.078125 0 L 4.078125 -0.515625 L 4.78125 -0.65625 C 4.789062 -0.945312 4.796875 -1.253906 4.796875 -1.578125 C 4.796875 -1.910156 4.796875 -2.207031 4.796875 -2.46875 L 4.796875 -3.59375 C 4.796875 -4.039062 4.75 -4.367188 4.65625 -4.578125 C 4.5625 -4.785156 4.378906 -4.890625 4.109375 -4.890625 C 3.878906 -4.890625 3.65625 -4.828125 3.4375 -4.703125 C 3.226562 -4.585938 3.007812 -4.421875 2.78125 -4.203125 L 2.78125 -2.46875 C 2.78125 -2.21875 2.78125 -1.925781 2.78125 -1.59375 C 2.78125 -1.257812 2.78125 -0.945312 2.78125 -0.65625 L 3.453125 -0.515625 L 3.453125 0 L 0.453125 0 L 0.453125 -0.515625 L 1.171875 -0.65625 C 1.171875 -0.957031 1.171875 -1.269531 1.171875 -1.59375 C 1.171875 -1.925781 1.171875 -2.21875 1.171875 -2.46875 L 1.171875 -3.140625 C 1.171875 -3.304688 1.171875 -3.445312 1.171875 -3.5625 C 1.171875 -3.6875 1.171875 -3.800781 1.171875 -3.90625 C 1.171875 -4.019531 1.164062 -4.125 1.15625 -4.21875 C 1.15625 -4.3125 1.148438 -4.421875 1.140625 -4.546875 L 0.359375 -4.640625 L 0.359375 -5.09375 L 2.484375 -5.859375 L 2.65625 -5.734375 L 2.734375 -4.8125 C 2.898438 -5 3.054688 -5.15625 3.203125 -5.28125 C 3.347656 -5.414062 3.492188 -5.523438 3.640625 -5.609375 C 3.796875 -5.691406 3.953125 -5.753906 4.109375 -5.796875 C 4.273438 -5.835938 4.457031 -5.859375 4.65625 -5.859375 C 5.21875 -5.859375 5.648438 -5.691406 5.953125 -5.359375 C 6.253906 -5.023438 6.40625 -4.5 6.40625 -3.78125 L 6.40625 -2.46875 C 6.40625 -2.207031 6.40625 -1.910156 6.40625 -1.578125 C 6.40625 -1.242188 6.40625 -0.9375 6.40625 -0.65625 Z M 7.078125 -0.515625 "/></g></g></g><g fill="#ffffff" fill-opacity="1"><g transform="translate(281.151469, 190.205599)"><g><path d="M 1.953125 -6.828125 C 1.679688 -6.828125 1.445312 -6.914062 1.25 -7.09375 C 1.0625 -7.269531 0.96875 -7.5 0.96875 -7.78125 C 0.96875 -8.050781 1.0625 -8.269531 1.25 -8.4375 C 1.445312 -8.613281 1.679688 -8.703125 1.953125 -8.703125 C 2.222656 -8.703125 2.453125 -8.613281 2.640625 -8.4375 C 2.828125 -8.269531 2.921875 -8.050781 2.921875 -7.78125 C 2.921875 -7.5 2.828125 -7.269531 2.640625 -7.09375 C 2.453125 -6.914062 2.222656 -6.828125 1.953125 -6.828125 Z M 3.453125 -0.515625 L 3.453125 0 L 0.453125 0 L 0.453125 -0.515625 L 1.171875 -0.65625 C 1.171875 -0.957031 1.171875 -1.269531 1.171875 -1.59375 C 1.171875 -1.925781 1.171875 -2.21875 1.171875 -2.46875 L 1.171875 -3.0625 C 1.171875 -3.382812 1.164062 -3.648438 1.15625 -3.859375 C 1.15625 -4.078125 1.148438 -4.304688 1.140625 -4.546875 L 0.359375 -4.640625 L 0.359375 -5.09375 L 2.640625 -5.859375 L 2.8125 -5.734375 L 2.78125 -4.0625 L 2.78125 -2.46875 C 2.78125 -2.21875 2.78125 -1.925781 2.78125 -1.59375 C 2.78125 -1.257812 2.78125 -0.945312 2.78125 -0.65625 Z M 3.453125 -0.515625 "/></g></g></g><g fill="#ffffff" fill-opacity="1"><g transform="translate(288.317313, 190.205599)"><g><path d="M 3.546875 -3.359375 C 3.828125 -3.359375 4.019531 -3.414062 4.125 -3.53125 C 4.226562 -3.644531 4.28125 -3.828125 4.28125 -4.078125 C 4.28125 -4.453125 4.203125 -4.742188 4.046875 -4.953125 C 3.890625 -5.160156 3.6875 -5.265625 3.4375 -5.265625 C 3.300781 -5.265625 3.160156 -5.234375 3.015625 -5.171875 C 2.878906 -5.109375 2.75 -5.003906 2.625 -4.859375 C 2.507812 -4.710938 2.40625 -4.515625 2.3125 -4.265625 C 2.21875 -4.015625 2.15625 -3.710938 2.125 -3.359375 Z M 2.125 -2.765625 C 2.144531 -2.066406 2.3125 -1.550781 2.625 -1.21875 C 2.945312 -0.894531 3.347656 -0.734375 3.828125 -0.734375 C 4.171875 -0.734375 4.453125 -0.8125 4.671875 -0.96875 C 4.898438 -1.125 5.101562 -1.34375 5.28125 -1.625 L 5.6875 -1.40625 C 5.53125 -0.882812 5.234375 -0.488281 4.796875 -0.21875 C 4.367188 0.0390625 3.859375 0.171875 3.265625 0.171875 C 2.835938 0.171875 2.445312 0.109375 2.09375 -0.015625 C 1.738281 -0.148438 1.4375 -0.34375 1.1875 -0.59375 C 0.945312 -0.851562 0.753906 -1.171875 0.609375 -1.546875 C 0.472656 -1.921875 0.40625 -2.347656 0.40625 -2.828125 C 0.40625 -3.273438 0.476562 -3.679688 0.625 -4.046875 C 0.78125 -4.410156 0.988281 -4.726562 1.25 -5 C 1.507812 -5.269531 1.820312 -5.476562 2.1875 -5.625 C 2.550781 -5.78125 2.941406 -5.859375 3.359375 -5.859375 C 3.734375 -5.859375 4.070312 -5.796875 4.375 -5.671875 C 4.675781 -5.554688 4.929688 -5.382812 5.140625 -5.15625 C 5.347656 -4.9375 5.507812 -4.675781 5.625 -4.375 C 5.738281 -4.070312 5.796875 -3.738281 5.796875 -3.375 C 5.796875 -3.15625 5.773438 -2.953125 5.734375 -2.765625 Z M 2.125 -2.765625 "/></g></g></g><g fill="#ffffff" fill-opacity="1"><g transform="translate(298.048052, 190.205599)"><g><path d="M 1.953125 -6.828125 C 1.679688 -6.828125 1.445312 -6.914062 1.25 -7.09375 C 1.0625 -7.269531 0.96875 -7.5 0.96875 -7.78125 C 0.96875 -8.050781 1.0625 -8.269531 1.25 -8.4375 C 1.445312 -8.613281 1.679688 -8.703125 1.953125 -8.703125 C 2.222656 -8.703125 2.453125 -8.613281 2.640625 -8.4375 C 2.828125 -8.269531 2.921875 -8.050781 2.921875 -7.78125 C 2.921875 -7.5 2.828125 -7.269531 2.640625 -7.09375 C 2.453125 -6.914062 2.222656 -6.828125 1.953125 -6.828125 Z M 3.453125 -0.515625 L 3.453125 0 L 0.453125 0 L 0.453125 -0.515625 L 1.171875 -0.65625 C 1.171875 -0.957031 1.171875 -1.269531 1.171875 -1.59375 C 1.171875 -1.925781 1.171875 -2.21875 1.171875 -2.46875 L 1.171875 -3.0625 C 1.171875 -3.382812 1.164062 -3.648438 1.15625 -3.859375 C 1.15625 -4.078125 1.148438 -4.304688 1.140625 -4.546875 L 0.359375 -4.640625 L 0.359375 -5.09375 L 2.640625 -5.859375 L 2.8125 -5.734375 L 2.78125 -4.0625 L 2.78125 -2.46875 C 2.78125 -2.21875 2.78125 -1.925781 2.78125 -1.59375 C 2.78125 -1.257812 2.78125 -0.945312 2.78125 -0.65625 Z M 3.453125 -0.515625 "/></g></g></g><g fill="#ffffff" fill-opacity="1"><g transform="translate(305.213895, 190.205599)"><g><path d="M 3.5 -3.484375 C 3.8125 -3.367188 4.066406 -3.242188 4.265625 -3.109375 C 4.472656 -2.984375 4.632812 -2.847656 4.75 -2.703125 C 4.875 -2.554688 4.957031 -2.398438 5 -2.234375 C 5.050781 -2.066406 5.078125 -1.882812 5.078125 -1.6875 C 5.078125 -1.40625 5.015625 -1.148438 4.890625 -0.921875 C 4.773438 -0.703125 4.609375 -0.507812 4.390625 -0.34375 C 4.171875 -0.175781 3.90625 -0.0507812 3.59375 0.03125 C 3.289062 0.125 2.945312 0.171875 2.5625 0.171875 C 2.15625 0.171875 1.796875 0.125 1.484375 0.03125 C 1.179688 -0.0625 0.863281 -0.203125 0.53125 -0.390625 L 0.53125 -1.734375 L 1.4375 -1.734375 L 1.59375 -0.71875 C 1.769531 -0.613281 1.929688 -0.539062 2.078125 -0.5 C 2.234375 -0.457031 2.394531 -0.4375 2.5625 -0.4375 C 2.9375 -0.4375 3.210938 -0.5 3.390625 -0.625 C 3.566406 -0.75 3.65625 -0.941406 3.65625 -1.203125 C 3.65625 -1.304688 3.632812 -1.398438 3.59375 -1.484375 C 3.5625 -1.566406 3.503906 -1.644531 3.421875 -1.71875 C 3.335938 -1.789062 3.222656 -1.859375 3.078125 -1.921875 C 2.929688 -1.992188 2.742188 -2.078125 2.515625 -2.171875 L 1.984375 -2.375 C 1.503906 -2.550781 1.144531 -2.78125 0.90625 -3.0625 C 0.664062 -3.351562 0.546875 -3.707031 0.546875 -4.125 C 0.546875 -4.644531 0.742188 -5.0625 1.140625 -5.375 C 1.535156 -5.695312 2.140625 -5.859375 2.953125 -5.859375 C 3.304688 -5.859375 3.617188 -5.816406 3.890625 -5.734375 C 4.171875 -5.660156 4.453125 -5.550781 4.734375 -5.40625 L 4.671875 -4.125 L 3.78125 -4.125 L 3.59375 -5.09375 C 3.5 -5.132812 3.394531 -5.171875 3.28125 -5.203125 C 3.175781 -5.234375 3.039062 -5.25 2.875 -5.25 C 2.59375 -5.25 2.363281 -5.179688 2.1875 -5.046875 C 2.019531 -4.921875 1.9375 -4.742188 1.9375 -4.515625 C 1.9375 -4.429688 1.953125 -4.351562 1.984375 -4.28125 C 2.015625 -4.207031 2.070312 -4.132812 2.15625 -4.0625 C 2.25 -3.988281 2.367188 -3.914062 2.515625 -3.84375 C 2.671875 -3.769531 2.867188 -3.695312 3.109375 -3.625 Z M 3.5 -3.484375 "/></g></g></g><g fill="#ffffff" fill-opacity="1"><g transform="translate(314.203412, 190.205599)"><g><path d="M 3.328125 -5.265625 C 2.503906 -5.265625 2.09375 -4.453125 2.09375 -2.828125 C 2.09375 -2.003906 2.195312 -1.394531 2.40625 -1 C 2.613281 -0.601562 2.921875 -0.40625 3.328125 -0.40625 C 3.742188 -0.40625 4.050781 -0.601562 4.25 -1 C 4.457031 -1.394531 4.5625 -2.003906 4.5625 -2.828125 C 4.5625 -4.453125 4.148438 -5.265625 3.328125 -5.265625 Z M 3.328125 -5.859375 C 3.722656 -5.859375 4.097656 -5.785156 4.453125 -5.640625 C 4.804688 -5.503906 5.117188 -5.300781 5.390625 -5.03125 C 5.671875 -4.769531 5.894531 -4.453125 6.0625 -4.078125 C 6.226562 -3.710938 6.3125 -3.296875 6.3125 -2.828125 C 6.3125 -2.359375 6.234375 -1.9375 6.078125 -1.5625 C 5.929688 -1.195312 5.722656 -0.882812 5.453125 -0.625 C 5.191406 -0.363281 4.878906 -0.164062 4.515625 -0.03125 C 4.148438 0.101562 3.753906 0.171875 3.328125 0.171875 C 2.898438 0.171875 2.503906 0.101562 2.140625 -0.03125 C 1.773438 -0.164062 1.460938 -0.363281 1.203125 -0.625 C 0.941406 -0.882812 0.734375 -1.195312 0.578125 -1.5625 C 0.429688 -1.9375 0.359375 -2.359375 0.359375 -2.828125 C 0.359375 -3.296875 0.4375 -3.710938 0.59375 -4.078125 C 0.75 -4.453125 0.960938 -4.769531 1.234375 -5.03125 C 1.515625 -5.300781 1.832031 -5.503906 2.1875 -5.640625 C 2.550781 -5.785156 2.929688 -5.859375 3.328125 -5.859375 Z M 3.328125 -5.859375 "/></g></g></g><g fill="#ffffff" fill-opacity="1"><g transform="translate(324.393014, 190.205599)"><g><path d="M 8.25 -0.59375 L 8.25 0 L 4.765625 0 L 4.765625 -0.59375 L 5.453125 -0.65625 L 3.875 -3.8125 L 3.078125 -2.828125 C 3.078125 -2.472656 3.078125 -2.113281 3.078125 -1.75 C 3.078125 -1.394531 3.082031 -1.039062 3.09375 -0.6875 L 4.046875 -0.59375 L 4.046875 0 L 0.375 0 L 0.375 -0.59375 L 1.328125 -0.6875 C 1.347656 -1.175781 1.359375 -1.664062 1.359375 -2.15625 C 1.359375 -2.644531 1.359375 -3.140625 1.359375 -3.640625 L 1.359375 -4.0625 C 1.359375 -4.550781 1.359375 -5.039062 1.359375 -5.53125 C 1.359375 -6.019531 1.347656 -6.515625 1.328125 -7.015625 L 0.375 -7.125 L 0.375 -7.703125 L 4.046875 -7.703125 L 4.046875 -7.125 L 3.09375 -7.015625 C 3.082031 -6.523438 3.078125 -6.035156 3.078125 -5.546875 C 3.078125 -5.054688 3.078125 -4.5625 3.078125 -4.0625 L 3.078125 -3.75 L 5.6875 -7 L 5.046875 -7.125 L 5.046875 -7.703125 L 7.703125 -7.703125 L 7.703125 -7.125 L 6.46875 -6.96875 L 4.90625 -5.078125 L 7.3125 -0.6875 Z M 8.25 -0.59375 "/></g></g></g><g fill="#ffffff" fill-opacity="1"><g transform="translate(336.170969, 190.205599)"><g><path d="M 3.734375 -3.03125 C 3.578125 -3 3.4375 -2.957031 3.3125 -2.90625 C 3.1875 -2.863281 3.078125 -2.820312 2.984375 -2.78125 C 2.628906 -2.65625 2.382812 -2.488281 2.25 -2.28125 C 2.125 -2.082031 2.0625 -1.851562 2.0625 -1.59375 C 2.0625 -1.4375 2.082031 -1.3125 2.125 -1.21875 C 2.164062 -1.125 2.21875 -1.046875 2.28125 -0.984375 C 2.445312 -0.816406 2.664062 -0.734375 2.9375 -0.734375 C 3.0625 -0.734375 3.179688 -0.753906 3.296875 -0.796875 C 3.421875 -0.847656 3.566406 -0.929688 3.734375 -1.046875 Z M 6.34375 -0.734375 C 6.1875 -0.421875 6.003906 -0.195312 5.796875 -0.0625 C 5.597656 0.0625 5.351562 0.125 5.0625 0.125 C 4.738281 0.125 4.46875 0.0625 4.25 -0.0625 C 4.039062 -0.195312 3.894531 -0.363281 3.8125 -0.5625 C 3.539062 -0.320312 3.28125 -0.140625 3.03125 -0.015625 C 2.789062 0.109375 2.488281 0.171875 2.125 0.171875 C 1.644531 0.171875 1.257812 0.0507812 0.96875 -0.1875 C 0.675781 -0.425781 0.53125 -0.773438 0.53125 -1.234375 C 0.53125 -1.410156 0.554688 -1.585938 0.609375 -1.765625 C 0.671875 -1.941406 0.78125 -2.113281 0.9375 -2.28125 C 1.101562 -2.457031 1.328125 -2.625 1.609375 -2.78125 C 1.890625 -2.9375 2.253906 -3.085938 2.703125 -3.234375 C 2.835938 -3.285156 2.992188 -3.332031 3.171875 -3.375 C 3.359375 -3.425781 3.546875 -3.484375 3.734375 -3.546875 L 3.734375 -3.890625 C 3.734375 -4.390625 3.65625 -4.742188 3.5 -4.953125 C 3.351562 -5.160156 3.09375 -5.265625 2.71875 -5.265625 C 2.65625 -5.265625 2.59375 -5.265625 2.53125 -5.265625 C 2.476562 -5.265625 2.421875 -5.257812 2.359375 -5.25 L 2.265625 -4.5625 C 2.222656 -4.257812 2.125 -4.03125 1.96875 -3.875 C 1.820312 -3.726562 1.648438 -3.65625 1.453125 -3.65625 C 1.265625 -3.65625 1.101562 -3.707031 0.96875 -3.8125 C 0.84375 -3.925781 0.765625 -4.078125 0.734375 -4.265625 C 0.785156 -4.722656 1.03125 -5.101562 1.46875 -5.40625 C 1.90625 -5.707031 2.503906 -5.859375 3.265625 -5.859375 C 3.628906 -5.859375 3.941406 -5.816406 4.203125 -5.734375 C 4.460938 -5.648438 4.675781 -5.515625 4.84375 -5.328125 C 5.007812 -5.148438 5.128906 -4.910156 5.203125 -4.609375 C 5.285156 -4.304688 5.328125 -3.9375 5.328125 -3.5 L 5.328125 -1.078125 C 5.328125 -0.941406 5.347656 -0.832031 5.390625 -0.75 C 5.441406 -0.675781 5.519531 -0.640625 5.625 -0.640625 C 5.695312 -0.640625 5.757812 -0.660156 5.8125 -0.703125 C 5.863281 -0.753906 5.921875 -0.816406 5.984375 -0.890625 L 6.03125 -0.96875 Z M 6.34375 -0.734375 "/></g></g></g><g fill="#ffffff" fill-opacity="1"><g transform="translate(345.984072, 190.205599)"><g><path d="M 6.109375 -5.125 L 5.359375 -5 L 3.453125 0.15625 C 3.160156 0.96875 2.851562 1.578125 2.53125 1.984375 C 2.207031 2.390625 1.789062 2.59375 1.28125 2.59375 C 1.125 2.59375 0.972656 2.570312 0.828125 2.53125 C 0.679688 2.5 0.550781 2.445312 0.4375 2.375 C 0.332031 2.300781 0.242188 2.210938 0.171875 2.109375 C 0.109375 2.015625 0.078125 1.898438 0.078125 1.765625 C 0.140625 1.554688 0.238281 1.410156 0.375 1.328125 C 0.507812 1.253906 0.675781 1.21875 0.875 1.21875 C 1.007812 1.21875 1.144531 1.238281 1.28125 1.28125 C 1.414062 1.332031 1.5625 1.425781 1.71875 1.5625 L 1.921875 1.734375 C 2.085938 1.585938 2.238281 1.410156 2.375 1.203125 C 2.507812 1.003906 2.640625 0.757812 2.765625 0.46875 L 0.546875 -4.984375 L -0.125 -5.125 L -0.125 -5.640625 L 3.09375 -5.640625 L 3.09375 -5.125 L 2.265625 -4.96875 L 3.5 -1.59375 L 4.703125 -4.984375 L 3.953125 -5.125 L 3.953125 -5.640625 L 6.109375 -5.640625 Z M 6.109375 -5.125 "/></g></g></g><g fill="#ffffff" fill-opacity="1"><g transform="translate(355.714811, 190.205599)"><g><path d="M 3.546875 -3.359375 C 3.828125 -3.359375 4.019531 -3.414062 4.125 -3.53125 C 4.226562 -3.644531 4.28125 -3.828125 4.28125 -4.078125 C 4.28125 -4.453125 4.203125 -4.742188 4.046875 -4.953125 C 3.890625 -5.160156 3.6875 -5.265625 3.4375 -5.265625 C 3.300781 -5.265625 3.160156 -5.234375 3.015625 -5.171875 C 2.878906 -5.109375 2.75 -5.003906 2.625 -4.859375 C 2.507812 -4.710938 2.40625 -4.515625 2.3125 -4.265625 C 2.21875 -4.015625 2.15625 -3.710938 2.125 -3.359375 Z M 2.125 -2.765625 C 2.144531 -2.066406 2.3125 -1.550781 2.625 -1.21875 C 2.945312 -0.894531 3.347656 -0.734375 3.828125 -0.734375 C 4.171875 -0.734375 4.453125 -0.8125 4.671875 -0.96875 C 4.898438 -1.125 5.101562 -1.34375 5.28125 -1.625 L 5.6875 -1.40625 C 5.53125 -0.882812 5.234375 -0.488281 4.796875 -0.21875 C 4.367188 0.0390625 3.859375 0.171875 3.265625 0.171875 C 2.835938 0.171875 2.445312 0.109375 2.09375 -0.015625 C 1.738281 -0.148438 1.4375 -0.34375 1.1875 -0.59375 C 0.945312 -0.851562 0.753906 -1.171875 0.609375 -1.546875 C 0.472656 -1.921875 0.40625 -2.347656 0.40625 -2.828125 C 0.40625 -3.273438 0.476562 -3.679688 0.625 -4.046875 C 0.78125 -4.410156 0.988281 -4.726562 1.25 -5 C 1.507812 -5.269531 1.820312 -5.476562 2.1875 -5.625 C 2.550781 -5.78125 2.941406 -5.859375 3.359375 -5.859375 C 3.734375 -5.859375 4.070312 -5.796875 4.375 -5.671875 C 4.675781 -5.554688 4.929688 -5.382812 5.140625 -5.15625 C 5.347656 -4.9375 5.507812 -4.675781 5.625 -4.375 C 5.738281 -4.070312 5.796875 -3.738281 5.796875 -3.375 C 5.796875 -3.15625 5.773438 -2.953125 5.734375 -2.765625 Z M 2.125 -2.765625 "/></g></g></g></svg>